<svg xmlns="http://www.w3.org/2000/svg" xml:space="preserve" width="800" height="800" viewBox="0 0 508 508" fill="currentColor">
  <path
    d="M409.8 220.9C403.3 149.6 341.4 79.2 254 79.2c-86.4 0-156.6 70.3-156.6 156.6 0 61.7 36.8 118 92.6 143v16h-.2c-7.8 0-14.1 6.3-14.1 14.1S182 423 189.8 423h.2v16.5h-.2c-7.8 0-14.1 6.3-14.1 14.1s6.3 14.1 14.1 14.1h4.8C204 491.3 227 508 253.9 508s49.9-16.7 59.3-40.3h4.9c7.8 0 14.1-6.3 14.1-14.1s-6.3-14.1-14.1-14.1h-.3V423h.3c7.8 0 14.1-6.3 14.1-14.1s-6.3-14.1-14.1-14.1h-.3v-16c60.8-27.2 98.3-90.7 92-157.9zm-111 135.2c-5.5 2.1-9.2 7.3-9.2 13.2V444c0 19.7-16 35.7-35.7 35.7-19.7 0-35.7-16-35.7-35.7v-74.7c0-5.9-3.7-11.2-9.2-13.2-49.9-18.6-83.5-67-83.5-120.3 0-70.8 57.6-128.4 128.4-128.4 68.3 0 122.4 57.7 127.8 116.1 5.5 57.9-28.6 112.4-82.9 132.6z" />
  <path
    d="M325.3 184.1c-5.5-5.6-14.4-5.6-19.9-.1l-73.8 73.8-29-29c-5.5-5.5-14.4-5.5-20 0-5.5 5.5-5.5 14.4 0 20l39 39c2.8 2.8 6.4 4.1 10 4.1 3.6 0 7.2-1.4 10-4.1l83.7-83.7c5.5-5.5 5.5-14.4 0-20zM61.3 221.7h-29c-7.8 0-14.1 6.3-14.1 14.1s6.3 14.1 14.1 14.1h29c7.8 0 14.1-6.3 14.1-14.1s-6.3-14.1-14.1-14.1zM475.7 221.7h-29c-7.8 0-14.1 6.3-14.1 14.1s6.3 14.1 14.1 14.1h29c7.8 0 14.1-6.3 14.1-14.1s-6.3-14.1-14.1-14.1zM254 0c-7.8 0-14.1 6.3-14.1 14.1v29c0 7.8 6.3 14.1 14.1 14.1s14.1-6.3 14.1-14.1v-29C268.1 6.3 261.8 0 254 0zM127.7 89.5 107.2 69c-5.5-5.5-14.4-5.5-20 0-5.5 5.5-5.5 14.4 0 20l20.5 20.5c5.6 5.5 14.5 5.5 20 0s5.5-14.4 0-20zM420.7 69c-5.5-5.4-14.4-5.4-19.9.1l-20.5 20.5c-5.5 5.5-5.5 14.4 0 20 5.5 5.5 14.4 5.5 20 0L420.7 89c5.5-5.5 5.5-14.4 0-20z" />
</svg>