<svg width="81" height="66" viewBox="0 0 81 66" fill="none" xmlns="http://www.w3.org/2000/svg">
<circle cx="23.7333" cy="23.4349" r="23.4091" fill="#00ADB4" fill-opacity="0.12"/>
<g clip-path="url(#clip0_394_151)">
<path d="M60.8398 49.3018C64.0655 49.332 65.6933 53.0992 63.4878 55.4621C64.6731 56.7833 64.8456 58.2554 63.9904 59.7955C63.1203 61.3582 61.6499 61.6753 59.9996 61.5319C59.9321 61.9622 59.9021 62.3321 59.812 62.6945C59.3544 64.6347 57.7266 65.9558 55.7536 65.9785C53.2931 66.0011 50.8326 65.9936 48.372 65.9785C46.0165 65.9709 44.2536 64.3327 44.0436 61.9697C44.0361 61.8489 44.0286 61.7281 44.0136 61.5243C42.3332 61.6828 40.8704 61.3356 39.9702 59.7502C39.175 58.3535 39.355 56.8739 40.4953 55.4546C38.7474 53.5974 39.3025 50.4191 41.9881 49.4301C41.673 48.8941 41.373 48.3506 41.0279 47.8297C40.9379 47.6938 40.7128 47.5654 40.5478 47.5654C36.872 47.573 34.0889 44.591 33.8563 41.2768C33.7963 40.3935 33.9689 39.4951 34.0364 38.5363C31.2758 37.1019 29.7529 34.7314 29.7529 31.4776C29.7529 28.2465 31.2683 25.8911 34.1639 24.3812C33.7888 23.1733 33.6988 21.9352 34.0139 20.682C34.7715 17.6244 37.3446 15.5031 40.4653 15.4427C40.8104 15.4427 40.9754 15.3445 41.1254 15.0274C42.3707 12.4229 44.8537 11.215 47.6369 11.834C50.2999 12.4304 52.0628 14.6273 52.0628 17.4735C52.0778 26.8272 52.0628 36.1885 52.0628 45.5422C52.0628 46.9313 51.5902 48.1543 50.69 49.3093H53.4206V48.5393C53.4206 37.1246 53.4206 25.7174 53.4206 14.3027C53.4206 12.4455 54.3583 11.5094 56.1887 11.7208C61.7024 12.3399 65.8058 15.2011 68.559 19.9723C72.3773 26.6007 71.0045 34.9881 65.3332 40.1066C62.7827 42.4092 61.2448 45.1949 60.8698 48.6299C60.8548 48.7733 60.8398 48.9243 60.8248 49.0678C60.8248 49.1282 60.8323 49.1961 60.8398 49.2943V49.3018ZM42.9708 15.8503C43.1509 15.9409 43.3009 16.0089 43.4434 16.0844C44.5087 16.6581 45.4314 17.3904 46.0765 18.4322C46.4891 19.1041 46.4291 19.6024 45.9415 19.927C45.3714 20.2969 44.9288 20.1988 44.4412 19.5722C44.1786 19.2476 43.9686 18.8701 43.661 18.5908C42.1382 17.2319 40.0377 17.0582 38.2598 18.1076C36.4294 19.1872 35.5142 21.1802 35.9043 23.1657C36.0018 23.6564 36.1893 23.8301 36.722 23.8074C38.3723 23.7319 39.7676 24.3661 40.9079 25.5664C41.0729 25.7401 41.2305 25.9665 41.283 26.2006C41.3955 26.6535 41.238 27.0386 40.8179 27.265C40.3228 27.5293 39.9102 27.3707 39.5276 26.9933C38.2073 25.6872 36.827 25.4305 35.1316 26.1628C32.8961 27.1292 31.5608 29.4015 31.7559 31.9457C31.9284 34.203 33.0462 35.8185 34.9216 36.7245C36.0243 35.9393 36.9995 35.1919 38.0272 34.5427C38.4098 34.3011 38.9199 34.203 39.3925 34.1501C39.9102 34.0897 40.2852 34.3917 40.3978 34.9051C40.5103 35.426 40.2702 35.8034 39.7901 36.0148C39.6026 36.0979 39.3925 36.1432 39.1975 36.2111C37.1796 36.9057 35.9493 38.5288 35.8668 40.62C35.7542 43.368 38.0272 45.7158 40.6153 45.4893C40.6378 45.3308 40.6528 45.1723 40.6753 45.0062C40.9004 43.6095 41.583 42.5375 42.8883 41.9411C43.5785 41.624 44.1411 41.8052 44.3811 42.3563C44.6137 42.8923 44.3961 43.3906 43.7435 43.7152C43.0834 44.0399 42.7458 44.5683 42.6483 45.2855C42.3332 47.5579 44.4186 49.6038 46.7292 49.3018C48.8521 49.0225 50.1274 47.5428 50.1349 45.278C50.1424 36.0677 50.1349 26.8574 50.1349 17.6471C50.1349 17.398 50.1049 17.1413 50.0749 16.8921C49.8723 15.2766 48.6421 14.0007 47.0367 13.7289C45.2738 13.427 43.7585 14.197 42.9783 15.8352L42.9708 15.8503ZM55.3936 49.3169H58.7768C58.7993 49.1433 58.8218 48.9998 58.8368 48.8564C59.2044 44.8401 60.8623 41.4806 63.8554 38.7779C68.0188 35.0183 69.4366 30.3301 68.2964 24.8492C67.0511 18.8927 62.115 14.3782 56.1512 13.7063C55.3936 13.6233 55.3936 13.6233 55.3936 14.4008C55.3936 25.8307 55.3936 37.2605 55.3936 48.6827V49.3093V49.3169ZM52.0403 59.5539C53.7507 59.5539 55.4611 59.5539 57.1715 59.5539C58.4242 59.5539 59.6695 59.569 60.9223 59.5539C61.86 59.5388 62.5426 58.8669 62.5426 57.9912C62.5426 57.1381 61.905 56.4888 60.9823 56.4284C60.8398 56.4209 60.6897 56.4284 60.5472 56.4284C54.8534 56.4284 49.1672 56.4284 43.4734 56.4284C43.1659 56.4284 42.8433 56.4435 42.5507 56.5341C41.9131 56.7153 41.5155 57.274 41.493 57.9308C41.4705 58.5951 41.8156 59.1915 42.4382 59.418C42.7233 59.5237 43.0458 59.5539 43.3534 59.5539C46.2491 59.5615 49.1447 59.5539 52.0478 59.5539H52.0403ZM52.0178 54.4354C54.981 54.4354 57.9366 54.443 60.8998 54.4354C61.9125 54.4354 62.5651 53.7786 62.5501 52.8576C62.5351 51.9667 61.89 51.3703 60.8998 51.3401C60.7722 51.3401 60.6522 51.3401 60.5247 51.3401C54.8759 51.3401 49.2272 51.3401 43.5785 51.3401C43.3084 51.3401 43.0383 51.3401 42.7683 51.3779C42.0556 51.4836 41.568 52.012 41.5155 52.7368C41.4405 53.7862 42.0556 54.4354 43.2034 54.4354C46.144 54.4505 49.0847 54.4354 52.0178 54.4354ZM46.0915 61.5696C45.964 62.7851 46.8567 63.9326 48.0569 63.9552C50.705 64.0005 53.3531 64.0005 55.9937 63.9552C57.1865 63.9326 58.1017 62.702 57.8841 61.5772H46.0915V61.5696Z" fill="#006A7F"/>
<path d="M73.3452 10.1278C73.1277 10.4902 73.0152 10.7846 72.8126 10.996C71.3798 12.4606 69.932 13.9176 68.4842 15.3596C67.9816 15.8654 67.4264 15.8956 66.9988 15.4804C66.5563 15.05 66.5638 14.4914 67.0589 13.9856C68.5217 12.4908 69.9995 11.0111 71.4773 9.53143C71.7999 9.2068 72.205 9.03317 72.6026 9.29739C72.8876 9.48613 73.0752 9.81076 73.3452 10.1203V10.1278Z" fill="#F79433"/>
<path d="M55.4088 5.9983C55.4088 7.00238 55.4088 8.00645 55.4088 9.01052C55.4088 9.81831 55.0413 10.2335 54.3811 10.2184C53.751 10.2033 53.4284 9.80321 53.4209 9.01807C53.4209 7.00993 53.4209 5.00178 53.4209 2.99364C53.4209 2.21605 53.7585 1.80083 54.3736 1.77818C55.0187 1.75553 55.3938 2.1934 55.4013 2.98609C55.4088 3.99016 55.4013 4.99423 55.4013 5.9983H55.4088Z" fill="#F79433"/>
<path d="M73.3602 46.1386C73.0752 46.4481 72.8651 46.8633 72.5651 46.9539C72.2575 47.0445 71.7624 46.9312 71.5148 46.7199C70.7572 46.0631 70.082 45.3157 69.3769 44.606C68.6117 43.836 67.839 43.0659 67.0813 42.2884C66.5787 41.775 66.5637 41.2314 66.9988 40.8011C67.4264 40.3708 67.974 40.3935 68.4842 40.8993C69.932 42.3488 71.3798 43.7982 72.8126 45.2628C73.0152 45.4742 73.1352 45.7686 73.3752 46.1461L73.3602 46.1386Z" fill="#F79433"/>
<path d="M76.4061 29.1222C75.3858 29.1222 74.3656 29.1297 73.3454 29.1222C72.6177 29.1146 72.2127 28.7598 72.1976 28.1634C72.1826 27.5444 72.6102 27.1593 73.3529 27.1518C75.3708 27.1442 77.3963 27.1442 79.4142 27.1518C80.2019 27.1518 80.5845 27.4915 80.5845 28.1408C80.5845 28.7825 80.1944 29.1146 79.4067 29.1222C78.409 29.1297 77.4038 29.1222 76.4061 29.1222Z" fill="#F79433"/>
<path d="M66.8482 27.4462C66.8482 28.4956 66.5556 28.9637 65.873 28.9712C65.2129 28.9788 64.9053 28.5409 64.8378 27.5444C64.5302 23.0525 62.2797 19.9647 58.1988 18.168C57.8762 18.0245 57.4937 17.783 57.3811 17.4885C57.2761 17.2092 57.3886 16.7411 57.5762 16.4694C57.8537 16.0617 58.3188 16.0919 58.7614 16.2655C62.7073 17.8358 65.2579 20.6819 66.4206 24.7813C66.5256 25.1663 66.6082 25.5513 66.6682 25.9439C66.7432 26.4421 66.7882 26.9404 66.8407 27.4387L66.8482 27.4462Z" fill="#F79433"/>
</g>
<defs>
<clipPath id="clip0_394_151">
<rect width="50.8312" height="64.2078" fill="white" transform="translate(29.7529 1.7782)"/>
</clipPath>
</defs>
</svg>
