<svg width="53" height="57" viewBox="0 0 53 57" fill="none" xmlns="http://www.w3.org/2000/svg">
<circle cx="24.1757" cy="23.5" r="23.4091" fill="#00ADB4" fill-opacity="0.12"/>
<g clip-path="url(#clip0_394_124)">
<path d="M49.7123 36.9444C49.6172 46.3429 43.1871 54.3251 34.0262 56.2507C23.2312 58.5178 13.1189 51.711 10.6733 41.4953C8.15504 30.9661 14.6298 20.297 25.1115 17.7053C28.2341 16.9328 31.3568 16.9105 34.4851 17.6438C35.2797 17.8285 35.7834 18.5002 35.7162 19.2279C35.6491 19.9724 35.0559 20.5993 34.306 20.5937C33.7688 20.5881 33.2371 20.4258 32.6999 20.3362C23.8859 18.8472 15.4413 24.5512 13.5162 33.2892C11.6303 41.8256 16.65 50.4292 24.9995 52.9649C34.7145 55.9204 44.7932 49.6903 46.4833 39.6929C46.8526 37.5042 46.7967 35.3267 46.3042 33.166C46.0804 32.1808 46.4553 31.4252 47.2668 31.1733C48.123 30.9102 49.0016 31.3972 49.1639 32.3264C49.4325 33.8545 49.6227 35.3939 49.8466 36.9276C49.8018 36.9332 49.7626 36.9388 49.7179 36.9444H49.7123Z" fill="#006A7F"/>
<path d="M42.762 29.0406C41.9562 29.0406 41.1447 29.0574 40.3389 29.035C40.0143 29.0238 39.7904 29.1301 39.5666 29.3596C36.8245 32.1137 34.0711 34.8621 31.3234 37.6106C30.8981 38.036 30.4224 38.2711 29.818 38.1367C28.71 37.8904 28.2735 36.575 29.0122 35.713C29.2864 35.3939 29.5998 35.114 29.8964 34.8173C32.4147 32.2984 34.9274 29.7795 37.4568 27.2661C37.6975 27.0254 37.7926 26.7903 37.7926 26.4489C37.7758 24.8479 37.7926 23.247 37.7814 21.6461C37.7814 21.0975 37.9605 20.6609 38.3466 20.2747C40.2997 18.3379 42.2416 16.3843 44.189 14.4419C45.1404 13.4959 46.3995 13.787 46.8304 15.0521C47.2054 16.1548 47.5803 17.2575 47.9329 18.3659C48.0224 18.6457 48.1567 18.7969 48.4421 18.8864C49.5502 19.2391 50.6582 19.6085 51.7551 19.9892C53.0534 20.437 53.3388 21.6797 52.3651 22.6537C50.4344 24.596 48.4925 26.5216 46.5674 28.464C46.1701 28.867 45.7224 29.0574 45.1516 29.0406C44.3569 29.0182 43.5679 29.035 42.7732 29.035L42.762 29.0406ZM44.6983 18.142C43.8645 18.976 43.0922 19.7485 42.3143 20.5266C41.7995 21.0415 41.0943 21.4837 40.8369 22.1107C40.5795 22.7376 40.7698 23.5493 40.7642 24.277C40.7642 24.8591 40.7642 25.4469 40.7642 26.0514C42.0737 26.0514 43.3104 26.057 44.5528 26.0402C44.6983 26.0402 44.8662 25.9227 44.9781 25.8107C45.8735 24.9263 46.7577 24.0307 47.6531 23.1462C47.9777 22.8216 48.3302 22.5193 48.7443 22.1331C47.9721 21.8756 47.3509 21.6461 46.7185 21.467C45.991 21.2598 45.5545 20.8176 45.3474 20.0955C45.1684 19.4574 44.9333 18.8417 44.6983 18.1364V18.142Z" fill="#F79433"/>
<path d="M30.1991 47.0034C24.7988 47.0146 20.3274 43.0123 19.8741 38.0024C19.3817 32.5951 22.8905 27.9098 28.1453 26.9638C28.6769 26.8687 29.2253 26.8183 29.7626 26.8015C30.7083 26.7735 31.3967 27.406 31.4135 28.2681C31.4302 29.1245 30.7531 29.757 29.8073 29.785C26.5112 29.869 23.7691 32.0689 22.9912 35.2595C22.0398 39.1555 24.6197 43.1578 28.5538 43.8799C32.6054 44.63 36.4332 41.8983 36.9537 37.8848C36.9928 37.5602 37.0152 37.2355 37.032 36.9108C37.0712 36.0376 37.7204 35.3883 38.5486 35.4051C39.3768 35.4219 40.0092 36.088 40.0204 36.9612C40.0819 41.736 36.3213 46.1637 31.5981 46.8579C31.0441 46.9418 30.4845 46.9754 30.1991 47.0034Z" fill="#006A7F"/>
</g>
<defs>
<clipPath id="clip0_394_124">
<rect width="42.8052" height="42.8052" fill="white" transform="translate(10.1309 13.8821)"/>
</clipPath>
</defs>
</svg>
