<svg width="69" height="65" viewBox="0 0 69 65" fill="none" xmlns="http://www.w3.org/2000/svg">
<circle cx="23.6552" cy="23.4349" r="23.4091" fill="#00ADB4" fill-opacity="0.12"/>
<g clip-path="url(#clip0_394_142)">
<path d="M5.5957 41.0033C5.71355 40.8397 5.83876 40.6835 5.94187 40.5124C8.8217 35.4695 11.7015 30.4341 14.5887 25.3912C15.1632 24.3871 15.5315 24.283 16.5111 24.8557C18.5512 26.0383 20.5841 27.2284 22.6169 28.411C23.6775 29.0283 23.7659 29.3259 23.2061 30.4341C23.1693 30.501 23.1546 30.5829 23.1251 30.6944C24.6939 30.6944 26.2185 30.6647 27.7505 30.7093C28.6564 30.7316 29.4813 30.568 30.2621 30.0845C30.7113 29.8019 31.2048 29.5936 31.6762 29.3407C32.8546 28.7011 34.0699 28.649 35.1747 29.3928C36.309 30.1515 37.3106 30.3002 38.5038 29.4969C39.2993 28.9614 40.2641 29.0804 41.1774 29.3928C43.4607 30.1663 45.7513 30.9324 48.0345 31.706C49.5002 32.1969 49.9495 32.1597 51.4152 31.401C51.1869 30.9994 50.9512 30.5977 50.7302 30.1886C50.3546 29.5044 50.4724 28.9986 51.1279 28.6193C53.3375 27.3251 55.5471 26.0309 57.7641 24.7516C58.4711 24.3425 58.9499 24.4615 59.355 25.1681C62.3232 30.3523 65.284 35.5365 68.2449 40.7207C68.6647 41.457 68.5321 41.9256 67.7882 42.3645C65.6155 43.6363 63.4353 44.9082 61.2552 46.1727C60.5187 46.6041 60.0547 46.4702 59.6201 45.7338C59.3771 45.3322 59.1487 44.9157 58.8836 44.4619C57.0717 45.5181 55.2893 46.552 53.5069 47.5859C55.1052 50.3379 53.6027 53.6403 50.1336 53.8411C49.6991 56.608 48.6974 57.6196 46.0312 57.932C46.0017 59.1666 45.5966 60.2526 44.6391 61.0856C43.689 61.9038 42.5695 62.1046 41.3689 61.9558C41.31 62.1344 41.2584 62.2682 41.2143 62.4021C40.4483 64.6484 37.8262 65.3773 36.0144 63.8674C35.8229 63.7112 35.5062 63.5922 35.2705 63.6368C33.4365 63.9715 31.9266 63.0715 31.3816 61.2641C31.3595 61.1897 31.33 61.1154 31.3006 61.041C28.3765 61.3236 26.7194 59.4418 26.5868 56.9873C24.0826 56.794 22.7053 55.4254 22.5138 52.837C21.2396 52.8221 20.1569 52.3833 19.3393 51.3717C18.5218 50.3528 18.3303 49.1924 18.6102 47.8611C17.3065 47.0875 15.9881 46.3065 14.6476 45.5107C14.5445 45.6594 14.4561 45.7859 14.3604 45.9123C13.9921 46.433 13.5355 46.5743 12.9757 46.247C10.6851 44.9305 8.40188 43.5917 6.126 42.2529C5.91978 42.1264 5.7651 41.9182 5.5957 41.7471C5.5957 41.5017 5.5957 41.2488 5.5957 41.0033ZM33.7606 49.7577C34.9464 49.7354 35.9407 50.1445 36.7656 50.9701C36.8319 51.037 36.9939 51.0593 37.0897 51.037C37.6789 50.9032 38.2608 50.747 38.85 50.5908C39.1004 48.0396 40.1536 46.9834 42.9525 46.5148C42.9672 44.8636 43.7111 43.614 45.2136 42.7884C43.5785 41.5537 41.9876 40.3934 40.4556 39.1587C39.697 38.5488 38.8942 38.2513 37.9293 38.2364C37.1854 38.2216 36.6772 38.4819 36.309 39.1141C35.845 39.9174 35.3736 40.7133 34.8727 41.4942C34.3645 42.2975 33.6206 42.6471 32.6705 42.5355C31.9782 42.4537 31.2932 42.3719 30.6009 42.2678C28.9363 42.0298 28.1556 40.8323 28.6049 39.2108C28.9363 37.9984 29.334 36.8009 29.6139 35.5737C29.938 34.1754 30.7113 33.2233 32.015 32.658C32.8841 32.2787 33.709 31.8175 34.6076 31.3713C33.8932 30.8134 33.2376 30.687 32.4937 31.1184C31.9266 31.4456 31.3227 31.7134 30.7555 32.0332C29.9675 32.4795 29.1425 32.6803 28.2366 32.6729C26.3511 32.658 24.4729 32.7101 22.5874 32.6952C22.0792 32.6952 21.792 32.8365 21.5268 33.3051C19.6708 36.6075 17.7779 39.8876 15.8997 43.1826C15.7966 43.3537 15.7156 43.5396 15.5978 43.7628C16.2754 44.1644 16.9235 44.5586 17.5717 44.938C18.2419 45.3322 18.9048 45.7189 19.6929 46.1801C19.8328 45.9867 19.9433 45.7859 20.1053 45.6223C21.1144 44.5958 22.1013 43.5471 23.1472 42.5578C25.2463 40.5794 28.6638 41.524 29.474 44.2909C29.5918 44.7 29.6286 45.1388 29.7023 45.5628C32.4937 46.0611 33.4954 47.0726 33.7532 49.7503L33.7606 49.7577ZM57.8819 42.7289C56.0406 39.5083 54.2361 36.3547 52.4242 33.1861C52.1517 33.2828 51.916 33.3497 51.6951 33.4539C50.3104 34.101 48.9404 34.1605 47.4821 33.6249C45.1989 32.7919 42.8862 32.0407 40.5661 31.3118C40.1536 31.1853 39.5939 31.163 39.2183 31.3415C36.9424 32.4126 34.696 33.5431 32.4569 34.7034C32.1255 34.8745 31.8014 35.2464 31.6836 35.596C31.2416 36.9646 30.8955 38.3703 30.4904 39.7538C30.3725 40.148 30.5198 40.2819 30.8807 40.319C31.47 40.386 32.0592 40.4381 32.6411 40.5422C33.0093 40.6091 33.2008 40.4827 33.3776 40.1777C33.8416 39.3744 34.313 38.5786 34.8212 37.805C35.4693 36.8084 36.4121 36.2803 37.5979 36.2654C39.0636 36.2431 40.3893 36.5555 41.5825 37.5447C45.0368 40.4009 48.9478 42.6992 52.0044 46.0537C52.0191 46.0685 52.0412 46.0685 52.1002 46.0983C53.9857 45.0049 55.8933 43.8967 57.8745 42.7438L57.8819 42.7289ZM58.0366 26.8565C56.2615 27.8903 54.5528 28.887 52.8146 29.906C55.5324 34.6514 58.2133 39.3372 60.909 44.0603C62.6914 43.019 64.4002 42.0223 66.1237 41.0108C63.4132 36.2654 60.7396 31.587 58.0292 26.849L58.0366 26.8565ZM16.0102 26.8565C13.3072 31.5795 10.6262 36.2728 7.91577 41.0182C9.66871 42.0446 11.3922 43.0413 13.1378 44.0603C15.8556 39.3001 18.5365 34.6216 21.2322 29.906C19.4866 28.887 17.7779 27.8903 16.0102 26.8639V26.8565ZM26.6604 54.9419C26.8667 54.8452 27.3454 54.7485 27.6474 54.4585C28.8921 53.2684 30.1074 52.0486 31.2858 50.7916C31.9855 50.0404 31.8898 48.8726 31.168 48.166C30.4683 47.4892 29.3267 47.4222 28.6122 48.1139C27.3749 49.3114 26.1596 50.5313 24.9811 51.7883C24.4288 52.3759 24.3625 53.1196 24.716 53.8634C25.0548 54.5849 25.6514 54.9196 26.6752 54.9419H26.6604ZM47.0991 44.4471C46.0312 44.5066 45.4346 44.8562 45.1179 45.5925C44.7938 46.366 44.8969 47.1098 45.4788 47.7197C46.6204 48.9024 47.7694 50.0775 48.9552 51.223C49.7506 51.9965 50.9291 51.9593 51.6582 51.1858C52.3579 50.4494 52.3579 49.2594 51.6214 48.4933C50.4945 47.3255 49.3603 46.1578 48.1818 45.0421C47.8356 44.7148 47.3201 44.5661 47.0991 44.4471ZM48.1892 53.9527C48.0271 53.5659 47.9461 53.0899 47.681 52.7998C46.4731 51.5131 45.2431 50.2412 43.9615 49.0288C43.2323 48.3371 42.0907 48.4561 41.4131 49.1701C40.7576 49.8618 40.6619 50.9998 41.3174 51.7064C42.5253 52.9932 43.77 54.2502 45.0442 55.4626C45.6113 55.9981 46.3479 56.0204 47.0549 55.6783C47.7399 55.3436 48.0713 54.756 48.1892 53.9452V53.9527ZM22.3444 50.9106C22.7274 50.747 23.1987 50.6726 23.486 50.3974C24.7749 49.1627 26.0418 47.9057 27.257 46.5966C27.9199 45.8826 27.8021 44.7595 27.1171 44.0677C26.4321 43.376 25.32 43.257 24.6129 43.919C23.3166 45.1462 22.0645 46.4181 20.8419 47.7272C20.3042 48.2999 20.2895 49.0511 20.6283 49.7577C20.9597 50.4494 21.5416 50.7841 22.3444 50.9106ZM33.8637 51.6321C33.4439 51.8552 32.9504 52.004 32.619 52.3163C31.4258 53.4469 30.2842 54.6221 29.1425 55.8122C28.3986 56.5857 28.4134 57.7534 29.1278 58.4898C29.8422 59.2261 30.9765 59.2633 31.7867 58.5493C32.0297 58.3336 32.2433 58.0807 32.4717 57.8427C33.3849 56.9278 34.3056 56.0204 35.2115 55.0981C35.8376 54.4659 35.9996 53.6329 35.6756 52.8816C35.3736 52.175 34.7107 51.7436 33.8563 51.6246L33.8637 51.6321ZM37.7968 54.4436C39.9695 55.2841 40.625 56.3774 40.3083 58.6534C40.2936 58.765 40.2862 58.9138 40.3451 58.9881C40.846 59.6352 41.4499 60.0889 42.3264 59.9922C43.0629 59.9104 43.5932 59.5237 43.8731 58.8394C44.1898 58.0584 44.0425 57.3295 43.4533 56.727C42.319 55.5667 41.2069 54.3766 40.0063 53.2833C39.6381 52.9486 39.0341 52.7924 38.5186 52.718C38.0545 52.6511 37.6347 52.8593 37.7894 53.5213C37.8557 53.8114 37.7968 54.1312 37.8041 54.4436H37.7968ZM38.4965 57.865C38.4302 57.1882 38.2166 56.7642 37.7157 56.5411C37.1707 56.2956 36.6699 56.4221 36.2574 56.8386C35.3883 57.7088 34.5118 58.579 33.6575 59.4642C33.083 60.0592 33.0756 60.8104 33.5985 61.3385C34.1215 61.8666 34.8654 61.8592 35.4546 61.279C36.3311 60.4162 37.2075 59.546 38.0472 58.646C38.2755 58.408 38.386 58.0584 38.4965 57.865ZM37.3622 62.3575C37.9293 62.7815 38.5406 62.7591 39.0194 62.2757C39.4834 61.7997 39.4981 61.16 39.0636 60.5724C38.5038 61.16 37.9367 61.7476 37.3622 62.3575Z" fill="#006A7F"/>
<path d="M37.0818 27.7192C30.8434 27.7936 25.5993 22.5871 25.5109 16.25C25.4225 9.84599 30.5414 4.54278 36.8829 4.45353C43.2391 4.36427 48.4759 9.55591 48.5422 16.012C48.6011 22.3937 43.4675 27.6374 37.0818 27.7118V27.7192ZM46.583 16.0715C46.583 10.7683 42.2669 6.432 36.986 6.43944C31.8009 6.43944 27.4774 10.8055 27.4774 16.0418C27.4774 21.3747 31.7493 25.7259 37.0155 25.7333C42.2817 25.7482 46.583 21.397 46.583 16.0715Z" fill="#006A7F"/>
<path d="M35.7559 17.0533C37.3541 15.7368 38.8861 14.4649 40.4181 13.2005C40.5286 13.1112 40.6317 13.0071 40.7495 12.9253C41.2283 12.5906 41.788 12.6501 42.1268 13.0666C42.4583 13.4757 42.4215 14.0782 41.9869 14.4575C41.2136 15.1269 40.4107 15.774 39.6153 16.4285C38.5399 17.3211 37.4646 18.2136 36.3819 19.0987C35.6749 19.6789 35.1593 19.612 34.6216 18.8756C34.0029 18.0277 33.3916 17.1723 32.7803 16.317C32.331 15.6848 32.3826 15.1046 32.8981 14.7476C33.3842 14.4129 33.9293 14.5542 34.3712 15.1492C34.8205 15.7591 35.2624 16.3839 35.7485 17.0608L35.7559 17.0533Z" fill="#F79433"/>
</g>
<defs>
<clipPath id="clip0_394_142">
<rect width="62.8701" height="60.1948" fill="white" transform="translate(5.5957 4.45355)"/>
</clipPath>
</defs>
</svg>
