<svg width="71" height="59" viewBox="0 0 71 59" fill="none" xmlns="http://www.w3.org/2000/svg">
<ellipse cx="25.1934" cy="23.5" rx="25.0195" ry="23.4091" fill="#00ADB4" fill-opacity="0.12"/>
<g clip-path="url(#clip0_394_133)">
<path d="M10.182 18.4936C10.3579 18.0987 10.4774 17.6696 10.7095 17.3087C11.3425 16.3281 12.2708 15.7833 13.4734 15.7629C14.9363 15.7424 16.3991 15.7629 17.9464 15.7629C17.9464 15.0002 17.9464 14.2851 17.9464 13.5769C17.9534 11.9085 18.6637 11.207 20.3516 11.207C22.2294 11.207 24.1001 11.207 25.9779 11.207C27.4056 11.207 28.1933 11.9629 28.2003 13.3453C28.2074 14.1217 28.2003 14.8912 28.2003 15.7492C28.4535 15.7492 28.6575 15.7492 28.8685 15.7492C30.1414 15.7492 31.4073 15.7288 32.6803 15.7629C34.4737 15.8037 35.9436 17.1861 35.9576 18.9159C35.9928 23.0427 35.9717 27.1627 35.9576 31.2895C35.9576 31.5687 35.8943 31.8479 35.8521 32.168H53.9548C53.7579 31.9637 53.6243 31.8207 53.4836 31.6845C51.3034 29.5666 49.1021 27.4759 46.943 25.3376C43.9892 22.4162 43.8274 17.9352 46.5351 14.8776C49.1654 11.9085 53.6665 11.3092 57.0352 13.4884C57.1477 13.5633 57.2673 13.6314 57.2392 13.6109C58.3996 13.1683 59.4334 12.6371 60.5306 12.3851C63.9415 11.602 67.458 13.1547 69.167 16.0897C70.9111 19.0861 70.447 22.7975 67.9573 25.2627C65.749 27.4555 63.4914 29.6006 61.255 31.773C61.1495 31.8751 61.044 31.9841 60.8611 32.1748C61.1424 32.1884 61.3183 32.2088 61.5011 32.2088C63.2804 32.2088 65.0598 32.1816 66.832 32.2292C68.3301 32.2633 69.385 33.026 69.9476 34.3471C70.5032 35.6546 70.2289 36.8804 69.2514 37.9291C68.4988 38.7395 67.5142 39.0255 66.403 39.0255C59.0396 39.0255 51.6691 39.0255 44.3057 39.0255H43.5391C43.6868 39.2911 43.7782 39.475 43.8767 39.6521C46.514 44.0717 49.1513 48.4913 51.7816 52.911C52.6678 54.3955 52.5482 55.8528 51.4581 56.9969C50.7197 57.7732 49.7843 58.0456 48.7153 58.0456C43.9892 58.032 39.256 58.0456 34.5299 58.0456C33.475 58.0456 32.4201 58.0593 31.3651 58.0388C29.5999 57.998 28.2496 56.8062 28.0315 55.1242C27.926 54.3002 28.2144 53.5647 28.6364 52.8633C30.7533 49.3289 32.8561 45.7946 34.9589 42.2603C35.4864 41.375 36.0139 40.4965 36.5413 39.6112C36.6328 39.4546 36.7172 39.2911 36.8438 39.046H36.0068C33.5875 39.046 31.1612 39.046 28.7419 39.046C28.5098 39.046 28.2707 39.0392 28.0456 38.9847C27.497 38.8485 27.1524 38.3786 27.1806 37.8474C27.2087 37.2958 27.6307 36.86 28.2144 36.7987C28.4676 36.7715 28.7208 36.7783 28.9739 36.7783C41.3589 36.7783 53.7508 36.7783 66.1358 36.7783C66.4241 36.7783 66.7266 36.7783 67.0079 36.7102C67.5494 36.5808 67.894 36.0837 67.8518 35.5593C67.8096 35.0281 67.4017 34.6059 66.8531 34.5378C66.6422 34.5106 66.4241 34.5174 66.2061 34.5174C48.856 34.5174 31.5058 34.5174 14.1556 34.5174C13.0726 34.5174 12.531 34.8919 12.517 35.6342C12.5099 36.3901 13.0866 36.7851 14.1838 36.7919C15.295 36.7919 16.4132 36.7919 17.5244 36.7919C18.4316 36.7919 18.9661 37.2277 18.9521 37.936C18.938 38.6306 18.3965 39.0596 17.4892 39.0596C16.3007 39.0596 15.1051 39.0596 13.9165 39.0596C12.0317 39.0528 10.815 38.1607 10.2594 36.3901C10.2453 36.3424 10.1961 36.2948 10.168 36.2471C10.168 35.8317 10.168 35.4163 10.168 35.0009C10.4282 34.4629 10.6814 33.9317 10.9557 33.3597C10.8291 33.1554 10.6532 32.9034 10.5196 32.6446C10.393 32.3314 10.2946 32.0522 10.182 31.7798C10.182 27.3533 10.182 22.9269 10.182 18.5005V18.4936ZM57.4291 32.2292C57.6189 32.0522 57.7807 31.916 57.9284 31.773C59.9046 29.8594 61.8809 27.9526 63.8571 26.0322C64.7503 25.1606 65.6927 24.3229 66.5226 23.3968C68.4566 21.238 68.2738 17.9897 66.1639 15.9876C64.0611 13.9923 60.7064 13.9106 58.5051 15.8037C57.626 16.5596 57.2321 16.546 56.3319 15.8037C54.7214 14.4758 52.8788 14.0808 50.8603 14.7073C46.8586 15.9535 45.649 20.775 48.6168 23.7168C51.4159 26.4953 54.2713 29.2125 57.1055 31.95C57.1899 32.0318 57.2814 32.093 57.4291 32.2156V32.2292ZM40.1633 55.7507C42.9976 55.7507 45.8248 55.703 48.652 55.7711C49.7632 55.7984 50.3188 54.9335 49.7351 53.9665C46.8656 49.2472 44.0595 44.4939 41.2323 39.7474C40.6204 38.7191 39.7554 38.7259 39.1435 39.7474C36.3163 44.4871 33.5102 49.2472 30.6407 53.9665C30.0711 54.9063 30.5915 55.7916 31.7308 55.7643C34.537 55.6962 37.3501 55.7439 40.1633 55.7439V55.7507ZM33.6227 24.2276C31.3018 24.7179 29.0724 25.1878 26.85 25.6781C26.7304 25.7053 26.6039 25.9301 26.5687 26.0867C26.1678 27.8777 24.8175 29.0286 23.0874 29.0354C21.3573 29.0354 19.9507 27.8777 19.6061 26.1003C19.5428 25.7734 19.4092 25.6781 19.0998 25.6168C18.0519 25.4125 17.0039 25.1742 15.956 24.9494C14.8378 24.7111 13.7126 24.4727 12.524 24.214C12.524 24.4864 12.524 24.6907 12.524 24.895C12.524 26.8222 12.524 28.7494 12.524 30.6834C12.524 31.8956 12.8334 32.1952 14.0712 32.1952C20.0633 32.1952 26.0623 32.1952 32.0544 32.1952C32.1739 32.1952 32.2864 32.1952 32.406 32.1952C33.2218 32.168 33.6157 31.7798 33.6227 30.9898C33.6297 29.7232 33.6227 28.4566 33.6227 27.1899C33.6227 26.2297 33.6227 25.2627 33.6227 24.2276ZM33.6227 21.8918C33.6227 21.061 33.6227 20.271 33.6227 19.4811C33.6227 18.3098 33.3203 18.0169 32.0966 18.0169C26.0834 18.0169 20.0703 18.0169 14.0572 18.0169C13.8813 18.0169 13.7055 18.0169 13.5297 18.0238C12.946 18.0714 12.5451 18.4392 12.531 19.0112C12.5029 19.951 12.531 20.8975 12.531 21.885C14.8659 22.3821 17.1798 22.8792 19.5217 23.3832C19.5358 23.2606 19.5569 23.1652 19.5569 23.0767C19.5991 21.9939 19.9507 21.6534 21.0479 21.6534C22.4333 21.6534 23.8188 21.6534 25.2043 21.6534C26.1467 21.6534 26.5617 22.0484 26.5898 22.9541C26.5898 23.0835 26.6109 23.2129 26.6179 23.39C28.9599 22.886 31.2807 22.3889 33.6227 21.8918ZM25.8232 13.5224H20.3305V15.722H25.8232V13.5224ZM21.9059 23.9552C21.9059 24.4387 21.9059 24.8745 21.9059 25.3036C21.9059 25.4329 21.9059 25.5691 21.9129 25.6985C21.9762 26.2978 22.4755 26.7609 23.0733 26.7677C23.65 26.7677 24.1845 26.3455 24.2338 25.7734C24.276 25.181 24.2408 24.5817 24.2408 23.962H21.9059V23.9552Z" fill="#006A7F"/>
<path d="M10.1816 31.7798C10.2942 32.0522 10.3926 32.3382 10.5333 32.597C10.6669 32.8626 10.8427 33.1078 10.9693 33.3121C10.695 33.8841 10.4348 34.4221 10.1816 34.9532C10.1816 33.8909 10.1816 32.8354 10.1816 31.773V31.7798Z" fill="white"/>
<path d="M23.0726 36.7578C23.7196 36.7578 24.233 37.2413 24.2471 37.861C24.2541 38.4875 23.6985 39.0255 23.0515 39.0119C22.4256 38.9983 21.9051 38.4739 21.9122 37.8678C21.9122 37.2481 22.4326 36.7646 23.0796 36.7646L23.0726 36.7578Z" fill="#F79433"/>
</g>
<defs>
<clipPath id="clip0_394_133">
<rect width="60.0469" height="46.8182" fill="white" transform="translate(10.1816 11.207)"/>
</clipPath>
</defs>
</svg>
