<svg width="78" height="70" viewBox="0 0 78 70" fill="none" xmlns="http://www.w3.org/2000/svg">
  <circle cx="23.4091" cy="24.3318" r="23.4091" fill="#00ADB4" fill-opacity="0.12" class="svg-elem-1"></circle>
  <g clip-path="url(#clip0_394_163)">
    <path
      d="M42.1575 69.5584C37.43 69.5584 32.7108 69.5584 27.9833 69.5584C26.9077 69.5584 26.6659 69.2413 26.9327 68.1899C27.9583 64.2681 28.9922 60.3546 30.001 56.4327C30.3929 54.8974 31.3184 53.8627 32.7692 53.2869C34.6619 52.5276 36.5462 51.7766 38.4305 51.0005C38.6056 50.9254 38.7641 50.7252 38.8641 50.55C38.9725 50.3497 38.9808 50.0994 39.0725 49.8908C39.3227 49.2983 39.2977 48.8394 38.6723 48.4472C38.2805 48.1968 37.9303 47.788 37.6968 47.3791C36.3378 44.8925 35.3956 42.2891 35.7791 39.3936C36.0209 37.5578 37.4717 36.1977 39.2977 35.9891C39.5645 35.9557 39.8813 35.8222 40.0647 35.6303C41.5655 34.0782 43.3582 33.6777 45.3426 34.387C47.3353 35.1046 48.4942 36.5648 48.5943 38.7093C48.6527 39.9777 48.7861 41.3128 48.4776 42.5144C47.8939 44.7924 47.402 47.1872 45.3426 48.7559C45.2092 48.8561 45.2092 49.1314 45.1508 49.3233C45.1508 49.34 45.1675 49.3651 45.1675 49.3901C45.2759 50.4582 45.8011 51.0506 46.8767 51.3927C48.4776 51.9017 50.0117 52.6444 51.5792 53.2702C53.0217 53.846 53.9305 54.8807 54.3223 56.366C55.3812 60.3712 56.4318 64.3765 57.4824 68.3818C57.6908 69.1912 57.4073 69.5417 56.5402 69.5417C51.746 69.5417 46.9517 69.5417 42.1575 69.5417V69.5584ZM34.5034 68.0063H41.3321C41.3738 67.9312 41.4071 67.8895 41.4071 67.8478C41.4071 63.8425 41.4238 59.8289 41.4071 55.8236C41.4071 55.6233 41.2737 55.3813 41.1236 55.2311C40.3566 54.4301 39.5728 53.6374 38.7557 52.878C38.589 52.7278 38.2138 52.6527 37.997 52.7362C36.3794 53.3537 34.7786 54.0212 33.1777 54.6804C32.2356 55.0642 31.6519 55.7568 31.4018 56.7498C30.9099 58.6773 30.3929 60.5965 29.8927 62.5241C29.4174 64.3348 28.9505 66.1455 28.4752 67.9813H33.0527C33.0527 66.8631 33.0277 65.8034 33.0694 64.7353C33.0777 64.4516 33.2361 64.0761 33.4446 63.9176C33.9198 63.5755 34.4784 63.9677 34.4951 64.6352C34.5118 65.7367 34.4951 66.8465 34.4951 67.9896L34.5034 68.0063ZM42.8996 68.0063H49.6365C49.6365 67.7226 49.6365 67.4723 49.6365 67.2303C49.6365 66.3458 49.6365 65.4696 49.6365 64.5851C49.6365 64.1262 49.9033 63.7674 50.3619 63.8675C50.637 63.9259 50.9039 64.2681 51.0706 64.5434C51.179 64.7353 51.104 65.0441 51.104 65.2944C51.104 66.1873 51.104 67.0884 51.104 68.023H55.8148C55.8148 67.9145 55.8148 67.8394 55.7981 67.7727C54.8143 64.0094 53.8388 60.2461 52.8382 56.4911C52.6131 55.6317 52.0128 55.0559 51.1957 54.7138C49.5698 54.0462 47.9356 53.4037 46.3181 52.7195C45.9512 52.5609 45.7428 52.6444 45.4843 52.9114C44.7756 53.6457 44.0168 54.3299 43.3415 55.0893C43.108 55.3479 42.9329 55.7652 42.9246 56.1073C42.8829 58.1683 42.9079 60.2294 42.9079 62.2988C42.9079 64.1763 42.9079 66.0537 42.9079 68.0063H42.8996ZM46.3431 43.4823C46.4598 42.9566 46.2347 42.6145 45.576 42.3642C44.7172 42.0471 43.9001 41.5881 43.108 41.1125C42.6828 40.8538 42.391 40.8872 41.9824 41.1292C40.7901 41.8385 39.5645 42.481 38.3722 43.1902C38.1721 43.3071 37.9803 43.6325 37.972 43.8661C37.9553 45.752 39.3394 47.6044 41.207 48.297C41.774 48.5056 42.3076 48.5139 42.8829 48.3137C44.9924 47.571 46.243 45.8855 46.3348 43.4823H46.3431ZM37.2883 42.022C37.5134 41.9302 37.7135 41.8635 37.8886 41.7717C39.2393 41.0124 40.59 40.2697 41.9157 39.4687C42.3993 39.1766 42.7745 39.2016 43.2498 39.4687C44.267 40.0528 45.3259 40.5785 46.3681 41.1208C46.5765 41.2293 46.8267 41.271 47.1102 41.3628C47.1102 40.3782 47.1602 39.502 47.1018 38.6259C47.0101 37.2073 46.0513 36.0976 44.6422 35.672C43.2414 35.2464 41.8574 35.647 40.9902 36.8152C40.6484 37.2741 40.2982 37.4577 39.7146 37.4243C38.5973 37.3575 37.4634 38.1586 37.3133 39.2183C37.1799 40.1112 37.2883 41.0374 37.2883 42.0137V42.022ZM42.1742 54.2465C42.8662 53.5122 43.4999 52.8446 44.1169 52.1604C44.2003 52.0686 44.2837 51.9101 44.2586 51.8099C44.0836 51.1007 43.8751 50.3998 43.725 49.8824H40.5733C40.4233 50.3831 40.2148 51.0423 40.0481 51.7098C40.0147 51.8517 40.0898 52.077 40.1898 52.1938C40.7985 52.853 41.4321 53.4872 42.1659 54.2465H42.1742Z"
      fill="#006A7F" class="svg-elem-2"></path>
    <path
      d="M68.1044 44.2417C62.8516 44.2417 58.6494 40.0695 58.6661 34.8626C58.6827 29.4972 62.86 25.2917 68.1628 25.3C73.3739 25.3083 77.5761 29.589 77.5845 34.896C77.5845 40.0695 73.3489 44.25 68.1044 44.2417ZM74.9664 38.8095C77.1092 35.6386 76.1504 30.9074 72.9403 28.3958C69.7386 25.8924 65.0361 26.318 62.3013 29.3387C59.4748 32.4594 59.6583 36.8736 61.4842 39.0515C61.9762 36.9904 63.1268 35.43 64.9194 34.3786C63.7688 32.2341 64.0606 30.2065 65.6865 28.7963C67.0789 27.5863 69.205 27.5363 70.6891 28.6795C72.3984 29.9895 72.7402 32.0255 71.623 34.4037C73.3072 35.3883 74.4161 36.8402 74.9748 38.8178L74.9664 38.8095ZM68.5297 42.7397C70.0221 42.7397 71.7897 42.1556 73.2738 40.8455C73.4823 40.6619 73.6657 40.2948 73.6407 40.0361C73.4656 38.1086 72.5485 36.6233 70.8309 35.6887C70.5974 35.5635 70.2055 35.5552 69.9554 35.6553C68.7965 36.1059 67.6709 36.1393 66.5203 35.6303C66.3201 35.5385 66.0033 35.4968 65.8282 35.5969C64.0106 36.6233 62.91 38.1336 62.8516 40.2781C62.8516 40.5451 63.0267 40.9039 63.2352 41.0792C64.6276 42.2223 66.2618 42.7313 68.5297 42.748V42.7397ZM68.2462 34.4955C69.7636 34.4955 70.8476 33.4107 70.8309 31.9171C70.8142 30.4568 69.7386 29.3804 68.2712 29.3554C66.7954 29.3387 65.6531 30.4485 65.6364 31.9171C65.6281 33.394 66.737 34.4955 68.2378 34.4871L68.2462 34.4955Z"
      fill="#F79433" class="svg-elem-3"></path>
    <path
      d="M16.1602 25.3C21.4297 25.3 25.6152 29.5723 25.6069 34.921C25.5986 40.1028 21.3713 44.2416 16.1018 44.2333C10.9157 44.225 6.68848 40.0278 6.68848 34.896C6.68848 29.5389 10.8824 25.3 16.1602 25.3ZM19.6037 34.3619C21.3379 35.3883 22.4469 36.8402 22.9805 38.7511C24.8982 36.181 24.5563 31.3914 21.1629 28.5626C17.8194 25.7673 12.8668 26.2596 10.0486 29.6557C7.23043 33.0519 8.01418 37.5411 9.52332 38.9847C9.99857 36.932 11.1825 35.405 12.9668 34.3453C11.6244 32.401 12.2498 30.0145 13.7339 28.7629C15.168 27.553 17.3442 27.5446 18.7949 28.7295C20.1456 29.831 21.0461 32.1423 19.6037 34.3619ZM16.1519 42.7814C18.1613 42.723 19.8538 42.1138 21.2796 40.8705C21.4964 40.6786 21.6881 40.2864 21.6631 40.0111C21.488 38.0501 20.5125 36.5815 18.7783 35.6386C18.6032 35.5468 18.3197 35.5135 18.1529 35.5886C16.9439 36.156 15.7433 36.0725 14.5176 35.6303C14.2342 35.5302 13.8006 35.5385 13.5588 35.6887C11.8996 36.7484 10.9407 38.2671 10.874 40.2697C10.8657 40.5368 11.0491 40.8956 11.2576 41.0624C12.7167 42.2223 14.4093 42.7647 16.1519 42.7814ZM16.2936 34.5038C17.8027 34.5038 18.9117 33.3773 18.8783 31.9087C18.845 30.4568 17.7444 29.372 16.2936 29.3637C14.8178 29.3553 13.6755 30.4735 13.6755 31.9421C13.6755 33.419 14.7928 34.5038 16.3019 34.4955L16.2936 34.5038Z"
      fill="#F79433" class="svg-elem-4"></path>
    <path
      d="M42.0738 18.9416C36.8377 18.8999 32.6438 14.686 32.6938 9.50413C32.7355 4.18878 37.0294 -0.0584865 42.2822 -7.60807e-05C47.5267 0.0583343 51.6789 4.39739 51.6122 9.74611C51.5539 14.8946 47.3099 18.9833 42.0738 18.9416ZM38.9388 9.1036C37.8382 6.84228 38.1134 4.88136 39.6975 3.52958C41.0816 2.34468 43.1244 2.2529 44.5918 3.30428C45.3922 3.88004 45.9175 4.64772 46.1843 5.59898C46.5345 6.84228 46.3511 8.01049 45.6174 9.07022C47.535 10.4053 47.7602 10.6974 49.0358 13.426C50.9869 10.7224 50.4866 5.89103 46.9931 3.12905C43.5996 0.442174 38.5719 1.10138 35.9038 4.53925C33.2608 7.94374 34.0612 12.3495 35.5453 13.7097C36.0206 11.682 37.1712 10.155 38.9388 9.09526V9.1036ZM42.1572 17.4813C44.0499 17.4396 45.8175 16.9306 47.2849 15.6205C47.5184 15.4119 47.7018 14.9864 47.6768 14.686C47.5017 12.7501 46.5428 11.2898 44.8253 10.3719C44.6252 10.2635 44.2833 10.2635 44.0665 10.3469C42.8909 10.8309 41.7403 10.8559 40.5647 10.3469C40.3646 10.2551 40.0394 10.2134 39.8643 10.3135C38.0967 11.3482 36.9878 12.8335 36.8877 14.9363C36.871 15.22 37.0711 15.6038 37.2963 15.7958C38.6887 16.9556 40.3395 17.4146 42.1572 17.473V17.4813ZM42.2572 9.20373C43.7664 9.22042 44.892 8.144 44.892 6.66705C44.892 5.1901 43.7747 4.097 42.2822 4.097C40.7814 4.097 39.6809 5.19845 39.6892 6.6754C39.6975 8.13566 40.7731 9.18704 42.2572 9.20373Z"
      fill="#F79433" class="svg-elem-5"></path>
    <path
      d="M17.3027 24.1818C17.4195 23.8981 17.4778 23.7229 17.5612 23.556C20.5461 17.7483 24.9902 13.4677 30.935 10.7474C31.3269 10.5722 31.6854 10.5054 32.0022 10.8726C32.3524 11.2898 32.1607 11.7571 31.5687 12.0909C30.1179 12.9003 28.6171 13.6429 27.2497 14.5691C23.7228 16.9723 21.013 20.1265 19.0453 23.9148C18.9286 24.1401 18.8452 24.4321 18.6535 24.5573C18.4367 24.7075 18.0948 24.8076 17.8614 24.7325C17.6362 24.6658 17.4778 24.357 17.3111 24.1651L17.3027 24.1818Z"
      fill="#006A7F" class="svg-elem-6"></path>
    <path
      d="M52.7717 10.5138C53.0802 10.6306 53.2803 10.6974 53.4638 10.7808C58.9834 13.3175 63.2356 17.231 66.2289 22.5213C66.4874 22.9802 66.6041 23.4225 66.0955 23.7312C65.5452 24.065 65.2033 23.7145 64.9282 23.2389C62.0934 18.2156 58.0412 14.5107 52.8051 12.1076C52.3965 11.9156 52.0297 11.6653 52.1881 11.173C52.2715 10.9143 52.5716 10.7224 52.7634 10.5138H52.7717Z"
      fill="#006A7F" class="svg-elem-7"></path>
    <path
      d="M67.8289 45.777C67.7206 46.0858 67.6622 46.286 67.5871 46.4779C65.4527 51.5763 62.0842 55.6734 57.5151 58.7775C57.0732 59.0779 56.6396 59.2698 56.2311 58.7775C55.9143 58.3853 56.081 57.9598 56.698 57.5425C61.0086 54.6053 64.177 50.7419 66.2031 45.9272C66.2781 45.7603 66.3281 45.5183 66.4616 45.4516C66.7033 45.3181 67.0202 45.1846 67.2536 45.243C67.4788 45.3014 67.6455 45.6101 67.8206 45.7854L67.8289 45.777Z"
      fill="#006A7F" class="svg-elem-8"></path>
    <path
      d="M16.6934 46.261C16.8518 46.0774 16.9852 45.7603 17.1936 45.7019C17.4354 45.6352 17.7856 45.7186 18.0024 45.8604C18.1858 45.9856 18.2692 46.2777 18.3693 46.5113C20.3953 51.0089 23.447 54.6554 27.5158 57.4424C27.6909 57.5592 27.9494 57.6593 27.9994 57.8179C28.0911 58.1099 28.1828 58.5355 28.0411 58.7274C27.8993 58.9193 27.3991 59.0445 27.1739 58.9444C26.657 58.7107 26.1984 58.3352 25.7315 57.9848C21.8711 55.0976 18.9529 51.4512 16.9935 47.0453C16.8935 46.8117 16.8184 46.5697 16.6934 46.2443V46.261Z"
      fill="#006A7F" class="svg-elem-9"></path>
  </g>
  <defs>
    <clipPath id="clip0_394_163">
      <rect width="70.8961" height="69.5584" fill="white" transform="translate(6.68848 -6.10352e-05)"
        class="svg-elem-10"></rect>
    </clipPath>
  </defs>
</svg>