<svg width="447" height="390" viewBox="0 0 447 390" fill="none" xmlns="http://www.w3.org/2000/svg">
  <path
    d="M418 181C418 208.446 412.594 235.624 402.091 260.981C391.588 286.338 376.193 309.378 356.785 328.785C337.378 348.193 314.338 363.588 288.981 374.091C263.624 384.594 236.446 390 209 390C181.554 390 154.376 384.594 129.019 374.091C103.662 363.588 80.6221 348.193 61.2147 328.785C41.8073 309.378 26.4124 286.338 15.9092 260.981C5.40597 235.624 2.81181e-05 208.446 3.05176e-05 181L418 181Z"
    fill="#754EF9" fill-opacity="0.05" />
  <path
    d="M361.628 235.747C363.596 236.593 368.319 236.488 368.319 236.488C368.319 236.488 367.303 233.378 367.211 233.208C366.168 231.03 362.875 227.429 360.192 227.789C359.748 227.862 359.325 228.028 358.949 228.275C358.574 228.522 358.255 228.846 358.012 229.224C357.77 229.603 357.61 230.028 357.542 230.472C357.474 230.917 357.501 231.371 357.62 231.804C358.066 233.641 359.975 235.025 361.628 235.747Z"
    fill="#333333" />
  <path
    d="M363.268 249.503C365.282 249.792 369.52 248.565 369.828 248.467C370.525 250.892 371.384 253.268 372.4 255.578C372.984 256.929 373.613 258.267 374.263 259.605C373.876 259.041 373.522 258.536 373.469 258.471C371.888 256.647 367.755 254.043 365.269 255.099C364.86 255.286 364.495 255.557 364.198 255.895C363.9 256.232 363.678 256.629 363.544 257.059C363.41 257.488 363.369 257.941 363.422 258.388C363.475 258.835 363.621 259.265 363.852 259.651C364.77 261.324 366.975 262.151 368.759 262.413C370.543 262.675 374.204 261.698 375.162 261.429L375.922 262.964C377.149 265.404 378.382 267.838 379.524 270.265C379.924 271.118 380.285 271.971 380.652 272.83C380.311 272.325 379.996 271.905 379.996 271.846C378.415 270.016 374.289 267.418 371.796 268.475C371.388 268.662 371.024 268.933 370.727 269.27C370.431 269.607 370.208 270.003 370.075 270.432C369.941 270.861 369.899 271.313 369.951 271.759C370.004 272.205 370.15 272.635 370.379 273.021C371.298 274.7 373.502 275.527 375.286 275.782C377.07 276.038 380.377 275.166 381.518 274.851C381.872 275.736 382.22 276.622 382.522 277.475C382.712 278.078 382.935 278.643 383.093 279.259C383.25 279.876 383.434 280.466 383.598 281.057C383.873 282.211 384.168 283.405 384.411 284.54C384.582 285.327 384.739 286.082 384.89 286.843C384.503 285.983 383.703 284.33 383.617 284.219C382.338 282.172 378.645 278.971 376.027 279.627C375.596 279.749 375.194 279.962 374.85 280.25C374.505 280.538 374.225 280.895 374.028 281.299C373.831 281.702 373.72 282.142 373.704 282.591C373.688 283.04 373.767 283.487 373.935 283.904C374.591 285.701 376.644 286.849 378.369 287.38C380.265 287.958 384.477 287.426 385.002 287.38C385.251 288.633 385.487 289.86 385.658 291.021C385.769 291.631 385.861 292.209 385.959 292.792H387.632C387.507 292.136 387.376 291.441 387.238 290.726C386.983 289.447 386.694 288.102 386.379 286.692C387.646 286.186 388.881 285.606 390.079 284.953C391.463 286.455 395.012 288.233 395.471 288.43C394.986 289.617 394.507 290.772 394.035 291.848L393.615 292.792H395.379L395.511 292.471C396.009 291.271 396.514 289.972 397.019 288.64C397.525 288.745 401.69 289.591 403.632 289.152C405.39 288.751 407.522 287.754 408.309 286.016C408.509 285.614 408.622 285.174 408.64 284.725C408.658 284.276 408.582 283.828 408.415 283.411C408.248 282.994 407.996 282.616 407.674 282.303C407.351 281.99 406.967 281.749 406.545 281.595C403.98 280.729 400.063 283.641 398.633 285.59C398.548 285.701 397.767 287.046 397.288 287.905C397.492 287.361 397.695 286.829 397.898 286.265C398.312 285.15 398.686 284.022 399.092 282.815C399.27 282.224 399.453 281.627 399.63 281.024C399.807 280.42 399.952 279.777 400.116 279.148C400.463 277.685 400.772 276.183 400.995 274.667C401.972 275.021 405.462 276.235 407.273 276.11C409.083 275.986 411.327 275.323 412.37 273.723C412.628 273.354 412.806 272.936 412.892 272.494C412.978 272.053 412.97 271.598 412.869 271.16C412.767 270.722 412.575 270.31 412.303 269.951C412.032 269.592 411.688 269.295 411.294 269.078C408.893 267.838 404.577 270.128 402.864 271.827C402.759 271.932 401.67 273.296 401.087 274.057C401.231 273.139 401.375 272.233 401.493 271.302C401.821 268.619 402.077 265.89 402.34 263.174C402.425 262.341 402.51 261.514 402.602 260.681C402.95 260.812 407.063 262.347 409.09 262.203C410.894 262.079 413.15 261.416 414.194 259.815C414.451 259.447 414.628 259.028 414.714 258.587C414.799 258.146 414.791 257.692 414.689 257.254C414.588 256.816 414.396 256.404 414.125 256.045C413.854 255.686 413.511 255.389 413.118 255.171C410.71 253.931 406.4 256.22 404.688 257.926C404.557 258.051 402.989 260.012 402.615 260.55C402.812 258.726 403.022 256.903 403.271 255.118C403.649 252.702 404.186 250.313 404.878 247.968C405.036 248.027 409.333 249.647 411.406 249.503C413.203 249.372 415.46 248.716 416.503 247.115C416.761 246.747 416.939 246.329 417.025 245.887C417.111 245.446 417.103 244.991 417.002 244.553C416.9 244.115 416.707 243.703 416.436 243.344C416.165 242.985 415.821 242.688 415.427 242.471C413.026 241.231 408.716 243.514 406.997 245.219C406.866 245.357 405.18 247.463 404.905 247.843C404.944 247.706 404.97 247.561 405.01 247.43C405.75 245.095 406.698 242.832 407.843 240.667C408.454 239.46 409.11 238.344 409.772 237.275C410.54 237.656 414.075 239.374 415.952 239.447C417.828 239.519 420.071 239.112 421.285 237.636C421.582 237.298 421.804 236.902 421.938 236.472C422.072 236.043 422.113 235.59 422.061 235.144C422.008 234.697 421.862 234.266 421.633 233.88C421.403 233.493 421.094 233.159 420.727 232.9C418.471 231.404 413.938 233.201 412.048 234.71C411.943 234.789 410.992 235.74 410.31 236.442C410.612 235.963 410.92 235.458 411.222 235.005C412.357 233.3 413.498 231.811 414.502 230.499C415.086 229.757 415.63 229.101 416.148 228.485C417.1 228.485 420.924 228.354 422.603 227.566C424.283 226.779 426.1 225.369 426.5 223.499C426.608 223.063 426.623 222.608 426.544 222.166C426.464 221.723 426.292 221.303 426.039 220.931C425.786 220.559 425.457 220.246 425.074 220.01C424.691 219.774 424.263 219.622 423.817 219.563C421.127 219.268 417.913 222.955 416.949 225.165C416.863 225.356 415.879 228.491 415.932 228.491H415.984C415.479 229.069 414.941 229.692 414.364 230.387C413.308 231.699 412.134 233.149 410.959 234.835C409.678 236.641 408.5 238.518 407.43 240.457C406.229 242.627 405.221 244.899 404.419 247.246C404.419 247.246 404.419 247.299 404.419 247.332C404.419 246.538 404.419 244.321 404.38 244.15C404.065 241.756 402.058 237.308 399.394 236.816C398.95 236.746 398.497 236.771 398.063 236.889C397.63 237.006 397.226 237.214 396.878 237.498C396.53 237.782 396.246 238.136 396.044 238.538C395.843 238.939 395.728 239.378 395.707 239.827C395.55 241.729 396.928 243.632 398.272 244.839C399.794 246.19 404.006 247.502 404.34 247.607C403.585 250.016 402.991 252.473 402.563 254.961C402.3 256.404 402.09 257.874 401.907 259.343C401.907 258.687 401.907 258.031 401.867 257.959C401.559 255.564 399.552 251.117 396.888 250.625C396.444 250.555 395.99 250.58 395.556 250.697C395.123 250.815 394.718 251.022 394.37 251.306C394.021 251.59 393.737 251.945 393.534 252.346C393.332 252.747 393.216 253.187 393.195 253.636C393.038 255.538 394.422 257.447 395.766 258.648C397.111 259.848 400.7 261.062 401.67 261.363L401.454 263.056C401.133 265.772 400.798 268.488 400.431 271.138C400.299 272.069 400.129 272.981 399.965 273.9C399.965 273.29 399.965 272.778 399.932 272.699C399.617 270.305 397.61 265.857 394.953 265.365C394.509 265.295 394.055 265.32 393.621 265.438C393.187 265.555 392.783 265.763 392.435 266.047C392.086 266.331 391.802 266.685 391.599 267.086C391.397 267.488 391.281 267.927 391.26 268.376C391.102 270.279 392.48 272.187 393.831 273.388C395.183 274.588 398.423 275.677 399.545 276.045C399.342 276.976 399.151 277.914 398.889 278.807C398.718 279.417 398.594 280.014 398.384 280.611C398.174 281.207 397.997 281.804 397.807 282.388C397.4 283.51 396.993 284.665 396.567 285.74C396.278 286.495 395.99 287.21 395.701 287.925C395.845 287 396.094 285.176 396.094 285.025C396.067 282.9 395.494 280.817 394.428 278.977C394.436 278.74 394.421 278.503 394.382 278.269C394.328 277.82 394.179 277.388 393.945 277.001C393.711 276.614 393.397 276.282 393.025 276.025C392.653 275.768 392.231 275.594 391.787 275.512C391.342 275.431 390.885 275.445 390.446 275.553C387.822 276.248 386.169 280.834 386.045 283.248C386.045 283.392 386.13 284.947 386.209 285.924C386.077 285.353 385.953 284.802 385.815 284.219C385.539 283.057 385.231 281.916 384.903 280.683C384.726 280.092 384.542 279.495 384.365 278.892C384.188 278.288 383.939 277.678 383.709 277.062C383.191 275.651 382.601 274.241 381.971 272.837C382.988 272.594 386.563 271.682 388.006 270.574C389.449 269.465 390.951 267.681 390.938 265.772C390.951 265.322 390.869 264.875 390.697 264.46C390.525 264.044 390.268 263.67 389.942 263.36C389.616 263.051 389.228 262.814 388.804 262.664C388.38 262.514 387.929 262.456 387.481 262.492C384.792 262.787 382.456 267.084 381.971 269.439C381.938 269.583 381.781 271.322 381.708 272.279C381.328 271.433 380.947 270.593 380.528 269.754C379.327 267.333 378.035 264.919 376.756 262.505C376.369 261.77 375.982 261.029 375.601 260.288C375.962 260.202 380.239 259.212 381.853 257.972C383.283 256.876 384.805 255.079 384.785 253.17C384.798 252.721 384.715 252.274 384.544 251.858C384.372 251.443 384.115 251.068 383.788 250.759C383.462 250.449 383.075 250.212 382.651 250.062C382.227 249.913 381.776 249.854 381.328 249.89C378.638 250.185 376.303 254.482 375.818 256.837C375.778 257.014 375.555 259.514 375.529 260.15C374.683 258.523 373.85 256.87 373.102 255.243C372.082 253.03 371.205 250.753 370.478 248.427C370.648 248.388 375.122 247.371 376.769 246.105C378.199 245.003 379.721 243.205 379.708 241.296C379.721 240.847 379.64 240.399 379.468 239.983C379.297 239.567 379.04 239.192 378.713 238.883C378.387 238.573 377.999 238.336 377.574 238.187C377.15 238.037 376.699 237.979 376.25 238.016C373.554 238.305 371.226 242.608 370.734 244.957C370.694 245.141 370.458 247.83 370.445 248.322C370.406 248.191 370.346 248.053 370.307 247.916C369.639 245.573 369.181 243.176 368.936 240.752C368.785 239.44 368.72 238.128 368.68 236.862C369.533 236.757 373.423 236.239 375.03 235.261C376.638 234.284 378.31 232.709 378.481 230.807C378.542 230.362 378.508 229.909 378.383 229.478C378.258 229.047 378.043 228.647 377.753 228.304C377.462 227.961 377.103 227.684 376.699 227.489C376.294 227.294 375.853 227.186 375.404 227.173C372.695 227.173 369.907 231.168 369.159 233.464C369.12 233.588 368.851 234.907 368.667 235.871C368.667 235.301 368.634 234.71 368.634 234.166C368.634 232.126 368.772 230.23 368.897 228.59C368.982 227.645 369.074 226.799 369.166 226.005C369.946 225.467 373.102 223.256 374.04 221.675C374.978 220.095 375.745 217.91 375.043 216.139C374.894 215.715 374.657 215.327 374.348 215.001C374.039 214.675 373.664 214.418 373.249 214.246C372.833 214.075 372.386 213.993 371.937 214.006C371.488 214.019 371.046 214.126 370.642 214.322C368.234 215.568 367.604 220.403 368.018 222.791C368.057 222.994 368.962 226.156 369.002 226.13L369.048 226.097C368.943 226.858 368.838 227.678 368.746 228.577C368.582 230.23 368.411 232.106 368.359 234.159C368.283 236.373 368.336 238.59 368.516 240.798C368.709 243.27 369.121 245.72 369.75 248.119V248.204C369.323 247.548 368.07 245.705 367.959 245.58C366.378 243.756 362.251 241.152 359.759 242.208C359.35 242.395 358.984 242.667 358.687 243.004C358.39 243.342 358.167 243.739 358.033 244.168C357.9 244.598 357.858 245.051 357.911 245.497C357.964 245.944 358.111 246.375 358.342 246.761C359.28 248.414 361.484 249.241 363.268 249.503Z"
    fill="#333333" />
  <path
    d="M409.667 236.816C409.707 236.816 410.527 233.661 410.559 233.451C410.887 231.063 410.126 226.235 407.693 225.06C407.282 224.876 406.838 224.781 406.388 224.78C405.938 224.779 405.494 224.873 405.083 225.056C404.672 225.238 404.304 225.505 404.003 225.84C403.702 226.174 403.475 226.568 403.337 226.996C402.681 228.786 403.507 230.991 404.491 232.506C405.672 234.257 409.661 236.816 409.667 236.816Z"
    fill="#333333" />
  <path
    d="M143.41 123.853C142.373 123.754 141.816 123.754 141.809 123.754V123.098C141.809 123.098 142.406 123.098 143.475 123.203L143.41 123.853Z"
    fill="#333333" />
  <path
    d="M224.118 148.912C223.029 148.912 221.935 148.892 220.838 148.853V148.197C221.946 148.197 223.048 148.249 224.118 148.256V148.912ZM227.398 148.912V148.256C228.519 148.256 229.621 148.21 230.678 148.164V148.82C229.654 148.866 228.552 148.912 227.417 148.912H227.398ZM217.485 148.735C216.396 148.682 215.294 148.61 214.205 148.525L214.258 147.869C215.36 147.954 216.455 148.026 217.538 148.079L217.485 148.735ZM234.003 148.656L233.964 148C235.112 147.928 236.201 147.843 237.244 147.751L237.303 148.407C236.273 148.505 235.178 148.584 234.023 148.656H234.003ZM210.912 148.256C209.804 148.138 208.702 148.013 207.632 147.875L207.718 147.219C208.787 147.357 209.882 147.482 210.998 147.593L210.912 148.256ZM204.352 147.403C203.257 147.226 202.161 147.036 201.072 146.832L201.19 146.176C202.253 146.38 203.342 146.57 204.431 146.74L204.352 147.403ZM197.858 146.15C196.769 145.901 195.686 145.632 194.643 145.35L194.814 144.694C195.85 144.969 196.92 145.238 198.002 145.488L197.858 146.15ZM191.468 144.418C190.399 144.077 189.343 143.71 188.339 143.336L188.569 142.719C189.566 143.093 190.609 143.454 191.672 143.788L191.468 144.418ZM185.256 142.07C184.233 141.617 183.222 141.138 182.265 140.64L182.566 140.056C183.511 140.548 184.534 141.02 185.525 141.466L185.256 142.07ZM179.352 139.006C178.827 138.678 178.302 138.35 177.797 137.996L176.59 137.189L176.951 136.638L178.165 137.452C178.663 137.793 179.175 138.108 179.7 138.449L179.352 139.006ZM173.822 135.411C172.89 134.834 171.939 134.27 171.001 133.725L171.329 133.161C172.274 133.706 173.232 134.277 174.17 134.854L173.822 135.411ZM168.128 132.131C167.157 131.613 166.16 131.108 165.202 130.636L165.491 130.045C166.468 130.524 167.459 131.029 168.436 131.554L168.128 132.131ZM162.224 129.252C161.22 128.805 160.203 128.379 159.193 127.985L159.436 127.375C160.453 127.776 161.476 128.202 162.493 128.655L162.224 129.252ZM156.117 126.837C155.074 126.477 154.024 126.136 152.994 125.834L153.184 125.178C154.221 125.486 155.283 125.834 156.333 126.195L156.117 126.837ZM149.832 124.988C148.743 124.719 147.661 124.496 146.631 124.332L146.742 123.676C147.792 123.866 148.881 124.095 150.022 124.332L149.832 124.988Z"
    fill="#333333" />
  <path
    d="M240.616 148.072L240.544 147.416C241.108 147.351 241.646 147.278 242.158 147.206L242.249 147.862C241.731 147.934 241.187 148.007 240.616 148.072Z"
    fill="#333333" />
  <path d="M241.816 150.867L246.828 146.662L240.682 144.425L241.816 150.867Z" fill="#333333" />
  <path d="M142.386 51.0039L141.147 49.9346L141.58 49.4426L142.813 50.5119L142.386 51.0039Z" fill="#333333" />
  <path
    d="M241.554 118.854C240.603 118.493 239.586 118.093 238.425 117.634L238.674 117.024C239.802 117.483 240.839 117.883 241.784 118.237L241.554 118.854ZM235.329 116.348C234.358 115.941 233.332 115.504 232.252 115.036L232.514 114.432C233.595 114.909 234.618 115.346 235.584 115.744L235.329 116.348ZM229.208 113.639L226.164 112.228L226.446 111.631C227.502 112.13 228.513 112.596 229.484 113.042L229.208 113.639ZM223.14 110.785L220.332 109.421L220.129 109.322L220.418 108.732L220.621 108.83L223.429 110.195L223.14 110.785ZM217.144 107.754C216.226 107.249 215.242 106.685 214.225 106.082L214.56 105.517C215.57 106.114 216.528 106.672 217.466 107.177L217.144 107.754ZM211.358 104.337C210.433 103.759 209.482 103.156 208.524 102.533L208.879 101.982C209.836 102.603 210.779 103.202 211.706 103.779L211.358 104.337ZM205.717 100.683C204.807 100.075 203.882 99.4472 202.942 98.8L203.316 98.2555C204.247 98.8984 205.17 99.5259 206.084 100.138L205.717 100.683ZM200.187 96.8844C199.281 96.2503 198.37 95.5943 197.451 94.9164L197.832 94.3851L200.561 96.3531L200.187 96.8844ZM194.729 92.9484L192.026 90.9804L192.42 90.4556L195.116 92.4236L194.729 92.9484ZM189.336 88.9534C188.444 88.2974 187.552 87.6414 186.66 86.9329L187.054 86.4147C187.946 87.0707 188.838 87.766 189.73 88.4286L189.336 88.9534ZM183.944 84.9256L181.32 82.8723L181.72 82.354C182.606 83.01 183.491 83.7251 184.377 84.4008L183.944 84.9256ZM178.696 80.819L176.072 78.746L176.479 78.2278L179.103 80.3008L178.696 80.819ZM173.448 76.66L170.824 74.5739L171.231 74.0622L173.855 76.1483L173.448 76.66ZM168.2 72.4681L165.576 70.3624L165.989 69.8507L168.613 71.9564L168.2 72.4681ZM162.952 68.2238L160.328 66.0918L160.741 65.5867L163.365 67.7121L162.952 68.2238ZM157.77 63.9598L155.192 61.8147L155.611 61.3096L158.19 63.4547L157.77 63.9598ZM152.62 59.6958L150.049 57.5376L150.475 57.039L153.04 59.1972L152.62 59.6958ZM147.484 55.3728C146.539 54.5725 145.68 53.8443 144.925 53.1948L145.352 52.6963L147.91 54.8742L147.484 55.3728Z"
    fill="#333333" />
  <path
    d="M246.166 120.441C245.693 120.297 245.169 120.127 244.598 119.936L244.808 119.28C245.372 119.471 245.89 119.635 246.363 119.785L246.166 120.441Z"
    fill="#333333" />
  <path d="M244.572 123.019L250.85 121.189L246.126 116.663L244.572 123.019Z" fill="#333333" />
  <path
    d="M142.406 236.882C141.337 236.829 140.76 236.777 140.76 236.777L140.819 236.121C140.819 236.121 141.389 236.173 142.439 236.219L142.406 236.882Z"
    fill="#333333" />
  <path
    d="M146.486 236.973H145.732V236.317H146.486C147.267 236.317 148.12 236.317 149.038 236.285V236.941C148.126 236.967 147.274 236.973 146.486 236.973ZM152.39 236.809V236.153C153.486 236.094 154.595 236.016 155.67 235.93L155.73 236.586C154.588 236.678 153.473 236.757 152.371 236.816L152.39 236.809ZM159.016 236.271L158.944 235.615C160.039 235.497 161.142 235.36 162.224 235.209L162.309 235.865C161.207 236.016 160.098 236.16 159.016 236.271ZM165.576 235.373L165.471 234.717C166.56 234.54 167.656 234.343 168.751 234.133L168.876 234.789C167.774 234.992 166.672 235.189 165.576 235.373ZM172.097 234.107L171.952 233.451C173.028 233.215 174.104 232.959 175.167 232.69L175.324 233.346C174.262 233.608 173.173 233.864 172.097 234.107ZM178.532 232.473L178.355 231.817C179.405 231.515 180.467 231.194 181.517 230.859L181.714 231.515C180.664 231.843 179.588 232.171 178.532 232.473ZM184.862 230.453L184.646 229.836C185.682 229.469 186.726 229.082 187.736 228.688L187.978 229.298C186.955 229.698 185.912 230.085 184.862 230.453ZM191.055 228.039L190.793 227.435C191.81 227.002 192.82 226.55 193.804 226.09L194.086 226.687C193.128 227.147 192.072 227.632 191.055 228.039ZM197.071 225.224L196.769 224.641C197.746 224.142 198.737 223.624 199.682 223.086L200.003 223.663C199.032 224.201 198.048 224.726 197.064 225.224H197.071ZM202.876 221.997L202.535 221.433C203.244 221.013 203.946 220.573 204.641 220.121C204.87 219.976 205.094 219.832 205.297 219.675L205.671 220.219L204.975 220.678C204.28 221.131 203.585 221.571 202.876 221.997ZM208.347 218.192L207.921 217.687C208.728 217.031 209.541 216.257 210.335 215.463L210.801 215.929C209.987 216.736 209.167 217.497 208.347 218.192ZM213.07 213.482L212.572 213.056C213.267 212.262 213.969 211.403 214.665 210.51L215.183 210.911C214.481 211.816 213.772 212.682 213.07 213.482ZM217.164 208.234L216.626 207.854C217.243 206.988 217.866 206.069 218.482 205.125L219.034 205.479C218.41 206.443 217.781 207.368 217.164 208.241V208.234ZM220.805 202.671L220.247 202.33C220.82 201.39 221.384 200.443 221.94 199.49L222.504 199.818C221.946 200.782 221.382 201.74 220.805 202.704V202.671ZM224.144 196.931L223.566 196.616C224.104 195.645 224.634 194.677 225.154 193.71L225.731 194.019C225.206 194.996 224.682 195.967 224.144 196.938V196.931ZM227.286 191.093L226.709 190.784L228.244 187.852L228.828 188.154L227.286 191.093ZM230.356 185.189L229.779 184.887C230.304 183.886 230.822 182.908 231.334 181.955L231.911 182.27C231.399 183.247 230.881 184.224 230.356 185.222V185.189ZM233.505 179.37L232.934 179.049C233.538 177.979 234.089 177.041 234.62 176.182L235.178 176.523C234.653 177.409 234.102 178.34 233.505 179.403V179.37Z"
    fill="#333333" />
  <path
    d="M236.962 173.84L236.431 173.466C236.759 172.994 237.087 172.554 237.415 172.154L237.926 172.561C237.611 172.941 237.29 173.368 236.962 173.84Z"
    fill="#333333" />
  <path d="M239.422 175.349L241.016 169.005L234.725 170.796L239.422 175.349Z" fill="#333333" />
  <path
    d="M144.742 187.393C143.672 187.295 143.102 187.209 143.102 187.209L143.2 186.553C143.2 186.553 143.764 186.632 144.807 186.737L144.742 187.393Z"
    fill="#333333" />
  <path
    d="M154.424 187.727V187.071C155.467 187.071 156.55 187.025 157.632 186.98V187.636C156.563 187.681 155.48 187.714 154.424 187.727ZM151.197 187.727C150.094 187.727 149.006 187.675 147.969 187.622L148.002 186.966C149.032 187.019 150.108 187.058 151.21 187.071L151.197 187.727ZM160.879 187.445L160.833 186.789C161.889 186.717 162.965 186.619 164.028 186.514L164.094 187.17C163.024 187.275 161.942 187.367 160.879 187.445ZM167.301 186.789L167.216 186.133C168.279 185.996 169.348 185.845 170.398 185.681L170.496 186.337C169.44 186.514 168.364 186.665 167.301 186.802V186.789ZM173.684 185.799L173.566 185.143C174.596 184.953 175.646 184.749 176.715 184.52L176.846 185.176C175.777 185.412 174.721 185.648 173.684 185.812V185.799ZM179.995 184.487L179.844 183.831C180.881 183.581 181.93 183.312 182.954 183.037L183.124 183.693C182.094 183.955 181.045 184.224 180.008 184.474L179.995 184.487ZM186.234 182.807L186.043 182.151C187.06 181.85 188.09 181.495 189.107 181.187L189.31 181.81C188.293 182.158 187.257 182.486 186.234 182.794V182.807ZM192.361 180.787L192.144 180.17C193.141 179.809 194.151 179.429 195.142 179.035L195.385 179.645C194.388 180.026 193.371 180.4 192.361 180.774V180.787ZM198.376 178.432L198.12 177.828C199.098 177.415 200.088 176.976 201.059 176.516L201.328 177.113C200.344 177.553 199.354 177.992 198.376 178.432ZM204.28 175.736L203.985 175.145C204.672 174.804 205.36 174.457 206.051 174.102L206.845 173.682L207.153 174.266L206.353 174.68C205.592 175.021 204.936 175.375 204.241 175.716L204.28 175.736ZM210.007 172.777L209.699 172.193L212.552 170.704L212.861 171.288L210.007 172.777ZM215.714 169.792L215.406 169.215L218.259 167.719L218.561 168.303L215.714 169.792ZM221.415 166.808L221.106 166.224L223.954 164.728L224.262 165.305L221.415 166.808Z"
    fill="#333333" />
  <path d="M228.216 162.439L226.766 163.205L227.072 163.785L228.523 163.019L228.216 162.439Z" fill="#333333" />
  <path d="M229.038 166.047L232.527 160.517L225.994 160.254L229.038 166.047Z" fill="#333333" />
  <path d="M177.883 201.53H173.546V216.716H177.883V201.53Z" fill="#333333" />
  <path d="M178.217 217.044H173.218V201.202H178.217V217.044ZM173.874 216.388H177.561V201.858H173.874V216.388Z"
    fill="#333333" />
  <path d="M185.479 193.349H181.143V216.716H185.479V193.349Z" fill="white" />
  <path
    d="M185.479 217.044H181.143C181.056 217.044 180.973 217.01 180.911 216.948C180.85 216.887 180.815 216.803 180.815 216.716V193.349C180.815 193.262 180.85 193.179 180.911 193.118C180.973 193.056 181.056 193.021 181.143 193.021H185.479C185.566 193.021 185.65 193.056 185.711 193.118C185.773 193.179 185.807 193.262 185.807 193.349V216.716C185.807 216.803 185.773 216.887 185.711 216.948C185.65 217.01 185.566 217.044 185.479 217.044ZM181.471 216.388H185.151V193.677H181.471V216.388Z"
    fill="#333333" />
  <path d="M193.069 206.102H188.733V216.716H193.069V206.102Z" fill="#333333" />
  <path d="M193.397 217.044H188.405V205.774H193.397V217.044ZM189.061 216.388H192.741V206.43H189.061V216.388Z"
    fill="#333333" />
  <path d="M200.659 194.491H196.323V216.716H200.659V194.491Z" fill="white" />
  <path
    d="M200.659 217.044H196.323C196.236 217.042 196.154 217.007 196.093 216.946C196.032 216.885 195.996 216.803 195.995 216.716V194.491C195.995 194.404 196.029 194.32 196.091 194.259C196.152 194.197 196.236 194.163 196.323 194.163H200.659C200.746 194.163 200.829 194.197 200.891 194.259C200.952 194.32 200.987 194.404 200.987 194.491V216.716C200.987 216.803 200.952 216.887 200.891 216.948C200.829 217.01 200.746 217.044 200.659 217.044ZM196.651 216.388H200.344V194.832H196.664L196.651 216.388Z"
    fill="#333333" />
  <path d="M171.513 192.405H168.469V193.061H171.513V192.405Z" fill="#333333" />
  <path d="M171.513 195.829H168.469V196.485H171.513V195.829Z" fill="#333333" />
  <path d="M171.513 199.253H168.469V199.909H171.513V199.253Z" fill="#333333" />
  <path d="M171.513 202.684H168.469V203.34H171.513V202.684Z" fill="#333333" />
  <path d="M171.513 206.109H168.469V206.765H171.513V206.109Z" fill="#333333" />
  <path d="M171.513 209.533H168.469V210.189H171.513V209.533Z" fill="#333333" />
  <path d="M171.513 212.957H168.469V213.613H171.513V212.957Z" fill="#333333" />
  <path d="M171.513 216.388H168.469V217.044H171.513V216.388Z" fill="#333333" />
  <path
    d="M174.799 197.909L174.321 197.456L184.115 187.078L190.95 196.767L197.707 188.862L198.206 189.289L190.904 197.83L184.036 188.108L174.799 197.909Z"
    fill="#333333" />
  <path d="M199.819 191.926L201.013 185.497L194.847 187.682L199.819 191.926Z" fill="#333333" />
  <path d="M168.758 147.167H141.77V181.272H168.758V147.167Z" fill="#333333" />
  <path d="M169.086 181.6H141.442V146.832H169.086V181.6ZM142.098 180.944H168.43V147.488H142.098V180.944Z"
    fill="#333333" />
  <path d="M170.385 145.835H143.397V179.941H170.385V145.835Z" fill="white" />
  <path
    d="M170.385 180.275H143.397C143.31 180.275 143.226 180.241 143.165 180.179C143.103 180.118 143.069 180.034 143.069 179.947V145.835C143.069 145.748 143.103 145.665 143.165 145.603C143.226 145.542 143.31 145.507 143.397 145.507H170.385C170.472 145.507 170.555 145.542 170.616 145.603C170.678 145.665 170.713 145.748 170.713 145.835V179.947C170.713 180.034 170.678 180.118 170.616 180.179C170.555 180.241 170.472 180.275 170.385 180.275ZM143.725 179.619H170.057V146.163H143.725V179.619Z"
    fill="#333333" />
  <path d="M165.045 155.295H148.435V155.951H165.045V155.295Z" fill="#333333" />
  <path d="M165.045 160.635H148.435V161.291H165.045V160.635Z" fill="#333333" />
  <path d="M165.045 165.974H148.435V166.63H165.045V165.974Z" fill="#333333" />
  <path d="M165.045 171.314H148.435V171.97H165.045V171.314Z" fill="#333333" />
  <path
    d="M168.253 144.72C166.528 144.719 164.842 145.229 163.407 146.186C161.973 147.143 160.854 148.504 160.193 150.097C159.532 151.69 159.359 153.443 159.694 155.135C160.03 156.827 160.86 158.381 162.079 159.601C163.298 160.821 164.851 161.652 166.543 161.988C168.234 162.325 169.987 162.153 171.581 161.493C173.174 160.834 174.536 159.716 175.495 158.282C176.453 156.849 176.964 155.163 176.964 153.438C176.964 151.127 176.047 148.911 174.413 147.276C172.779 145.641 170.564 144.722 168.253 144.72ZM168.253 160.287C166.898 160.287 165.574 159.885 164.448 159.133C163.321 158.38 162.444 157.311 161.925 156.059C161.407 154.808 161.271 153.431 161.536 152.102C161.8 150.774 162.452 149.553 163.41 148.595C164.368 147.638 165.588 146.985 166.916 146.721C168.245 146.457 169.622 146.593 170.873 147.111C172.125 147.629 173.194 148.507 173.947 149.633C174.7 150.76 175.101 152.084 175.101 153.438C175.101 154.338 174.924 155.228 174.58 156.059C174.236 156.89 173.731 157.645 173.095 158.281C172.459 158.917 171.704 159.421 170.873 159.766C170.043 160.11 169.152 160.287 168.253 160.287Z"
    fill="#333333" />
  <path
    d="M168.253 162.478C166.463 162.479 164.713 161.95 163.224 160.956C161.736 159.963 160.575 158.55 159.89 156.897C159.204 155.243 159.024 153.424 159.373 151.669C159.722 149.913 160.584 148.301 161.849 147.035C163.115 145.77 164.727 144.908 166.483 144.559C168.238 144.21 170.058 144.39 171.711 145.075C173.364 145.761 174.777 146.921 175.77 148.41C176.764 149.899 177.294 151.649 177.292 153.438C177.289 155.835 176.335 158.132 174.641 159.826C172.946 161.521 170.649 162.475 168.253 162.478ZM168.253 145.048C166.593 145.047 164.97 145.538 163.589 146.459C162.209 147.38 161.132 148.69 160.496 150.223C159.86 151.756 159.693 153.443 160.016 155.071C160.339 156.699 161.138 158.195 162.311 159.369C163.484 160.543 164.979 161.343 166.607 161.667C168.234 161.991 169.922 161.825 171.455 161.191C172.989 160.556 174.3 159.48 175.222 158.1C176.144 156.72 176.636 155.098 176.636 153.438C176.633 151.215 175.749 149.084 174.177 147.512C172.606 145.939 170.476 145.053 168.253 145.048ZM168.253 160.615C166.833 160.618 165.444 160.199 164.262 159.412C163.08 158.625 162.158 157.505 161.613 156.194C161.068 154.883 160.924 153.439 161.199 152.046C161.475 150.653 162.157 149.373 163.16 148.368C164.163 147.363 165.442 146.679 166.835 146.401C168.227 146.123 169.671 146.264 170.983 146.807C172.295 147.35 173.417 148.269 174.206 149.45C174.995 150.63 175.416 152.018 175.416 153.438C175.414 155.339 174.659 157.161 173.317 158.506C171.974 159.852 170.153 160.61 168.253 160.615ZM168.253 146.918C166.962 146.915 165.7 147.295 164.626 148.01C163.552 148.725 162.714 149.743 162.219 150.934C161.723 152.125 161.592 153.437 161.843 154.702C162.093 155.968 162.713 157.131 163.624 158.044C164.535 158.958 165.697 159.58 166.963 159.833C168.228 160.085 169.539 159.957 170.732 159.464C171.924 158.971 172.943 158.135 173.66 157.062C174.377 155.99 174.76 154.729 174.76 153.438C174.751 151.716 174.063 150.067 172.844 148.851C171.625 147.635 169.975 146.949 168.253 146.944V146.918Z"
    fill="#333333" />
  <path
    d="M188.779 165.417C188.531 165.417 188.287 165.361 188.064 165.253L174.76 158.752C174.369 158.561 174.071 158.222 173.93 157.81C173.789 157.399 173.818 156.948 174.009 156.558C174.2 156.167 174.539 155.868 174.951 155.728C175.362 155.587 175.813 155.615 176.203 155.806L189.494 162.301C189.828 162.463 190.098 162.734 190.259 163.069C190.419 163.405 190.461 163.785 190.377 164.147C190.293 164.509 190.088 164.832 189.797 165.063C189.505 165.294 189.144 165.418 188.772 165.417H188.779Z"
    fill="#333333" />
  <path
    d="M198.212 116.945H219.65C220.103 116.944 220.552 117.033 220.97 117.205C221.389 117.378 221.769 117.632 222.09 117.951C222.41 118.271 222.664 118.651 222.838 119.07C223.011 119.488 223.101 119.936 223.101 120.389V133.365C223.101 133.818 223.011 134.266 222.838 134.684C222.664 135.103 222.41 135.482 222.09 135.802C221.769 136.122 221.389 136.376 220.97 136.548C220.552 136.721 220.103 136.81 219.65 136.809H217.761L213.707 142.969L213.234 136.809H198.212C197.759 136.81 197.311 136.721 196.892 136.548C196.474 136.376 196.093 136.122 195.773 135.802C195.452 135.482 195.198 135.103 195.024 134.684C194.851 134.266 194.762 133.818 194.762 133.365V120.389C194.762 119.936 194.851 119.488 195.024 119.07C195.198 118.651 195.452 118.271 195.773 117.951C196.093 117.632 196.474 117.378 196.892 117.205C197.311 117.033 197.759 116.944 198.212 116.945Z"
    fill="#333333" />
  <path
    d="M213.464 143.952L212.939 137.137H198.212C197.212 137.135 196.254 136.737 195.547 136.03C194.84 135.323 194.442 134.364 194.44 133.365V120.389C194.442 119.388 194.841 118.429 195.549 117.721C196.258 117.014 197.218 116.617 198.219 116.617H219.657C220.658 116.617 221.618 117.014 222.326 117.721C223.035 118.429 223.434 119.388 223.435 120.389V133.365C223.434 134.366 223.035 135.325 222.326 136.032C221.618 136.739 220.658 137.137 219.657 137.137H217.945L213.464 143.952ZM198.219 117.273C197.392 117.273 196.598 117.601 196.013 118.185C195.428 118.769 195.098 119.562 195.096 120.389V133.365C195.098 134.192 195.428 134.984 196.013 135.568C196.598 136.153 197.392 136.481 198.219 136.481H213.549L213.969 141.984L217.59 136.481H219.657C220.484 136.481 221.277 136.153 221.862 135.568C222.448 134.984 222.778 134.192 222.779 133.365V120.389C222.778 119.562 222.448 118.769 221.862 118.185C221.277 117.601 220.484 117.273 219.657 117.273H198.219Z"
    fill="#333333" />
  <path
    d="M204.575 126.726C204.574 126.393 204.474 126.068 204.288 125.791C204.102 125.515 203.838 125.3 203.53 125.173C203.222 125.046 202.883 125.014 202.556 125.08C202.23 125.146 201.93 125.307 201.695 125.543C201.46 125.779 201.3 126.079 201.235 126.406C201.171 126.733 201.205 127.072 201.332 127.379C201.46 127.687 201.676 127.95 201.953 128.135C202.231 128.32 202.556 128.418 202.889 128.418C203.111 128.418 203.331 128.375 203.536 128.29C203.741 128.204 203.927 128.08 204.084 127.922C204.24 127.765 204.365 127.578 204.449 127.373C204.533 127.168 204.576 126.948 204.575 126.726Z"
    fill="white" />
  <path
    d="M209.85 128.412C210.781 128.412 211.535 127.657 211.535 126.726C211.535 125.795 210.781 125.04 209.85 125.04C208.918 125.04 208.164 125.795 208.164 126.726C208.164 127.657 208.918 128.412 209.85 128.412Z"
    fill="white" />
  <path
    d="M218.496 126.726C218.494 126.393 218.394 126.068 218.208 125.791C218.022 125.515 217.758 125.3 217.45 125.173C217.142 125.046 216.803 125.014 216.477 125.08C216.15 125.146 215.85 125.307 215.615 125.543C215.38 125.779 215.22 126.079 215.156 126.406C215.091 126.733 215.125 127.072 215.253 127.379C215.381 127.687 215.597 127.95 215.874 128.135C216.151 128.32 216.477 128.418 216.81 128.418C217.032 128.418 217.251 128.375 217.456 128.29C217.661 128.204 217.847 128.08 218.004 127.922C218.161 127.765 218.285 127.578 218.369 127.373C218.454 127.168 218.496 126.948 218.496 126.726Z"
    fill="white" />
  <path
    d="M202.181 108.502H180.743C179.828 108.502 178.95 108.866 178.303 109.513C177.656 110.16 177.292 111.038 177.292 111.953V124.929C177.292 125.382 177.382 125.83 177.555 126.248C177.729 126.666 177.983 127.046 178.303 127.366C178.624 127.686 179.004 127.94 179.423 128.112C179.841 128.285 180.29 128.374 180.743 128.373H182.632L186.686 134.533L187.158 128.373H202.181C202.634 128.374 203.082 128.285 203.501 128.112C203.919 127.94 204.3 127.686 204.62 127.366C204.941 127.046 205.195 126.666 205.369 126.248C205.542 125.83 205.631 125.382 205.631 124.929V111.953C205.631 111.038 205.268 110.16 204.621 109.513C203.974 108.866 203.096 108.502 202.181 108.502Z"
    fill="white" />
  <path
    d="M186.935 135.516L182.455 128.701H180.743C179.742 128.701 178.782 128.303 178.073 127.596C177.365 126.889 176.966 125.93 176.964 124.929V111.953C176.966 110.951 177.365 109.991 178.073 109.283C178.781 108.575 179.741 108.176 180.743 108.174H202.181C203.182 108.176 204.143 108.575 204.851 109.283C205.559 109.991 205.958 110.951 205.959 111.953V124.929C205.958 125.93 205.559 126.889 204.85 127.596C204.142 128.303 203.182 128.701 202.181 128.701H187.46L186.935 135.516ZM180.743 108.83C179.915 108.83 179.12 109.159 178.535 109.745C177.949 110.33 177.62 111.125 177.62 111.953V124.929C177.622 125.756 177.952 126.548 178.537 127.132C179.123 127.716 179.916 128.045 180.743 128.045H182.809L186.43 133.548L186.857 128.045H202.181C203.008 128.045 203.801 127.716 204.387 127.132C204.972 126.548 205.302 125.756 205.303 124.929V111.953C205.303 111.125 204.974 110.33 204.389 109.745C203.803 109.159 203.009 108.83 202.181 108.83H180.743Z"
    fill="#333333" />
  <path
    d="M186.188 118.926C186.188 118.593 186.089 118.267 185.903 117.99C185.718 117.712 185.455 117.496 185.147 117.369C184.839 117.241 184.5 117.208 184.173 117.273C183.846 117.338 183.545 117.498 183.31 117.734C183.074 117.97 182.913 118.27 182.848 118.597C182.783 118.924 182.816 119.263 182.944 119.571C183.072 119.879 183.288 120.143 183.565 120.328C183.842 120.513 184.168 120.612 184.502 120.612C184.948 120.61 185.376 120.432 185.692 120.116C186.008 119.801 186.186 119.373 186.188 118.926Z"
    fill="#333333" />
  <path
    d="M184.502 120.94C184.102 120.941 183.71 120.824 183.377 120.602C183.043 120.381 182.783 120.065 182.63 119.696C182.476 119.326 182.435 118.92 182.513 118.527C182.591 118.135 182.783 117.774 183.066 117.491C183.349 117.208 183.71 117.015 184.103 116.938C184.495 116.86 184.902 116.9 185.271 117.054C185.641 117.208 185.956 117.468 186.178 117.801C186.399 118.134 186.517 118.526 186.516 118.926C186.514 119.46 186.301 119.971 185.924 120.348C185.547 120.726 185.035 120.938 184.502 120.94ZM184.502 117.562C184.232 117.56 183.967 117.639 183.742 117.788C183.517 117.938 183.341 118.15 183.236 118.399C183.132 118.649 183.104 118.923 183.156 119.188C183.208 119.453 183.337 119.697 183.528 119.889C183.719 120.08 183.962 120.211 184.227 120.264C184.491 120.317 184.766 120.291 185.016 120.187C185.265 120.084 185.479 119.909 185.629 119.685C185.779 119.46 185.86 119.196 185.86 118.926C185.86 118.565 185.717 118.219 185.462 117.964C185.208 117.708 184.862 117.563 184.502 117.562Z"
    fill="#333333" />
  <path
    d="M193.128 118.926C193.128 118.593 193.029 118.267 192.844 117.99C192.659 117.712 192.395 117.496 192.087 117.369C191.779 117.241 191.44 117.208 191.113 117.273C190.786 117.338 190.486 117.498 190.25 117.734C190.014 117.97 189.854 118.27 189.789 118.597C189.724 118.924 189.757 119.263 189.885 119.571C190.012 119.879 190.228 120.143 190.506 120.328C190.783 120.513 191.109 120.612 191.442 120.612C191.889 120.61 192.317 120.432 192.632 120.116C192.948 119.801 193.126 119.373 193.128 118.926Z"
    fill="#333333" />
  <path
    d="M191.462 120.94C191.062 120.941 190.67 120.824 190.337 120.602C190.004 120.381 189.744 120.065 189.59 119.696C189.436 119.326 189.396 118.92 189.473 118.527C189.551 118.135 189.744 117.774 190.027 117.491C190.31 117.208 190.67 117.015 191.063 116.938C191.455 116.86 191.862 116.9 192.232 117.054C192.601 117.208 192.916 117.468 193.138 117.801C193.36 118.134 193.477 118.526 193.476 118.926C193.474 119.46 193.261 119.971 192.884 120.348C192.507 120.726 191.995 120.938 191.462 120.94ZM191.462 117.562C191.192 117.56 190.927 117.639 190.702 117.788C190.477 117.938 190.301 118.15 190.197 118.399C190.092 118.649 190.064 118.923 190.116 119.188C190.168 119.453 190.298 119.697 190.488 119.889C190.679 120.08 190.922 120.211 191.187 120.264C191.452 120.317 191.726 120.291 191.976 120.187C192.226 120.084 192.439 119.909 192.589 119.685C192.74 119.46 192.82 119.196 192.82 118.926C192.82 118.565 192.677 118.219 192.422 117.964C192.168 117.708 191.823 117.563 191.462 117.562Z"
    fill="#333333" />
  <path
    d="M200.108 118.926C200.108 118.593 200.009 118.267 199.824 117.99C199.639 117.712 199.375 117.496 199.067 117.369C198.759 117.241 198.42 117.208 198.093 117.273C197.766 117.338 197.466 117.498 197.23 117.734C196.994 117.97 196.834 118.27 196.768 118.597C196.703 118.924 196.737 119.263 196.864 119.571C196.992 119.879 197.208 120.143 197.485 120.328C197.763 120.513 198.089 120.612 198.422 120.612C198.869 120.61 199.296 120.432 199.612 120.116C199.928 119.801 200.106 119.373 200.108 118.926Z"
    fill="#333333" />
  <path
    d="M198.422 120.94C198.022 120.941 197.63 120.824 197.297 120.602C196.964 120.381 196.704 120.065 196.55 119.696C196.396 119.326 196.356 118.92 196.433 118.527C196.511 118.135 196.704 117.774 196.987 117.491C197.27 117.208 197.63 117.015 198.023 116.938C198.415 116.86 198.822 116.9 199.192 117.054C199.561 117.208 199.877 117.468 200.098 117.801C200.32 118.134 200.437 118.526 200.436 118.926C200.434 119.46 200.221 119.971 199.844 120.348C199.467 120.726 198.956 120.938 198.422 120.94ZM198.422 117.562C198.152 117.56 197.887 117.639 197.662 117.788C197.437 117.938 197.261 118.15 197.157 118.399C197.052 118.649 197.024 118.923 197.076 119.188C197.128 119.453 197.258 119.697 197.448 119.889C197.639 120.08 197.882 120.211 198.147 120.264C198.412 120.317 198.686 120.291 198.936 120.187C199.186 120.084 199.399 119.909 199.55 119.685C199.7 119.46 199.78 119.196 199.78 118.926C199.78 118.565 199.637 118.219 199.383 117.964C199.128 117.708 198.783 117.563 198.422 117.562Z"
    fill="#333333" />
  <path d="M185.997 68.5913H150.219V95.1199H185.997V68.5913Z" fill="white" />
  <path d="M186.325 95.4415H149.891V68.2634H186.325V95.4415ZM150.547 94.7855H185.669V68.9194H150.547V94.7855Z"
    fill="#333333" />
  <path d="M185.997 82.1247L180.133 76.916L170.575 86.7888L162.86 81.8491L150.219 95.1135H185.997V82.1247Z"
    fill="#333333" />
  <path
    d="M186.325 95.4415H149.452L162.814 81.4293L170.522 86.369L180.12 76.4634L186.325 81.9803V95.4415ZM150.98 94.7855H185.669V82.2755L180.152 77.3687L170.621 87.2087L162.913 82.2755L150.98 94.7855Z"
    fill="#333333" />
  <path
    d="M161.784 75.9123C161.784 76.7209 161.545 77.5113 161.095 78.1836C160.646 78.8558 160.007 79.3796 159.26 79.6887C158.513 79.9979 157.691 80.0784 156.898 79.9202C156.105 79.762 155.377 79.3721 154.805 78.7999C154.234 78.2276 153.845 77.4988 153.688 76.7056C153.531 75.9124 153.613 75.0905 153.924 74.3438C154.234 73.5971 154.759 72.9593 155.432 72.511C156.105 72.0627 156.896 71.8241 157.704 71.8254C158.787 71.8272 159.825 72.2585 160.59 73.0248C161.355 73.791 161.784 74.8296 161.784 75.9123Z"
    fill="#333333" />
  <path
    d="M157.704 80.3273C156.831 80.3273 155.977 80.0684 155.251 79.5833C154.525 79.0982 153.959 78.4087 153.625 77.6019C153.291 76.7952 153.204 75.9075 153.374 75.0511C153.544 74.1947 153.965 73.4081 154.582 72.7907C155.2 72.1732 155.986 71.7527 156.843 71.5824C157.699 71.412 158.587 71.4995 159.394 71.8336C160.2 72.1678 160.89 72.7336 161.375 73.4597C161.86 74.1857 162.119 75.0393 162.119 75.9124C162.117 77.0828 161.652 78.2047 160.824 79.0323C159.996 79.8599 158.874 80.3256 157.704 80.3273ZM157.704 72.1601C156.961 72.1601 156.234 72.3806 155.616 72.7936C154.998 73.2066 154.516 73.7937 154.231 74.4805C153.947 75.1674 153.872 75.9232 154.017 76.6523C154.162 77.3815 154.52 78.0512 155.046 78.5769C155.572 79.1026 156.242 79.4606 156.971 79.6057C157.7 79.7507 158.456 79.6763 159.143 79.3918C159.829 79.1072 160.416 78.6255 160.829 78.0073C161.243 77.3892 161.463 76.6624 161.463 75.919C161.461 74.9226 161.065 73.9675 160.36 73.263C159.656 72.5584 158.7 72.1619 157.704 72.1601Z"
    fill="#333333" />
  <path d="M207.324 75.8206H171.546V102.349H207.324V75.8206Z" fill="white" />
  <path d="M207.652 102.671H171.218V75.4924H207.652V102.671ZM171.874 102.015H206.996V76.1484H171.874V102.015Z"
    fill="#333333" />
  <path d="M207.324 89.3539L201.466 84.1453L191.901 94.0181L184.193 89.0849L171.546 102.343H207.324V89.3539Z"
    fill="white" />
  <path
    d="M207.324 102.671H171.546C171.482 102.67 171.42 102.65 171.368 102.615C171.315 102.58 171.274 102.53 171.249 102.472C171.224 102.413 171.216 102.349 171.227 102.287C171.238 102.224 171.266 102.166 171.31 102.119L183.944 88.8552C183.997 88.8009 184.067 88.7667 184.143 88.7583C184.218 88.75 184.294 88.768 184.357 88.8092L191.842 93.598L201.217 83.922C201.277 83.8623 201.358 83.8289 201.443 83.8289C201.528 83.8289 201.609 83.8623 201.669 83.922L207.527 89.1307C207.562 89.161 207.59 89.1984 207.609 89.2402C207.628 89.282 207.638 89.3274 207.639 89.3734V102.336C207.641 102.422 207.609 102.505 207.55 102.568C207.491 102.63 207.41 102.667 207.324 102.671ZM172.313 102.015H206.996V89.5046L201.479 84.624L192.138 94.2737C192.085 94.328 192.014 94.3622 191.939 94.3705C191.864 94.3789 191.788 94.3609 191.724 94.3196L184.246 89.5308L172.313 102.015Z"
    fill="#333333" />
  <path
    d="M179.031 87.2284C181.288 87.2284 183.118 85.3987 183.118 83.1416C183.118 80.8844 181.288 79.0547 179.031 79.0547C176.774 79.0547 174.944 80.8844 174.944 83.1416C174.944 85.3987 176.774 87.2284 179.031 87.2284Z"
    fill="white" />
  <path
    d="M179.031 87.5563C178.157 87.5563 177.304 87.2974 176.578 86.8123C175.852 86.3272 175.286 85.6377 174.952 84.8309C174.618 84.0242 174.53 83.1365 174.701 82.2801C174.871 81.4237 175.291 80.6371 175.909 80.0197C176.526 79.4022 177.313 78.9817 178.169 78.8114C179.026 78.641 179.913 78.7285 180.72 79.0626C181.527 79.3968 182.216 79.9626 182.702 80.6887C183.187 81.4147 183.446 82.2683 183.446 83.1414C183.444 84.3118 182.978 85.4337 182.151 86.2613C181.323 87.0889 180.201 87.5546 179.031 87.5563ZM179.031 79.3826C178.287 79.3826 177.56 79.603 176.942 80.016C176.324 80.4291 175.842 81.0161 175.558 81.703C175.273 82.3898 175.199 83.1456 175.344 83.8748C175.489 84.6039 175.847 85.2737 176.373 85.7994C176.898 86.3251 177.568 86.6831 178.297 86.8281C179.026 86.9731 179.782 86.8987 180.469 86.6142C181.156 86.3297 181.743 85.8479 182.156 85.2298C182.569 84.6116 182.79 83.8849 182.79 83.1414C182.79 82.1439 182.394 81.1872 181.689 80.4812C180.984 79.7752 180.028 79.3777 179.031 79.376V79.3826Z"
    fill="#333333" />
  <path d="M426.48 292.471H167.17V293.127H426.48V292.471Z" fill="#333333" />
  <path d="M160.82 292.471H151.643V293.127H160.82V292.471Z" fill="#333333" />
  <path
    d="M257.187 194.176L248.659 189.243L252.64 188.213C253.863 187.973 254.997 187.403 255.92 186.566C256.368 186.031 256.759 185.45 257.088 184.835C257.672 183.831 258.184 182.965 258.833 182.867C258.959 182.844 259.089 182.85 259.213 182.884C259.337 182.918 259.451 182.979 259.548 183.063C260.326 183.739 260.887 184.629 261.162 185.622C261.438 186.614 261.415 187.666 261.096 188.646C260.362 191.171 257.436 193.894 257.311 194.032L257.187 194.176ZM250.403 189.472L257.095 193.363C257.751 192.707 259.935 190.456 260.526 188.443C260.81 187.589 260.837 186.671 260.603 185.802C260.37 184.933 259.887 184.152 259.214 183.555C259.109 183.477 259.05 183.483 259.023 183.49C258.669 183.555 258.144 184.454 257.711 185.169C257.358 185.825 256.938 186.442 256.458 187.012C255.437 187.96 254.168 188.599 252.798 188.856L250.403 189.472Z"
    fill="#333333" />
  <path d="M232.921 237.065L227.798 236.501L233.872 231.765L232.921 237.065Z" fill="white" />
  <path
    d="M233.19 237.426L226.958 236.77L234.345 231.004L233.19 237.426ZM228.637 236.265L232.652 236.705L233.393 232.552L228.637 236.265Z"
    fill="#333333" />
  <path
    d="M235.768 188.305L235.558 192.306C235.558 192.306 231.452 209.041 231.662 209.658C231.871 210.274 231.353 227.927 231.76 229.994C232.167 232.06 232.895 237.078 232.895 237.078C232.895 237.078 238.536 236.875 241.101 235.537C243.22 234.293 245.214 232.85 247.058 231.227L245.005 223.224C246.23 222.398 247.221 221.268 247.878 219.944C248.454 218.63 248.868 217.251 249.111 215.837L250.751 215.325C250.751 215.325 252.909 216.454 253.933 215.424C254.956 214.394 254.143 212.964 253.834 212.242C253.526 211.521 252.398 208.962 252.398 208.962C252.398 208.962 253.631 210.812 254.858 210.609C256.084 210.405 256.399 210.504 256.504 209.684C256.451 208.64 256.277 207.605 255.986 206.601C255.986 206.601 258.348 207.526 259.266 206.601C259.564 206.317 259.771 205.951 259.862 205.549C259.953 205.148 259.924 204.729 259.778 204.344C259.679 204.036 256.904 197.784 256.904 197.784C256.904 197.784 262.349 199.011 262.756 199.011C263.253 198.981 263.728 198.797 264.115 198.484C264.502 198.171 264.781 197.745 264.914 197.266C265.321 195.829 260.808 194.084 257.042 191.316C253.277 188.548 249.032 187.413 247.287 187.413C245.543 187.413 236.614 186.763 235.768 188.305Z"
    fill="white" />
  <path
    d="M232.632 237.406L232.593 237.111C232.593 237.065 231.871 232.067 231.465 230.046C231.222 228.806 231.294 222.423 231.36 216.795C231.399 213.515 231.439 210.084 231.36 209.743C231.156 209.146 233.715 198.512 235.256 192.228L235.493 188.154C236.149 186.934 240.131 186.842 245.916 187.019C246.52 187.019 246.992 187.052 247.274 187.052C249.019 187.052 253.264 188.128 257.219 190.988C258.564 191.972 260.007 192.831 261.28 193.612C263.779 195.088 265.583 196.157 265.249 197.325C265.091 197.868 264.768 198.35 264.325 198.702C263.882 199.055 263.341 199.261 262.776 199.293C262.415 199.293 259.056 198.545 257.488 198.191C258.21 199.818 260.02 203.931 260.112 204.193C260.282 204.64 260.316 205.127 260.211 205.594C260.106 206.06 259.867 206.486 259.522 206.817C258.754 207.585 257.291 207.322 256.471 207.086C256.711 207.94 256.834 208.823 256.839 209.71C256.721 210.655 256.262 210.72 255.428 210.838L254.93 210.917C254.396 210.972 253.862 210.817 253.441 210.484C253.723 211.14 254.011 211.796 254.149 212.105L254.254 212.341C254.608 213.115 255.264 214.565 254.182 215.654C253.1 216.742 251.25 215.909 250.738 215.654L249.426 216.067C249.178 217.44 248.769 218.779 248.206 220.055C247.563 221.367 246.6 222.495 245.405 223.335L247.451 231.312L247.301 231.45C245.438 233.092 243.421 234.55 241.279 235.806C238.655 237.157 233.164 237.374 232.928 237.38L232.632 237.406ZM236.116 188.41L235.912 192.346C234.305 198.906 231.976 208.877 232.009 209.618C232.088 209.854 232.075 211.783 232.009 216.834C231.95 222.154 231.871 228.774 232.101 229.954C232.455 231.699 233.033 235.648 233.197 236.757C234.377 236.691 238.832 236.383 240.97 235.268C243.009 234.074 244.931 232.69 246.71 231.135L244.657 223.04L244.854 222.909C246.027 222.115 246.976 221.033 247.609 219.767C248.168 218.478 248.573 217.129 248.816 215.745V215.542L250.784 214.932L250.902 214.991C251.447 215.273 253.001 215.857 253.703 215.155C254.405 214.453 254.057 213.495 253.644 212.577L253.533 212.334C253.224 211.613 252.096 209.054 252.096 209.054L252.667 208.739C252.982 209.198 253.979 210.373 254.805 210.235L255.323 210.156C256.124 210.045 256.124 210.045 256.176 209.599C256.131 208.598 255.961 207.606 255.671 206.647L255.501 205.991L256.111 206.227C256.708 206.463 258.413 206.929 259.043 206.299C259.3 206.059 259.478 205.747 259.555 205.405C259.633 205.062 259.605 204.704 259.476 204.377C259.397 204.141 257.718 200.336 256.616 197.817L256.347 197.22L257.003 197.364C259.069 197.83 262.461 198.578 262.789 198.591C263.212 198.557 263.616 198.395 263.944 198.125C264.272 197.855 264.51 197.491 264.626 197.082C264.816 196.426 262.94 195.285 260.952 194.11C259.64 193.343 258.21 192.484 256.839 191.486C253.218 188.862 249.072 187.649 247.281 187.649C246.992 187.649 246.513 187.649 245.903 187.61C243.64 187.616 236.896 187.36 236.116 188.41Z"
    fill="#333333" />
  <path
    d="M256.019 197.39C254.976 196.577 252.083 194.399 251.302 194.163C250.646 193.966 244.742 193.29 241.18 192.851C239.461 192.654 238.641 192.562 238.254 192.47C237.907 192.392 237.913 192.306 237.92 192.155V191.847H238.235V192.136L238.3 191.854C238.431 191.854 239.73 192.031 241.233 192.201C246.054 192.752 250.81 193.303 251.473 193.513C252.522 193.828 256.012 196.544 256.406 196.852L256.019 197.39Z"
    fill="#333333" />
  <path
    d="M255.737 206.745C254.366 204.482 251.925 200.789 251.184 200.52C250.312 200.205 241.771 198.716 237.408 197.968L237.513 197.312C238.038 197.397 250.285 199.477 251.433 199.89C252.581 200.303 255.711 205.387 256.321 206.397L255.737 206.745Z"
    fill="#333333" />
  <path
    d="M251.512 208.674C250.658 207.905 249.721 207.234 248.718 206.673C247.852 206.273 240.052 204.429 236.05 203.511L236.201 202.855C236.673 202.967 247.845 205.538 248.993 206.063C250.053 206.651 251.044 207.357 251.945 208.169L251.512 208.674Z"
    fill="#333333" />
  <path
    d="M249.944 214.722L246.441 211.521L239.901 211.324L238.353 212.485L237.959 211.96L239.691 210.661L246.704 210.871L250.384 214.237L249.944 214.722Z"
    fill="#333333" />
  <path
    d="M227.798 236.501L228.985 241.395C228.985 241.395 231.799 242.136 237.428 239.912C241.403 238.207 245.178 236.069 248.685 233.536L248.239 229.98C248.239 229.98 238.464 237.098 227.798 236.501Z"
    fill="white" />
  <path
    d="M230.336 241.841C229.854 241.854 229.372 241.81 228.9 241.71L228.71 241.657L227.398 236.153H227.844C238.267 236.731 247.976 229.764 248.075 229.692L248.521 229.37L249.059 233.667L248.901 233.779C248.849 233.818 243.174 237.977 237.572 240.188C235.285 241.187 232.831 241.748 230.336 241.841ZM229.254 241.106C229.956 241.218 232.665 241.441 237.303 239.604C241.196 237.94 244.896 235.857 248.337 233.392L247.983 230.558C245.956 231.909 237.408 237.17 228.218 236.849L229.254 241.106Z"
    fill="#333333" />
  <path
    d="M248.98 232.355C248.98 232.355 241.574 237.098 236.24 238.725C232.668 239.751 228.986 240.348 225.272 240.503C225.272 240.503 231.793 270.429 233.866 275.021C235.939 279.613 239.284 292.799 239.284 292.799H276.676C276.676 292.799 254.458 249.838 253.716 246.577C252.975 243.317 248.98 232.355 248.98 232.355Z"
    fill="#333333" />
  <path
    d="M276.683 293.127H239.048L238.983 292.878C238.983 292.747 235.624 279.666 233.584 275.166C231.543 270.666 225.239 241.808 224.97 240.588L224.885 240.201H225.285C228.965 240.043 232.614 239.45 236.155 238.436C241.403 236.842 248.744 232.152 248.816 232.106L249.164 231.883L249.301 232.27C249.465 232.716 253.316 243.291 254.051 246.532C254.786 249.772 276.762 292.242 277.011 292.675L277.26 293.153L276.683 293.127ZM239.547 292.471H276.145C273.58 287.512 254.11 249.766 253.401 246.65C252.745 243.789 249.524 234.842 248.809 232.874C247.281 233.825 240.996 237.636 236.345 239.06C232.873 240.052 229.299 240.649 225.692 240.837C226.459 244.334 232.252 270.672 234.174 274.904C236.096 279.135 239.048 290.608 239.547 292.471Z"
    fill="#333333" />
  <path
    d="M264.16 121.36C264.16 121.36 257.154 137.649 258.026 139.728C258.899 141.808 262.408 145.16 260.834 147.436C259.259 149.712 250.148 157.243 251.899 161.101C253.651 164.958 258.203 165.128 258.203 165.128C258.203 165.128 257.331 170.206 258.551 171.433L259.778 172.659C259.778 172.659 259.778 175.283 260.657 176.51C261.536 177.737 263.806 178.786 263.806 178.786C263.806 178.786 259.43 185.268 260.302 187.367C261.175 189.466 271.166 192.799 275.39 193.848C279.615 194.898 287.12 193.5 287.12 193.5L289.226 203.996L328.979 180.702L322.852 165.115C322.852 165.115 333.348 155.656 333.886 141.467C334.424 127.277 330.029 113.974 322.15 109.244C314.272 104.514 303.585 105.393 303.585 105.393C301.608 103.359 299.081 101.944 296.313 101.322C293.545 100.7 290.656 100.898 287.999 101.89C278.342 105.223 264.16 121.36 264.16 121.36Z"
    fill="white" />
  <path
    d="M288.97 204.515L286.844 193.874C285.342 194.13 279.071 195.108 275.286 194.163C271.71 193.264 261.004 189.886 260.001 187.492C259.168 185.491 262.389 180.341 263.327 178.911C262.206 178.38 261.206 177.625 260.388 176.694C259.574 175.552 259.469 173.361 259.456 172.758L258.321 171.623C257.167 170.468 257.665 166.637 257.823 165.384C256.668 165.253 253.139 164.577 251.597 161.192C250.2 158.109 255.054 153.078 258.262 149.745C259.08 148.95 259.846 148.104 260.558 147.213C261.549 145.783 260.198 143.763 259.004 141.965C258.514 141.287 258.086 140.567 257.724 139.813C256.826 137.642 263.136 122.843 263.858 121.163L263.91 121.078C264.494 120.422 278.264 104.862 287.868 101.542C290.564 100.556 293.485 100.359 296.289 100.975C299.093 101.591 301.662 102.994 303.697 105.019C305.068 104.934 314.947 104.514 322.301 108.955C329.963 113.547 334.765 126.621 334.194 141.473C333.702 154.646 324.577 163.889 323.219 165.194L329.366 180.833L329.123 180.977L288.97 204.515ZM287.362 193.113L289.435 203.485L328.553 180.564L322.445 165.03L322.609 164.873C322.714 164.781 333.02 155.341 333.538 141.467C334.076 126.844 329.425 114.013 321.96 109.532C314.265 104.94 303.697 105.715 303.592 105.721H303.428L303.336 105.616C301.391 103.648 298.921 102.281 296.22 101.677C293.519 101.073 290.702 101.259 288.104 102.212C278.92 105.393 265.242 120.639 264.488 121.518C261.798 127.769 257.777 138.173 258.38 139.604C258.727 140.319 259.133 141.003 259.594 141.65C260.906 143.618 262.389 145.829 261.149 147.626C260.412 148.547 259.622 149.424 258.781 150.25C255.881 153.255 251.027 158.286 252.221 160.969C253.874 164.597 258.197 164.8 258.243 164.807H258.617L258.551 165.174C258.321 166.539 257.895 170.285 258.813 171.19L260.125 172.502V172.64C260.125 172.64 260.125 175.172 260.945 176.3C261.765 177.428 263.943 178.458 263.963 178.472L264.317 178.629L264.101 178.95C262.907 180.715 259.968 185.635 260.63 187.223C261.405 189.086 270.838 192.352 275.469 193.514C279.556 194.53 286.989 193.173 287.061 193.159L287.362 193.113Z"
    fill="#333333" />
  <path
    d="M261.004 139.551C261.004 139.551 261.004 141.473 263.281 140.601C265.557 139.728 266.784 138.147 268.529 138.495C270.274 138.843 272.557 139.722 271.153 137.275C269.749 134.828 266.423 135.871 264.494 136.743C263.16 137.444 261.974 138.398 261.004 139.551Z"
    fill="#333333" />
  <path
    d="M262.238 141.158C261.921 141.168 261.609 141.078 261.346 140.902C261.142 140.74 260.978 140.535 260.865 140.301C260.751 140.067 260.691 139.811 260.69 139.551V139.433L260.768 139.341C261.771 138.146 263.002 137.163 264.389 136.448C267.814 134.887 270.293 135.136 271.461 137.104C271.966 137.99 272.071 138.547 271.789 138.921C271.376 139.479 270.385 139.243 269.231 138.98L268.483 138.81C267.512 138.619 266.692 139.111 265.655 139.735C264.945 140.191 264.194 140.582 263.412 140.902C263.039 141.058 262.641 141.145 262.238 141.158ZM261.352 139.656C261.362 139.794 261.4 139.928 261.464 140.05C261.529 140.172 261.618 140.279 261.726 140.364C261.956 140.464 262.206 140.509 262.456 140.497C262.706 140.484 262.95 140.414 263.169 140.292C263.916 139.988 264.634 139.617 265.314 139.184C266.423 138.528 267.387 137.931 268.594 138.173L269.362 138.344C269.965 138.488 271.087 138.751 271.245 138.534C271.245 138.534 271.382 138.331 270.871 137.432C269.598 135.208 266.423 136.238 264.639 137.045C263.386 137.697 262.27 138.583 261.352 139.656Z"
    fill="#333333" />
  <path
    d="M265.131 154.068C264.422 154.068 263.753 153.366 263.09 151.936C262.432 150.394 261.948 148.784 261.647 147.134C261.308 145.495 261.157 143.822 261.195 142.149C261.28 140.417 261.706 139.525 262.507 139.348C263.307 139.171 264.042 139.879 264.763 141.453C265.427 143.005 265.911 144.627 266.206 146.288C266.543 147.93 266.693 149.605 266.653 151.28C266.574 153.006 266.147 153.904 265.341 154.081L265.131 154.068ZM262.769 140.706C262.48 141.263 262.264 143.428 262.94 146.885C263.615 150.342 264.612 152.271 265.085 152.684C265.373 152.127 265.583 149.962 264.914 146.505C264.245 143.041 263.241 141.119 262.769 140.706Z"
    fill="#333333" />
  <path d="M298.787 142.054L265.336 144.328L265.425 145.637L298.876 143.363L298.787 142.054Z" fill="#333333" />
  <path
    d="M260.48 167.044C260.03 166.946 259.564 166.941 259.113 167.031C258.661 167.121 258.233 167.303 257.854 167.566C257.476 167.829 257.157 168.167 256.915 168.559C256.674 168.951 256.516 169.389 256.452 169.845C256.325 170.387 256.312 170.95 256.413 171.497C256.515 172.045 256.728 172.566 257.041 173.026C257.353 173.487 257.758 173.879 258.229 174.176C258.7 174.473 259.227 174.669 259.778 174.752C260.657 174.752 262.231 173.702 265.026 174.929C267.82 176.156 270.274 177.73 270.274 180.708C270.274 183.687 269.224 185.786 266.948 185.609C264.671 185.432 263.097 181.233 261.87 181.758C260.644 182.283 257.488 187.19 259.594 190.516C261.7 193.842 275.705 200.146 280.258 199.975C284.811 199.805 301.801 185.084 304.077 179.639C306.354 174.194 303.375 171.931 302.851 170.357C302.326 168.782 297.071 155.466 297.071 151.615C297.071 147.764 299.525 139.007 304.425 138.652C309.325 138.298 312.297 148.814 310.736 152.664C309.9 154.849 308.512 156.779 306.708 158.267C306.708 158.267 305.652 169.478 308.63 171.387C311.608 173.296 319.487 175.762 323.167 175.939C326.847 176.116 328.244 176.641 330.173 172.961C332.102 169.281 328.769 167.713 329.825 165.607C330.882 163.502 339.455 153.143 340.321 142.136C341.187 131.128 338.393 122.174 333.663 115.168C328.933 108.161 318.778 101.68 315.446 101.155C313.005 100.708 310.605 100.063 308.269 99.2267C308.269 99.2267 311.943 97.6523 309.142 95.1989C306.341 92.7454 300.738 91.5187 291.626 94.497C282.515 97.4752 279.064 101.024 279.064 101.024C279.064 101.024 279.589 96.2944 274.334 98.4002C269.08 100.506 259.974 109.959 261.214 116.112C262.454 122.265 265.242 122.069 269.086 120.842C272.93 119.615 278.894 116.991 281.55 117.339C284.207 117.687 285.926 117.864 281.203 121.892C276.479 125.919 269.992 130.124 273.495 132.053C276.998 133.982 286.805 139.407 288.032 143.435C289.258 147.462 283.827 175.664 281.898 178.99C279.969 182.316 276.296 183.365 274.026 180.912C271.756 178.458 269.821 172.161 265.97 169.353C262.12 166.545 260.48 167.044 260.48 167.044Z"
    fill="#333333" />
  <path
    d="M280.081 200.303C275.141 200.303 261.398 193.973 259.325 190.686C258.249 188.981 258.525 187.019 258.938 185.674C259.594 183.628 260.906 181.81 261.752 181.456C262.598 181.102 263.281 182.001 264.127 183.024C264.973 184.047 265.918 185.202 266.987 185.287C267.305 185.323 267.627 185.29 267.931 185.192C268.235 185.093 268.515 184.931 268.752 184.717C269.532 183.995 269.959 182.571 269.959 180.708C269.959 177.835 267.532 176.379 264.901 175.231C263.578 174.598 262.064 174.488 260.663 174.922C260.375 175.01 260.078 175.063 259.778 175.08C258.666 174.931 257.655 174.357 256.957 173.479C256.546 172.968 256.258 172.369 256.115 171.729C255.972 171.088 255.977 170.424 256.13 169.786C256.203 169.28 256.378 168.795 256.646 168.359C256.913 167.924 257.267 167.548 257.685 167.254C258.518 166.749 259.504 166.556 260.466 166.709C260.893 166.618 262.592 166.506 266.102 169.058C268.516 170.809 270.162 173.86 271.618 176.543C272.327 178.006 273.196 179.385 274.21 180.656C274.599 181.101 275.091 181.445 275.643 181.658C276.195 181.871 276.791 181.945 277.378 181.876C278.266 181.719 279.106 181.359 279.832 180.824C280.557 180.289 281.15 179.594 281.563 178.793C283.531 175.434 288.812 147.305 287.664 143.5C286.464 139.564 276.512 134.1 273.285 132.302C272.977 132.168 272.708 131.957 272.505 131.689C272.302 131.422 272.171 131.106 272.124 130.774C271.953 128.884 274.912 126.497 278.342 123.741C279.208 123.039 280.107 122.318 280.934 121.609C283.453 119.464 283.866 118.625 283.768 118.329C283.669 118.034 282.541 117.811 281.55 117.673H281.452C279.602 117.424 275.869 118.775 272.583 119.969C271.35 120.415 270.188 120.835 269.165 121.163C266.876 121.885 265.052 122.193 263.596 121.334C262.284 120.56 261.405 118.92 260.86 116.184C259.548 109.736 268.89 100.243 274.197 98.1245C276.02 97.3964 277.398 97.3767 278.31 98.0655C278.634 98.3484 278.896 98.6957 279.079 99.0853C279.262 99.475 279.362 99.8984 279.372 100.329C280.684 99.2529 284.384 96.6092 291.554 94.2673C302.293 90.7511 307.338 93.2373 309.384 95.0282C310.27 95.8023 310.65 96.5895 310.526 97.3767C310.427 97.7684 310.25 98.1358 310.004 98.4562C309.758 98.7766 309.449 99.0433 309.096 99.2397C311.193 99.9572 313.343 100.514 315.525 100.906C318.844 101.431 329.143 107.919 333.958 115.062C339.206 122.862 341.482 132.007 340.669 142.241C339.961 151.241 334.207 159.723 331.439 163.797C330.816 164.715 330.324 165.443 330.127 165.83C329.747 166.591 330.055 167.287 330.435 168.166C330.98 169.406 331.656 170.947 330.475 173.191C328.651 176.681 327.195 176.582 324.236 176.405L323.167 176.346C319.421 176.169 311.451 173.67 308.466 171.754C305.357 169.74 306.347 158.778 306.393 158.313V158.162L306.511 158.076C308.271 156.623 309.626 154.741 310.447 152.612C311.53 149.988 310.388 144.346 308.151 141.257C307.377 140.187 306.104 138.934 304.471 139.052C299.82 139.387 297.419 148.059 297.419 151.687C297.419 154.816 301.007 164.453 302.542 168.566C302.857 169.432 303.093 170.048 303.198 170.324C303.351 170.71 303.547 171.077 303.782 171.419C304.766 173.02 306.255 175.441 304.438 179.836C302.018 185.602 284.896 200.172 280.33 200.356L280.081 200.303ZM262.1 182.04C262.07 182.034 262.038 182.034 262.008 182.04C261.418 182.296 260.171 183.903 259.568 185.845C259.295 186.569 259.182 187.344 259.236 188.116C259.29 188.888 259.511 189.64 259.883 190.319C261.851 193.448 275.738 199.824 280.258 199.627C284.561 199.457 301.493 184.986 303.789 179.508C305.501 175.428 304.176 173.269 303.205 171.688C302.938 171.305 302.718 170.891 302.549 170.455C302.457 170.186 302.227 169.576 301.893 168.723C300.345 164.577 296.73 154.862 296.73 151.615C296.73 147.292 299.433 138.678 304.392 138.324C305.921 138.213 307.397 139.072 308.65 140.804C310.998 144.045 312.172 149.988 311.024 152.789C310.177 154.98 308.795 156.924 307.003 158.444C306.728 161.612 306.524 169.661 308.794 171.131C311.713 173.014 319.506 175.454 323.167 175.631L324.249 175.69C327.155 175.874 328.244 175.939 329.871 172.83C330.901 170.862 330.344 169.596 329.812 168.369C329.392 167.418 328.999 166.513 329.517 165.476C329.932 164.751 330.386 164.048 330.875 163.37C333.604 159.336 339.291 150.959 339.993 142.129C340.794 132.046 338.57 123.039 333.394 115.371C328.658 108.358 318.621 102.008 315.4 101.496C312.946 101.034 310.533 100.376 308.184 99.5284L307.403 99.2463L308.164 98.9183C308.164 98.9183 309.712 98.2623 309.883 97.1865C309.968 96.642 309.653 96.0516 308.951 95.4415C306.983 93.7359 302.188 91.394 291.758 94.7855C282.83 97.7047 279.294 101.149 279.294 101.182L278.638 101.838L278.736 100.913C278.736 100.913 278.907 99.2201 277.929 98.4788C277.221 97.9343 276.053 97.9868 274.459 98.6231C269.46 100.624 260.316 109.906 261.523 115.942C262.021 118.447 262.835 119.989 263.95 120.658C265.196 121.393 266.862 121.098 268.981 120.422C269.998 120.101 271.153 119.681 272.379 119.241C275.902 117.962 279.55 116.617 281.563 116.906H281.655C283.072 117.096 284.187 117.247 284.417 118.028C284.647 118.808 283.761 119.996 281.38 122.023C280.54 122.738 279.641 123.466 278.756 124.168C275.751 126.588 272.648 129.088 272.78 130.629C272.82 130.855 272.918 131.066 273.062 131.244C273.207 131.422 273.394 131.56 273.606 131.646C276.926 133.47 287.021 139.02 288.301 143.218C289.613 147.554 283.945 175.913 282.141 179.036C281.676 179.925 281.012 180.695 280.201 181.286C279.389 181.876 278.453 182.271 277.463 182.44C276.773 182.519 276.073 182.431 275.424 182.183C274.774 181.935 274.194 181.535 273.731 181.017C272.681 179.706 271.781 178.283 271.048 176.772C269.631 174.148 268.017 171.17 265.721 169.504C262.12 166.88 260.598 167.274 260.585 167.274H260.506H260.421C259.605 167.134 258.766 167.287 258.052 167.706C257.696 167.963 257.397 168.291 257.174 168.669C256.952 169.047 256.811 169.468 256.76 169.904C256.625 170.448 256.617 171.016 256.738 171.563C256.858 172.111 257.104 172.623 257.455 173.059C258.033 173.78 258.854 174.263 259.765 174.417C260.011 174.397 260.255 174.35 260.493 174.28C262.033 173.805 263.695 173.927 265.15 174.621C267.846 175.802 270.602 177.442 270.602 180.702C270.602 182.781 270.11 184.336 269.185 185.195C268.882 185.472 268.523 185.681 268.133 185.808C267.742 185.935 267.329 185.976 266.922 185.93C265.57 185.825 264.527 184.559 263.642 183.437C263.077 182.781 262.467 182.04 262.1 182.04Z"
    fill="#333333" />
  <path
    d="M302.024 159.67V159.014C303.59 158.75 305.14 158.402 306.669 157.971L306.833 158.627C305.249 159.057 303.644 159.406 302.024 159.67Z"
    fill="#333333" />
  <path
    d="M283.715 209.428C283.715 209.428 275.896 215.785 274.794 218.468C273.691 221.151 273.941 226.287 273.941 226.779C273.941 227.271 267.951 231.784 265.872 237.898C263.792 244.012 263.674 251.583 263.674 251.583L277.234 226.897L284.968 211.232L283.715 209.428Z"
    fill="white" />
  <path
    d="M263.32 252.895V251.583C263.32 251.504 263.464 243.881 265.537 237.807C267.105 233.215 270.858 229.482 272.655 227.698C272.98 227.393 273.289 227.071 273.58 226.733V226.55C273.488 222.778 273.783 220.022 274.466 218.356C275.581 215.627 283.158 209.448 283.479 209.172L283.761 208.949L285.283 211.239L277.529 227.042L263.32 252.895ZM283.656 209.92C282.259 211.075 276.053 216.303 275.128 218.599C274.689 219.688 274.183 221.938 274.295 226.53V226.786C274.295 227.035 274.098 227.238 273.173 228.157C271.402 229.908 267.728 233.549 266.213 237.997C264.698 242.445 264.245 247.725 264.088 250.185L276.978 226.733L284.581 211.278L283.656 209.92Z"
    fill="#333333" />
  <path
    d="M316.351 183.162C316.351 183.162 282.023 202.252 282.547 204.698C283.072 207.145 285.001 214.335 285.001 214.335C285.001 214.335 311.969 192.969 316.876 190.339C321.783 187.708 332.115 183.857 332.115 183.857C332.115 183.857 330.186 178.78 329.661 178.255C329.137 177.73 320.202 181.581 316.351 183.162Z"
    fill="white" />
  <path
    d="M284.811 214.899L284.686 214.42C284.686 214.348 282.751 207.204 282.226 204.77C282.115 204.239 281.852 203.006 299.085 192.726C307.508 187.708 316.102 182.886 316.194 182.886L318.339 182.001C327.615 178.143 329.419 177.612 329.858 178.065C330.409 178.609 332.062 182.926 332.39 183.785L332.502 184.093L332.194 184.205C332.089 184.244 321.829 188.082 317.001 190.666C312.172 193.251 285.44 214.414 285.171 214.63L284.811 214.899ZM316.495 183.457C300.214 192.51 282.902 203.012 282.869 204.639C283.308 206.679 284.752 212.118 285.191 213.764C288.655 211.029 312.087 192.516 316.719 190.05C321.114 187.695 329.93 184.336 331.688 183.667C331.061 181.908 330.318 180.192 329.465 178.53H329.425C328.349 178.53 322.052 181.154 318.627 182.571L316.495 183.457Z"
    fill="#333333" />
  <path
    d="M286.575 207.506L259.082 259.868L239.291 292.799H357.856C357.856 292.799 356.984 265.477 355.232 248.139C353.481 230.801 340.728 196.997 338.065 193.52C335.401 190.043 334.739 188.272 334.739 188.272C334.739 188.272 334.214 182.663 332.285 181.791C330.357 180.918 311.274 187.36 286.575 207.506Z"
    fill="#333333" />
  <path
    d="M358.197 293.127H238.707L258.8 259.704L286.319 207.296L286.372 207.257C310.506 187.577 330.035 180.361 332.423 181.463C334.391 182.368 334.982 187.367 335.047 188.161C335.956 189.986 337.056 191.71 338.327 193.304C341.036 196.912 353.822 230.945 355.56 248.112C357.299 265.28 358.184 292.517 358.184 292.793L358.197 293.127ZM239.868 292.471H357.522C357.41 289.27 356.531 264.263 354.898 248.171C353.172 231.115 340.466 197.266 337.796 193.691C335.126 190.115 334.457 188.443 334.43 188.357V188.266C334.293 186.763 333.61 182.709 332.174 182.053C330.422 181.259 311.575 187.57 286.857 207.716L259.384 260.025L239.868 292.471Z"
    fill="#333333" />
  <path
    d="M384.247 127.001C410.039 127.001 430.948 106.093 430.948 80.3007C430.948 54.5087 410.039 33.6001 384.247 33.6001C358.455 33.6001 337.547 54.5087 337.547 80.3007C337.547 106.093 358.455 127.001 384.247 127.001Z"
    fill="#333333" />
  <path
    d="M384.247 127.33C374.945 127.333 365.85 124.579 358.114 119.413C350.378 114.248 344.347 106.905 340.784 98.3116C337.222 89.7186 336.288 80.2621 338.1 71.1381C339.912 62.0142 344.39 53.6326 350.966 47.0536C357.543 40.4745 365.922 35.9935 375.045 34.1773C384.169 32.3611 393.625 33.2913 402.22 36.8502C410.814 40.4091 418.161 46.4369 423.329 54.1711C428.497 61.9054 431.256 70.9987 431.256 80.3009C431.242 92.766 426.286 104.717 417.473 113.533C408.661 122.349 396.712 127.31 384.247 127.33ZM384.247 33.9282C375.075 33.9243 366.107 36.6407 358.479 41.7339C350.85 46.827 344.903 54.068 341.39 62.5412C337.878 71.0143 336.956 80.339 338.743 89.3357C340.531 98.3324 344.946 106.597 351.43 113.084C357.915 119.572 366.177 123.99 375.173 125.781C384.169 127.572 393.494 126.655 401.969 123.145C410.444 119.636 417.687 113.693 422.784 106.066C427.88 98.4398 430.6 89.4734 430.6 80.3009C430.586 68.0098 425.699 56.2257 417.01 47.5327C408.32 38.8398 396.538 33.9473 384.247 33.9282Z"
    fill="#333333" />
  <path
    d="M351.624 123.426C355.204 123.426 358.106 120.624 358.106 117.168C358.106 113.712 355.204 110.91 351.624 110.91C348.045 110.91 345.143 113.712 345.143 117.168C345.143 120.624 348.045 123.426 351.624 123.426Z"
    fill="#333333" />
  <path
    d="M351.624 123.754C350.339 123.705 349.096 123.279 348.05 122.53C347.005 121.78 346.203 120.739 345.744 119.537C345.286 118.335 345.191 117.024 345.471 115.768C345.752 114.513 346.396 113.367 347.322 112.475C348.249 111.582 349.417 110.981 350.683 110.748C351.948 110.514 353.254 110.658 354.438 111.161C355.622 111.664 356.633 112.504 357.343 113.577C358.053 114.65 358.433 115.908 358.434 117.194C358.394 118.965 357.656 120.648 356.38 121.877C355.105 123.106 353.395 123.781 351.624 123.754ZM351.624 111.238C350.468 111.287 349.352 111.674 348.415 112.352C347.477 113.029 346.76 113.968 346.351 115.05C345.942 116.132 345.86 117.31 346.115 118.439C346.37 119.567 346.951 120.596 347.786 121.397C348.621 122.198 349.672 122.736 350.81 122.944C351.948 123.152 353.122 123.022 354.187 122.568C355.251 122.115 356.159 121.359 356.797 120.394C357.436 119.43 357.777 118.299 357.778 117.142C357.738 115.545 357.069 114.029 355.917 112.923C354.764 111.817 353.221 111.211 351.624 111.238Z"
    fill="#333333" />
  <path
    d="M346.671 125.171C346.704 126.103 346.458 127.023 345.964 127.813C345.471 128.603 344.752 129.228 343.901 129.608C343.049 129.987 342.104 130.103 341.186 129.942C340.269 129.78 339.42 129.348 338.749 128.701C338.079 128.054 337.617 127.221 337.422 126.31C337.228 125.398 337.311 124.45 337.66 123.585C338.008 122.721 338.607 121.981 339.379 121.459C340.152 120.938 341.062 120.659 341.994 120.658C342.598 120.647 343.198 120.755 343.76 120.975C344.321 121.196 344.834 121.526 345.269 121.945C345.703 122.364 346.051 122.865 346.291 123.418C346.532 123.972 346.661 124.568 346.671 125.171Z"
    fill="#333333" />
  <path
    d="M341.994 130.006C341.044 129.974 340.124 129.663 339.35 129.111C338.576 128.56 337.981 127.792 337.639 126.905C337.298 126.018 337.226 125.049 337.431 124.121C337.637 123.193 338.111 122.346 338.795 121.685C339.479 121.025 340.342 120.58 341.276 120.407C342.211 120.234 343.176 120.34 344.051 120.712C344.926 121.083 345.672 121.705 346.197 122.498C346.721 123.291 347 124.221 346.999 125.171C346.988 125.817 346.85 126.455 346.593 127.048C346.335 127.64 345.963 128.176 345.498 128.625C345.034 129.074 344.485 129.427 343.884 129.664C343.282 129.901 342.64 130.017 341.994 130.006ZM341.994 120.986C341.174 121.018 340.382 121.291 339.715 121.77C339.049 122.249 338.538 122.913 338.246 123.68C337.955 124.447 337.895 125.283 338.074 126.084C338.254 126.884 338.665 127.615 339.256 128.184C339.847 128.753 340.593 129.135 341.4 129.284C342.207 129.433 343.04 129.341 343.795 129.02C344.551 128.699 345.195 128.163 345.648 127.479C346.101 126.794 346.343 125.992 346.343 125.171C346.321 124.04 345.85 122.963 345.035 122.179C344.219 121.394 343.126 120.965 341.994 120.986Z"
    fill="#333333" />
  <path
    d="M382.456 123.872C408.248 123.872 429.157 102.964 429.157 77.1718C429.157 51.3798 408.248 30.4712 382.456 30.4712C356.664 30.4712 335.756 51.3798 335.756 77.1718C335.756 102.964 356.664 123.872 382.456 123.872Z"
    fill="white" />
  <path
    d="M382.456 124.2C373.155 124.2 364.062 121.442 356.329 116.275C348.595 111.107 342.567 103.762 339.007 95.1688C335.448 86.5754 334.517 77.1196 336.331 67.9969C338.146 58.8742 342.625 50.4945 349.202 43.9175C355.779 37.3404 364.159 32.8613 373.281 31.0467C382.404 29.2321 391.86 30.1634 400.453 33.7229C409.047 37.2824 416.392 43.3102 421.559 51.044C426.727 58.7778 429.485 67.8703 429.485 77.1717C429.471 89.6402 424.512 101.594 415.695 110.411C406.879 119.227 394.925 124.186 382.456 124.2ZM382.456 30.7991C373.285 30.7991 364.319 33.5188 356.693 38.6143C349.067 43.7098 343.123 50.9522 339.614 59.4257C336.104 67.8992 335.185 77.2232 336.975 86.2186C338.764 95.214 343.181 103.477 349.666 109.962C356.151 116.447 364.414 120.864 373.409 122.653C382.405 124.443 391.729 123.524 400.202 120.014C408.676 116.505 415.918 110.561 421.014 102.935C426.109 95.309 428.829 86.3434 428.829 77.1717C428.806 64.8829 423.912 53.1043 415.22 44.4178C406.527 35.7314 394.745 30.8458 382.456 30.8319V30.7991Z"
    fill="#333333" />
  <path
    d="M349.833 120.297C353.413 120.297 356.315 117.495 356.315 114.039C356.315 110.583 353.413 107.781 349.833 107.781C346.254 107.781 343.352 110.583 343.352 114.039C343.352 117.495 346.254 120.297 349.833 120.297Z"
    fill="white" />
  <path
    d="M349.833 120.625C348.548 120.576 347.305 120.15 346.259 119.401C345.214 118.651 344.412 117.61 343.953 116.408C343.495 115.206 343.4 113.895 343.681 112.639C343.961 111.384 344.605 110.238 345.531 109.346C346.458 108.453 347.627 107.853 348.892 107.619C350.157 107.385 351.463 107.529 352.647 108.032C353.832 108.535 354.842 109.375 355.552 110.448C356.262 111.521 356.642 112.779 356.643 114.065C356.605 115.837 355.867 117.521 354.591 118.75C353.315 119.979 351.605 120.653 349.833 120.625ZM349.833 108.109C348.678 108.158 347.562 108.545 346.624 109.223C345.686 109.9 344.969 110.839 344.56 111.921C344.151 113.003 344.069 114.181 344.324 115.31C344.579 116.438 345.16 117.467 345.995 118.268C346.83 119.069 347.882 119.607 349.019 119.815C350.157 120.023 351.332 119.893 352.396 119.44C353.46 118.986 354.368 118.23 355.006 117.266C355.645 116.301 355.986 115.17 355.987 114.013C355.949 112.415 355.28 110.898 354.128 109.792C352.975 108.686 351.431 108.081 349.833 108.109Z"
    fill="#333333" />
  <path
    d="M344.881 122.016C344.913 122.948 344.667 123.868 344.173 124.658C343.679 125.449 342.96 126.074 342.108 126.453C341.257 126.832 340.311 126.948 339.393 126.786C338.475 126.624 337.626 126.191 336.956 125.543C336.286 124.896 335.824 124.062 335.631 123.15C335.437 122.238 335.521 121.29 335.87 120.425C336.22 119.561 336.82 118.821 337.593 118.301C338.366 117.78 339.278 117.502 340.21 117.503C340.813 117.492 341.412 117.601 341.973 117.822C342.534 118.043 343.046 118.373 343.48 118.792C343.914 119.211 344.261 119.711 344.501 120.265C344.741 120.818 344.87 121.413 344.881 122.016Z"
    fill="white" />
  <path
    d="M340.21 126.883C339.26 126.852 338.34 126.542 337.564 125.992C336.789 125.442 336.193 124.675 335.851 123.788C335.508 122.901 335.435 121.933 335.639 121.005C335.843 120.076 336.316 119.228 336.999 118.567C337.682 117.906 338.545 117.46 339.479 117.286C340.414 117.111 341.379 117.216 342.254 117.586C343.13 117.957 343.877 118.577 344.402 119.369C344.928 120.162 345.208 121.091 345.209 122.042C345.186 123.346 344.647 124.589 343.71 125.496C342.773 126.404 341.514 126.903 340.21 126.883ZM340.21 117.857C339.389 117.888 338.596 118.159 337.929 118.637C337.262 119.116 336.75 119.78 336.457 120.547C336.164 121.313 336.104 122.15 336.283 122.951C336.461 123.752 336.872 124.483 337.463 125.053C338.054 125.622 338.8 126.006 339.607 126.155C340.414 126.304 341.248 126.212 342.003 125.891C342.759 125.571 343.403 125.035 343.857 124.35C344.31 123.666 344.552 122.863 344.553 122.042C344.53 120.912 344.06 119.836 343.246 119.052C342.432 118.267 341.34 117.837 340.21 117.857Z"
    fill="#333333" />
  <path
    d="M402.392 70.6578C402.394 67.4889 401.633 64.3661 400.173 61.5537C398.712 58.7413 396.596 56.3222 394.002 54.501C391.409 52.6799 388.415 51.5103 385.274 51.0914C382.133 50.6724 378.937 51.0164 375.957 52.0942C372.977 53.1719 370.301 54.9518 368.154 57.2831C366.008 59.6144 364.455 62.4285 363.626 65.4872C362.798 68.5459 362.718 71.7592 363.395 74.8551C364.071 77.951 365.484 80.8383 367.513 83.2727C370.415 86.7599 372.005 91.1535 372.006 95.6908V98.4H393.326V95.6973C393.323 91.1726 394.906 86.79 397.8 83.312C400.777 79.7683 402.403 75.2857 402.392 70.6578Z"
    fill="white" />
  <path
    d="M393.32 98.7216H372C371.913 98.7216 371.829 98.687 371.768 98.6255C371.706 98.564 371.672 98.4806 371.672 98.3936V95.6909C371.669 91.232 370.104 86.915 367.25 83.4893C364.811 80.5597 363.257 76.9958 362.77 73.2149C362.283 69.4339 362.884 65.5925 364.501 62.1406C366.119 58.6887 368.687 55.7692 371.904 53.724C375.121 51.6787 378.854 50.5925 382.666 50.5925C386.478 50.5925 390.212 51.6787 393.429 53.724C396.646 55.7692 399.213 58.6887 400.831 62.1406C402.449 65.5925 403.049 69.4339 402.562 73.2149C402.076 76.9958 400.521 80.5597 398.082 83.4893C395.233 86.9143 393.673 91.2291 393.674 95.6843V98.4002C393.673 98.445 393.663 98.4892 393.645 98.53C393.626 98.5708 393.599 98.6074 393.566 98.6376C393.533 98.6677 393.494 98.6907 393.452 98.7051C393.409 98.7196 393.364 98.7252 393.32 98.7216ZM372.328 98.0656H392.992V95.6909C392.996 91.0777 394.622 86.6128 397.584 83.076C400.758 79.2692 402.355 74.3912 402.045 69.444C401.735 64.4967 399.542 59.856 395.917 56.4752C393.975 54.6455 391.673 53.2408 389.158 52.3507C386.642 51.4607 383.969 51.1048 381.308 51.3059C377.748 51.5581 374.326 52.788 371.42 54.8601C368.514 56.9322 366.237 59.7661 364.838 63.0498C363.439 66.3334 362.974 69.9394 363.493 73.4706C364.013 77.0017 365.497 80.321 367.782 83.0629C370.74 86.6065 372.365 91.0743 372.374 95.6909L372.328 98.0656Z"
    fill="#333333" />
  <path d="M393.326 98.3936H372V103.668H393.326V98.3936Z" fill="white" />
  <path
    d="M393.32 104.002H372C371.913 104.002 371.829 103.968 371.768 103.906C371.706 103.845 371.672 103.761 371.672 103.674V98.4264C371.672 98.3394 371.706 98.256 371.768 98.1945C371.829 98.133 371.913 98.0984 372 98.0984H393.32C393.407 98.0984 393.49 98.133 393.552 98.1945C393.613 98.256 393.648 98.3394 393.648 98.4264V103.674C393.648 103.761 393.613 103.845 393.552 103.906C393.49 103.968 393.407 104.002 393.32 104.002ZM372.328 103.346H392.992V98.7544H372.328V103.346Z"
    fill="#333333" />
  <path
    d="M372 103.688H393.326V105.865C393.326 106.273 393.246 106.676 393.09 107.053C392.934 107.429 392.705 107.771 392.417 108.059C392.129 108.348 391.787 108.576 391.411 108.732C391.034 108.888 390.631 108.968 390.223 108.968H375.096C374.273 108.968 373.484 108.641 372.902 108.059C372.32 107.478 371.993 106.688 371.993 105.865V103.688H372Z"
    fill="white" />
  <path
    d="M390.223 109.29H375.096C374.187 109.288 373.316 108.926 372.674 108.282C372.032 107.639 371.672 106.768 371.672 105.859V103.687C371.672 103.6 371.706 103.517 371.768 103.455C371.829 103.394 371.913 103.359 372 103.359H393.32C393.407 103.359 393.49 103.394 393.552 103.455C393.613 103.517 393.648 103.6 393.648 103.687V105.859C393.648 106.768 393.287 107.639 392.645 108.282C392.003 108.926 391.132 109.288 390.223 109.29ZM372.328 104.042V105.885C372.328 106.62 372.619 107.325 373.138 107.845C373.657 108.365 374.361 108.658 375.096 108.66H390.223C390.958 108.658 391.662 108.365 392.181 107.845C392.7 107.325 392.992 106.62 392.992 105.885V104.042H372.328Z"
    fill="#333333" />
  <path
    d="M374.689 108.955H390.63V110.024C390.63 110.577 390.521 111.123 390.31 111.634C390.099 112.144 389.789 112.607 389.398 112.998C389.008 113.388 388.544 113.698 388.034 113.909C387.524 114.121 386.977 114.229 386.425 114.229H378.894C377.779 114.229 376.709 113.786 375.921 112.998C375.132 112.209 374.689 111.14 374.689 110.024V108.955Z"
    fill="#333333" />
  <path
    d="M386.425 114.557H378.894C377.692 114.556 376.541 114.078 375.691 113.228C374.841 112.378 374.363 111.226 374.361 110.024V108.627H390.958V110.024C390.956 111.226 390.478 112.378 389.628 113.228C388.779 114.078 387.627 114.556 386.425 114.557ZM375.017 109.309V110.051C375.019 111.078 375.428 112.064 376.155 112.79C376.881 113.517 377.866 113.926 378.894 113.928H386.425C387.453 113.926 388.438 113.517 389.165 112.79C389.891 112.064 390.3 111.078 390.302 110.051V109.309H375.017Z"
    fill="#333333" />
  <path
    d="M414.2 71.0908H405.187C405.1 71.0908 405.016 71.0563 404.955 70.9947C404.893 70.9332 404.859 70.8498 404.859 70.7628C404.859 70.6758 404.893 70.5924 404.955 70.5309C405.016 70.4694 405.1 70.4348 405.187 70.4348H414.2C414.287 70.4348 414.37 70.4694 414.432 70.5309C414.494 70.5924 414.528 70.6758 414.528 70.7628C414.528 70.8498 414.494 70.9332 414.432 70.9947C414.37 71.0563 414.287 71.0908 414.2 71.0908Z"
    fill="#333333" />
  <path
    d="M359.404 71.0908H350.22C350.133 71.0908 350.05 71.0563 349.988 70.9947C349.927 70.9332 349.892 70.8498 349.892 70.7628C349.892 70.6758 349.927 70.5924 349.988 70.5309C350.05 70.4694 350.133 70.4348 350.22 70.4348H359.404C359.491 70.4348 359.575 70.4694 359.636 70.5309C359.698 70.5924 359.732 70.6758 359.732 70.7628C359.731 70.8493 359.696 70.9317 359.634 70.9929C359.573 71.054 359.491 71.0891 359.404 71.0908Z"
    fill="#333333" />
  <path
    d="M382.233 48.1636C382.146 48.1636 382.063 48.129 382.001 48.0675C381.94 48.006 381.905 47.9226 381.905 47.8356V38.7762C381.905 38.6893 381.94 38.6058 382.001 38.5443C382.063 38.4828 382.146 38.4482 382.233 38.4482C382.32 38.4482 382.404 38.4828 382.465 38.5443C382.527 38.6058 382.561 38.6893 382.561 38.7762V47.8356C382.561 47.9226 382.527 48.006 382.465 48.0675C382.404 48.129 382.32 48.1636 382.233 48.1636Z"
    fill="#333333" />
  <path
    d="M398.614 54.7106C398.571 54.7103 398.528 54.7015 398.489 54.6846C398.449 54.6677 398.414 54.6431 398.384 54.6122C398.353 54.5817 398.329 54.5454 398.312 54.5055C398.295 54.4655 398.287 54.4226 398.287 54.3793C398.287 54.336 398.295 54.2931 398.312 54.2532C398.329 54.2132 398.353 54.1769 398.384 54.1464L404.622 47.8882C404.684 47.8281 404.766 47.7944 404.852 47.7944C404.938 47.7944 405.02 47.8281 405.082 47.8882C405.112 47.9187 405.137 47.955 405.153 47.9949C405.17 48.0349 405.179 48.0778 405.179 48.1211C405.179 48.1644 405.17 48.2072 405.153 48.2472C405.137 48.2872 405.112 48.3235 405.082 48.354L398.85 54.5925C398.82 54.6272 398.784 54.6555 398.744 54.6758C398.703 54.6961 398.659 54.708 398.614 54.7106Z"
    fill="#333333" />
  <path
    d="M359.621 93.7032C359.534 93.7028 359.449 93.6701 359.385 93.6114C359.324 93.549 359.29 93.4654 359.29 93.3785C359.29 93.2916 359.324 93.208 359.385 93.1456L365.715 86.8152C365.746 86.7846 365.782 86.7604 365.822 86.7438C365.862 86.7273 365.905 86.7188 365.948 86.7188C365.991 86.7188 366.034 86.7273 366.074 86.7438C366.114 86.7604 366.15 86.7846 366.181 86.8152C366.211 86.8458 366.236 86.8821 366.252 86.9221C366.269 86.962 366.277 87.0049 366.277 87.0481C366.277 87.0914 366.269 87.1342 366.252 87.1741C366.236 87.2141 366.211 87.2504 366.181 87.281L359.85 93.6114C359.787 93.6686 359.706 93.7012 359.621 93.7032Z"
    fill="#333333" />
  <path
    d="M365.656 54.5268C365.57 54.5273 365.488 54.4943 365.426 54.4349L359.365 48.3735C359.303 48.3117 359.269 48.228 359.269 48.1406C359.269 48.0533 359.303 47.9695 359.365 47.9077C359.427 47.846 359.511 47.8113 359.598 47.8113C359.685 47.8113 359.769 47.846 359.831 47.9077L365.886 53.9692C365.931 54.015 365.961 54.0731 365.973 54.1361C365.986 54.1991 365.979 54.2643 365.955 54.3237C365.93 54.3831 365.889 54.434 365.836 54.4701C365.783 54.5062 365.72 54.5259 365.656 54.5268Z"
    fill="#333333" />
  <path
    d="M404.852 93.7032C404.767 93.7024 404.685 93.6696 404.622 93.6113L398.587 87.5761C398.557 87.5456 398.532 87.5092 398.516 87.4693C398.499 87.4293 398.491 87.3865 398.491 87.3433C398.491 87.3 398.499 87.2572 398.516 87.2172C398.532 87.1773 398.557 87.141 398.587 87.1104C398.618 87.0798 398.654 87.0555 398.694 87.039C398.734 87.0224 398.777 87.0139 398.82 87.0139C398.863 87.0139 398.906 87.0224 398.946 87.039C398.986 87.0555 399.022 87.0798 399.053 87.1104L405.082 93.1456C405.127 93.1914 405.157 93.2495 405.169 93.3125C405.182 93.3755 405.175 93.4407 405.151 93.5001C405.126 93.5595 405.085 93.6103 405.032 93.6464C404.979 93.6825 404.916 93.7023 404.852 93.7032Z"
    fill="#333333" />
  <path d="M225.279 239.998L230.166 238.075L230.461 240.444L225.279 239.998Z" fill="white" />
  <path
    d="M230.842 240.804L223.855 240.207L230.415 237.583L230.842 240.804ZM226.702 239.794L230.087 240.083L229.897 238.535L226.702 239.794Z"
    fill="#333333" />
  <path
    d="M312.737 116.263V114.223H310.395C310.277 113.088 309.976 111.98 309.503 110.943L311.543 109.768L310.552 107.978L308.512 109.152C307.845 108.222 307.03 107.408 306.098 106.744L307.279 104.704L305.507 103.681L304.327 105.714C303.289 105.242 302.181 104.943 301.047 104.829V102.48H299V104.829C297.866 104.943 296.758 105.242 295.72 105.714L294.539 103.681L292.775 104.704L293.949 106.744C293.017 107.408 292.201 108.222 291.535 109.152L289.495 107.978L288.478 109.749L290.511 110.923C290.037 111.96 289.738 113.068 289.626 114.203H287.277V116.243H289.56C289.672 117.378 289.971 118.486 290.446 119.523L288.412 120.697L289.429 122.469L291.469 121.294C292.137 122.223 292.953 123.036 293.883 123.702L292.709 125.742L294.474 126.765L295.654 124.725C296.691 125.202 297.799 125.504 298.934 125.617V127.966H300.981V125.617C302.116 125.504 303.225 125.202 304.261 124.725L305.442 126.765L307.213 125.742L306.032 123.702C306.963 123.036 307.778 122.223 308.446 121.294L310.487 122.469L311.51 120.697L309.47 119.523C309.943 118.486 310.245 117.378 310.362 116.243L312.737 116.263ZM299.977 107.236C301.975 107.242 303.898 107.994 305.369 109.345C306.84 110.696 307.753 112.548 307.928 114.538H301.473C301.339 114.249 301.125 114.004 300.856 113.832C300.588 113.66 300.276 113.568 299.958 113.567C299.877 113.56 299.796 113.56 299.715 113.567L296.356 108.076C297.479 107.512 298.721 107.224 299.977 107.236ZM291.974 115.239C291.971 113.953 292.279 112.684 292.872 111.542C293.464 110.399 294.325 109.418 295.379 108.679L298.744 114.144C298.479 114.445 298.333 114.832 298.331 115.233C298.332 115.598 298.452 115.952 298.672 116.243L295.392 121.78C294.339 121.044 293.478 120.066 292.884 118.927C292.289 117.789 291.977 116.524 291.974 115.239ZM299.977 123.249C298.724 123.247 297.488 122.95 296.369 122.383L299.649 116.873C299.766 116.9 299.884 116.913 300.004 116.912C300.366 116.913 300.719 116.794 301.008 116.575C301.297 116.356 301.507 116.048 301.604 115.699H307.987C307.873 117.743 306.978 119.667 305.488 121.071C303.998 122.476 302.025 123.256 299.977 123.249Z"
    fill="#D1D1D1" />
  <path
    d="M318.162 143.041H320.202V140.692C321.337 140.578 322.445 140.276 323.482 139.8L324.656 141.84L326.427 140.81L325.247 138.777C326.177 138.108 326.992 137.293 327.661 136.363L329.701 137.537L330.718 135.766L328.684 134.591C329.155 133.553 329.454 132.445 329.57 131.311H331.911V129.232H329.576C329.459 128.097 329.158 126.989 328.684 125.952L330.718 124.778L329.694 123.006L327.661 124.187C326.991 123.258 326.176 122.443 325.247 121.773L326.421 119.733L324.65 118.716L323.475 120.75C322.438 120.275 321.33 119.976 320.195 119.864V117.516H318.149V119.858C317.014 119.975 315.906 120.276 314.869 120.75L313.688 118.716L311.923 119.739L313.097 121.773C312.167 122.44 311.354 123.255 310.69 124.187L308.65 123.013L307.626 124.784L309.667 125.958C309.192 126.995 308.893 128.104 308.781 129.238H306.432V131.285H308.781C308.895 132.42 309.197 133.528 309.673 134.565L307.613 135.792L308.637 137.563L310.677 136.389C311.347 137.316 312.162 138.129 313.091 138.796L311.917 140.836L313.688 141.86L314.862 139.82C315.899 140.294 317.007 140.593 318.142 140.705L318.162 143.041ZM327.182 130.275C327.181 132.275 326.432 134.202 325.082 135.677C323.732 137.152 321.879 138.068 319.887 138.245V131.79C320.176 131.656 320.42 131.442 320.591 131.174C320.762 130.905 320.852 130.593 320.851 130.275C320.851 130.196 320.851 130.117 320.851 130.039L326.296 126.673C326.867 127.789 327.17 129.022 327.182 130.275ZM319.165 122.272C320.452 122.269 321.72 122.578 322.862 123.171C324.004 123.763 324.987 124.623 325.725 125.676L320.267 129.022C319.968 128.755 319.58 128.608 319.179 128.609C318.816 128.61 318.463 128.73 318.175 128.95L312.638 125.67C313.375 124.622 314.352 123.767 315.488 123.175C316.624 122.584 317.885 122.274 319.165 122.272ZM311.169 130.281C311.168 129.027 311.465 127.791 312.035 126.673L317.539 129.953C317.512 130.072 317.499 130.193 317.499 130.314C317.499 130.678 317.618 131.031 317.839 131.321C318.059 131.61 318.369 131.819 318.719 131.915V138.298C316.674 138.182 314.751 137.286 313.346 135.795C311.941 134.303 311.162 132.33 311.169 130.281Z"
    fill="#D1D1D1" />
</svg>