<svg xmlns="http://www.w3.org/2000/svg" viewBox="0 0 500 500">
  <path
    d="M220.79 468.83c-1.49-1.28-4.83-5.35-2.26-10.08.95-1.73 2.95-2.59 4.77-3.35a19.19 19.19 0 0 0 5.22-2.71c2.83-2.4 3.61-6.4 5.49-9.62 2.16-3.69 6.18-6.45 10.44-6.26 4.87.23 8.93 4.2 10.77 8.74s1.91 9.57 2 14.47c0 2.71-.1 5.77-2.09 7.6s-4.6 1.7-7.08 1.63l-26.62-.82"
    style="fill:#f5f5f5" />
  <path
    d="M271.71 395.63h-70l12.61 75.19a8.4 8.4 0 0 0 6 6.7l.25.07c.2.05.4.12.62.16a9.49 9.49 0 0 0 1.42.16v.09l.34-.05h31.21a8.7 8.7 0 0 0 1.71-.17 8.44 8.44 0 0 0 7.09-7.35L269 418.6l.27-2.06 2.4-20.54Zm-13.21 48h-7.18l.72-21.82h8.33Zm2.57-21.82h6.87l-2.56 21.82h-6.18Zm-20.53 46-.44-19h10.35l-.63 19Zm-11.19-19h10.06l.43 19h-9Zm.78 19h-8.43c-.8-5.12-1.84-11.77-3-19h9.93ZM229 443.59l-1.7-21.82h11.53l.51 21.82Zm11 0-.5-21.82h11.87l-.73 21.82Zm-.62-27-.47-20.22h13.3l-.67 20.22Zm-.7 0h-11.83l-1.58-20.22h12.93Zm-12.51 0h-12.53c-.44-2.8-.86-5.44-1.24-7.82-1.3-8.17-1.79-11.24-2.07-12.4h14.25Zm.41 5.23 1.69 21.82h-10.36c-.35-2.21-.7-4.45-1-6.69-.81-5.15-1.63-10.3-2.39-15.13Zm-9.35 21.82h-6.76l-3.66-21.82h7c1.02 6.69 2.19 14.18 3.4 21.77Zm.82 5.24c1 6.56 2 13 3 19h-6.49l-3.18-19Zm32.49 19 .63-19h6.91l-1.62 19Zm1.7-51.25.67-20.22h9.65l-1.72 20.22Zm-42.55-20.22c.28 1.47 1.56 9.42 3.27 20.22h-7l-3.39-20.22Zm52.88 71.47h-5.42l1.62-19h6Zm6-51.25h-7.05l1.73-20.22h7.69Z"
    style="fill:#e0e0e0" />
  <path
    d="m275.12 321.3-37.77 11.77a5 5 0 0 1-6.2-3.25l-16.29-52.28a5 5 0 0 1 3.25-6.2l23.95-7.46 24.5 13.33 11.81 37.89a5 5 0 0 1-3.25 6.2Z"
    style="fill:#ebebeb" />
  <path d="m242.06 263.88 4.59 14.71a4.6 4.6 0 0 0 5.76 3l14.15-4.41Z" style="fill:#e0e0e0" />
  <path
    d="M243.29 279c.06.19-3.8 1.56-8.63 3.06s-8.78 2.57-8.84 2.38 3.81-1.56 8.63-3.06 8.79-2.59 8.84-2.38ZM257.17 283.78c.06.19-6.33 2.35-14.27 4.82s-14.43 4.33-14.49 4.14 6.33-2.35 14.28-4.82 14.42-4.33 14.48-4.14ZM261.93 289.92c.06.19-6.91 2.53-15.57 5.23s-15.72 4.73-15.78 4.54 6.91-2.53 15.57-5.23 15.72-4.73 15.78-4.54ZM264 296.47c.06.19-6.91 2.53-15.57 5.23s-15.72 4.73-15.78 4.54 6.91-2.53 15.57-5.23 15.69-4.73 15.78-4.54ZM266 303c.06.19-6.91 2.53-15.56 5.23s-15.73 4.73-15.79 4.54 6.91-2.52 15.57-5.22S266 302.84 266 303ZM268.05 309.58c.06.19-6.91 2.53-15.56 5.23s-15.72 4.73-15.78 4.54 6.91-2.53 15.56-5.23 15.73-4.73 15.78-4.54Z"
    style="fill:#fafafa" />
  <path
    d="M435.38 117.31 398.51 103a5 5 0 0 1-2.81-6.41l19.85-51a4.94 4.94 0 0 1 6.4-2.82l23.39 9.1 10.84 25.63-14.39 37a5 5 0 0 1-6.41 2.81Z"
    style="fill:#ebebeb" />
  <path d="m445.34 51.81-5.59 14.36a4.6 4.6 0 0 0 2.62 6l13.81 5.37Z" style="fill:#e0e0e0" />
  <path
    d="M436.88 64.38c-.07.19-3.94-1.15-8.65-3s-8.47-3.47-8.4-3.65 3.95 1.15 8.66 3 8.51 3.47 8.39 3.65ZM444.74 76.79c-.07.18-6.41-2.11-14.16-5.13s-14-5.61-13.91-5.79S423.08 68 430.84 71s13.97 5.6 13.9 5.79ZM444.63 84.55c-.07.19-7-2.33-15.43-5.62s-15.2-6.1-15.2-6.28 7 2.33 15.43 5.62 15.27 6.1 15.2 6.28ZM442.14 91c-.07.18-7-2.33-15.43-5.62s-15.24-6.1-15.17-6.29 7 2.34 15.43 5.62 15.25 6.05 15.17 6.29ZM439.66 97.35c-.08.18-7-2.33-15.43-5.62s-15.25-6.1-15.18-6.29 7 2.33 15.44 5.62 15.24 6.1 15.17 6.29ZM437.17 103.74c-.08.19-7-2.33-15.43-5.61s-15.25-6.13-15.17-6.29 7 2.33 15.43 5.62 15.24 6.1 15.17 6.28Z"
    style="fill:#fafafa" />
  <path
    d="M89 263.3a3 3 0 0 1 2.48 3.35c-.15 1-.3 2-.36 2.48l-3.4 22.31a2 2 0 0 1-2.21 1.65l-51.06-7.77a2 2 0 0 1-1.64-2.11l2.61-28.91a2 2 0 0 1 2.22-1.77l11.55 1.76a4.73 4.73 0 0 1 2.81 1.55l2.07 2.39Z"
    style="fill:#e0e0e0" />
  <path d="M33.67 262.45h56.44v34.06H33.67z" style="fill:#f5f5f5" transform="rotate(8.65 61.8917 279.4317)" />
  <path
    d="m31.65 260.75-1.08 35.76a1.26 1.26 0 0 0 1.06 1.28L86 306.06a1.25 1.25 0 0 0 1.4-1l8.08-34.7a1.26 1.26 0 0 0-1-1.53l-61.37-9.33a1.26 1.26 0 0 0-1.46 1.25Z"
    style="fill:#ebebeb" />
  <path
    d="M162.3 266.26c-11 5.72-19.49 15.55-25.57 26.39s-10 22.71-13.88 34.52l-3.4 60.83c12.83-21.83 23.14-47.5 25.92-72.67l-8.54-.77c5.73-.87 10.53-5 13.59-9.94s4.63-10.59 6.17-16.18L146.17 290a38.58 38.58 0 0 0 16.13-23.74Z"
    style="fill:#455a64" />
  <path
    d="M162.3 266.26c-11 5.72-19.49 15.55-25.57 26.39s-10 22.71-13.88 34.52l-3.4 60.83c12.83-21.83 23.14-47.5 25.92-72.67l-8.54-.77c5.73-.87 10.53-5 13.59-9.94s4.63-10.59 6.17-16.18L146.17 290a38.58 38.58 0 0 0 16.13-23.74Z"
    style="opacity:.30000000000000004" />
  <path
    d="M117.55 402.28S89.69 368.94 90 337.11h11.26S89 329.07 90 324.57 91.3 303 91.3 303l10.29 2.58s-7.72-3.86-8.68-10 2.25-34.4 2.25-34.4 12.54 13.18 16.4 26.68 14 29.26 11 70.42-5.01 44-5.01 44ZM131.67 405.43s30.19-20.11 36.89-45.77l-9.05-2.46s11.59-3.79 11.8-7.62S175 332 175 332l-8.83-.18s7-1.42 9.16-6.12 5.67-28.17 5.67-28.17-13 7.86-19 17.87-17.64 20.46-24.26 54.2-6.07 35.83-6.07 35.83Z"
    style="fill:#455a64" />
  <path
    d="M102.77 290.3a1.87 1.87 0 0 1 .1.34l.24 1 .88 4c.39 1.71.84 3.82 1.33 6.27s1.07 5.24 1.63 8.34c1.2 6.18 2.46 13.58 3.75 21.8s2.51 17.3 3.63 26.84 1.94 18.66 2.59 27 1.08 15.79 1.33 22.08c.15 3.15.23 6 .3 8.49s.13 4.66.15 6.42 0 3.09 0 4.05v1.05a1.41 1.41 0 0 1 0 .36 1.6 1.6 0 0 1 0-.35v-1.06c0-1-.08-2.31-.14-4.05s-.12-3.91-.24-6.41-.2-5.34-.38-8.48c-.3-6.29-.8-13.76-1.44-22.06s-1.54-17.4-2.63-26.94-2.35-18.6-3.58-26.83-2.49-15.61-3.64-21.8c-.54-3.1-1.09-5.89-1.56-8.35s-.88-4.57-1.23-6.29-.61-3-.79-4c-.08-.43-.15-.78-.19-1a2 2 0 0 1-.11-.42Z"
    style="fill:#263238" />
  <path
    d="M113.69 422.7s-25.5-28.92-33.41-46.41l6-2.55c-4.33.71-8.77-1.15-12.13-4s-5.82-6.54-8.24-10.21l7.87-1.33a29.28 29.28 0 0 1-17.2-13.32c9.29 1.53 17.7 6.63 24.62 13a122.43 122.43 0 0 1 14.92 17.28 58.93 58.93 0 0 1 5.79 9.53c4.26 8.88 11.79 27.39 11.78 38.01Z"
    style="fill:#455a64" />
  <path
    d="M169 314.37a1.23 1.23 0 0 1-.12.29l-.39.84-1.55 3.21c-1.37 2.78-3.3 6.82-5.65 11.83s-5.05 11-8 17.73-5.95 14.16-9 22-5.77 15.45-8.16 22.37-4.41 13.19-6 18.47-2.92 9.58-3.78 12.55l-1 3.42c-.12.37-.21.66-.28.89s-.1.3-.11.29a1.29 1.29 0 0 1 .04-.26c.06-.23.13-.52.23-.9.22-.82.52-2 .91-3.44.8-3 2-7.3 3.63-12.6s3.59-11.59 5.93-18.53 5.09-14.51 8.13-22.39 6.15-15.32 9-22 5.68-12.7 8.07-17.7 4.38-9 5.8-11.76l1.64-3.17c.18-.33.32-.6.44-.81s.22-.34.22-.33ZM115.85 435.1a2 2 0 0 1-.12-.53c-.07-.41-.15-.92-.25-1.54-.2-1.33-.53-3.26-1-5.62s-1.11-5.17-1.94-8.24-1.92-6.41-3.21-9.86-2.73-6.64-4.11-9.51-2.76-5.4-4-7.48-2.24-3.74-3-4.87l-.83-1.32a1.64 1.64 0 0 1-.26-.48 2.21 2.21 0 0 1 .34.42c.25.34.55.75.91 1.26.79 1.1 1.87 2.74 3.13 4.81s2.66 4.58 4.09 7.44 2.85 6.09 4.17 9.55S112.16 416 113 419s1.43 5.91 1.85 8.3.7 4.32.83 5.66c.06.63.11 1.14.15 1.55a2.08 2.08 0 0 1 .02.59Z"
    style="fill:#263238" />
  <path d="M93.69 428.29h55.8v11.38h-55.8zM99.01 439.68l6.03 38.28h33.72l5.62-38.28H99.01z" style="fill:#ff725e" />
  <path d="M146.07 439.68c0 .14-10.56.26-23.58.26s-23.57-.12-23.57-.26 10.55-.26 23.57-.26 23.58.11 23.58.26Z"
    style="fill:#263238" />
  <path d="M82.67 57.19h249.17v156.07H82.67z" style="fill:#fff" />
  <path d="M82.67 57.19h249.17v14.3H82.67z" style="fill:#455a64" />
  <path d="M82.58 210.17h249.26v28.14H82.58z" style="fill:#f5f5f5" />
  <path
    d="m115.33 222.8-1.83-.27-.82-1.66-.82 1.66-1.83.27 1.32 1.29-.01.09-.3 1.73 1.64-.86 1.63.86-.31-1.82.07-.06 1.26-1.23zM100.84 221.3a1.1 1.1 0 1 0 1.1 1.1 1.09 1.09 0 0 0-1.1-1.1Z"
    style="fill:none" />
  <path
    d="M133.82 223.78h2.23l.7 1.46h.48l-2.23-4.65h-.13l-2.23 4.65h.48Zm1.12-2.32.9 1.89H134ZM132.28 226.24h5.28v.37h-5.28zM101 220.32h-.35a2 2 0 0 0-1.86 2 8.32 8.32 0 0 0 1.86 4s.13.24.35 0a8.32 8.32 0 0 0 1.86-4 2 2 0 0 0-1.86-2Zm-.18 3.17a1.1 1.1 0 1 1 1.1-1.09 1.09 1.09 0 0 1-1.08 1.09ZM125.74 225a1.13 1.13 0 0 1-2.26 0v-3.65a.73.73 0 1 1 1.46 0v3.09a.42.42 0 0 1-.4.33.43.43 0 0 1-.41-.33V222h-.27V224.39a.69.69 0 0 0 .67.59.7.7 0 0 0 .67-.59v-.06a.43.43 0 0 0 0-.05v-3a1 1 0 0 0-2 0v3.82a1.41 1.41 0 0 0 1.4 1.27 1.39 1.39 0 0 0 1.39-1.27V222h-.27ZM113.72 222.22l-1-2.12-1.05 2.12-2.33.34 1.69 1.65-.4 2.32 2.09-1.1 2.09 1.1-.4-2.32 1.69-1.65Zm.6 3.69-1.64-.86-1.64.86.3-1.73v-.09L110 222.8l1.83-.27.82-1.66.82 1.66 1.83.27-1.23 1.2-.07.07ZM154.87 217.5h-.34v10.85h.34Zm-.17 10.84ZM143.92 221.34h4.32v4.6h-4.32zM145.28 220.26v.35h1.59v-.35h1.36v.71h-4.31v-.71h1.36zM145.28 219.9h1.59v.35h-1.59z"
    style="fill:#263238" />
  <path
    d="M145.28 220.26h1.59v.35h-1.59zM164.65 223.8l1.32-1.32.16.16-1.48 1.48-1.49-1.48.16-.16 1.33 1.32zM318.1 112a1.48 1.48 0 0 0-1.47 1.42V119a2.05 2.05 0 0 0 4.09 0v-4.5h-.4v4.31a1.66 1.66 0 0 1-3.31 0v-5.34a1.07 1.07 0 0 1 2.14 0V118a.61.61 0 0 1-.59.47.62.62 0 0 1-.56-.47v-3.49h-.4V118a1 1 0 0 0 2 0v-4.58a1.48 1.48 0 0 0-1.5-1.42ZM90.87 79.46h-1.7v-.62h4.11v.62h-1.71v4.35h-.7ZM93.21 81.93a2 2 0 1 1 2 1.92 1.88 1.88 0 0 1-2-1.92Zm3.22 0a1.27 1.27 0 1 0-1.26 1.32 1.23 1.23 0 0 0 1.26-1.32ZM99.64 80.49a.48.48 0 0 1 .49-.48.49.49 0 0 1 0 1 .48.48 0 0 1-.49-.52Zm0 2.87a.48.48 0 0 1 .49-.48.46.46 0 0 1 .46.48.47.47 0 0 1-.46.49.48.48 0 0 1-.49-.49ZM90.18 98a2.51 2.51 0 0 1 2.63-2.54 2.46 2.46 0 0 1 1.89.77l-.46.45a1.93 1.93 0 1 0-1.4 3.23 1.84 1.84 0 0 0 1.4-.6l.46.45a2.48 2.48 0 0 1-1.9.78A2.51 2.51 0 0 1 90.18 98ZM95.11 98.63a1.87 1.87 0 0 1 2-1.91 1.67 1.67 0 0 1 1.53.8l-.51.33a1.17 1.17 0 0 0-1-.54 1.33 1.33 0 0 0 0 2.65 1.17 1.17 0 0 0 1-.54l.51.33a1.67 1.67 0 0 1-1.53.81 1.88 1.88 0 0 1-2-1.93ZM101.09 97.2a.47.47 0 0 1 .48-.48.47.47 0 0 1 .47.48.47.47 0 0 1-.47.49.48.48 0 0 1-.48-.49Zm0 2.87a.47.47 0 0 1 .48-.48.46.46 0 0 1 .47.48.47.47 0 0 1-.47.49.48.48 0 0 1-.48-.49ZM89.43 116.87l.26-.55a2.58 2.58 0 0 0 1.64.57c.86 0 1.23-.33 1.23-.76 0-1.22-3-.45-3-2.29 0-.77.6-1.42 1.9-1.42a2.88 2.88 0 0 1 1.6.44l-.24.56a2.6 2.6 0 0 0-1.36-.4c-.84 0-1.2.35-1.2.79 0 1.21 3 .45 3 2.27 0 .76-.61 1.42-1.92 1.42a2.94 2.94 0 0 1-1.91-.63ZM97.69 113.68v3.76h-.64v-.57a1.54 1.54 0 0 1-1.28.61 1.48 1.48 0 0 1-1.62-1.64v-2.16h.68v2.09c0 .73.37 1.1 1 1.1a1.1 1.1 0 0 0 1.17-1.25v-1.94ZM102.88 115.56a1.83 1.83 0 0 1-1.9 1.92 1.58 1.58 0 0 1-1.34-.64v.6H99v-5.27h.69v2.08a1.59 1.59 0 0 1 1.31-.61 1.83 1.83 0 0 1 1.88 1.92Zm-.69 0a1.27 1.27 0 1 0-1.27 1.33 1.24 1.24 0 0 0 1.27-1.33ZM102.52 118.63l.22-.52a.88.88 0 0 0 .55.17c.37 0 .56-.22.56-.66v-3.94h.69v3.93a1.12 1.12 0 0 1-1.2 1.25 1.31 1.31 0 0 1-.82-.23Zm1.21-6.11a.45.45 0 0 1 .46-.45.44.44 0 0 1 .47.43.45.45 0 0 1-.47.46.45.45 0 0 1-.46-.44ZM109.22 115.79h-3.06a1.28 1.28 0 0 0 1.37 1.1 1.37 1.37 0 0 0 1.08-.46l.38.44a2.05 2.05 0 0 1-3.51-1.31 1.85 1.85 0 0 1 1.89-1.92 1.81 1.81 0 0 1 1.86 1.94c0 .06-.01.14-.01.21Zm-3.06-.49h2.42a1.22 1.22 0 0 0-2.42 0ZM109.82 115.56a1.88 1.88 0 0 1 2-1.92 1.68 1.68 0 0 1 1.53.81l-.52.33a1.17 1.17 0 0 0-1-.54 1.33 1.33 0 0 0 0 2.65 1.17 1.17 0 0 0 1-.54l.52.32a1.68 1.68 0 0 1-1.53.81 1.88 1.88 0 0 1-2-1.92ZM116.38 117.22a1.28 1.28 0 0 1-.82.26 1.07 1.07 0 0 1-1.19-1.18v-2.06h-.64v-.56h.64v-.82h.68v.82h1.08v.56h-1.08v2a.55.55 0 0 0 .59.63.89.89 0 0 0 .53-.18ZM118.79 114.13a.48.48 0 0 1 .48-.49.47.47 0 0 1 .47.49.47.47 0 0 1-.47.49.48.48 0 0 1-.48-.49Zm0 2.86a.47.47 0 0 1 .48-.48.49.49 0 0 1 0 1 .48.48 0 0 1-.48-.51ZM181.05 82.92c0 .14-15.92.26-35.56.26s-35.56-.12-35.56-.26 15.92-.26 35.56-.26 35.56.11 35.56.26ZM212.81 99.14c0 .15-23 .26-51.44.26s-51.44-.11-51.44-.26 23-.26 51.44-.26 51.44.12 51.44.26ZM174.77 115.25a2.48 2.48 0 0 1-.47 0h-1.36l-5 .08c-4.21 0-10 .08-16.42.08s-12.22 0-16.42-.08l-5-.08h-1.35a2.7 2.7 0 0 1-.48 0 1.58 1.58 0 0 1 .48-.06h1.35l5-.08c4.2 0 10-.07 16.42-.07s12.21 0 16.42.07l5 .08h1.36a1.47 1.47 0 0 1 .47.06Z"
    style="fill:#263238" />
  <path
    d="M329.15 124c0 .14-55.18.26-123.23.26s-123.25-.11-123.25-.26 55.17-.26 123.25-.26 123.23.12 123.23.26ZM329.15 106.44c0 .15-55.2.26-123.28.26s-123.29-.11-123.29-.26 55.19-.26 123.29-.26 123.28.12 123.28.26ZM329.15 91c0 .14-55.18.26-123.23.26S82.67 91.17 82.67 91s55.17-.26 123.25-.26 123.23.15 123.23.26Z"
    style="fill:#e0e0e0" />
  <path
    d="M115.76 145.43a70.05 70.05 0 0 1-8.47.26 70.29 70.29 0 0 1-8.48-.26 70.29 70.29 0 0 1 8.48-.26 70.05 70.05 0 0 1 8.47.26ZM212.27 155.24c0 .14-25.66.26-57.29.26s-57.3-.12-57.3-.26S123.33 155 155 155s57.27.1 57.27.24ZM193.26 162.1c0 .12-21.4.22-47.79.22s-47.79-.1-47.79-.22 21.39-.22 47.79-.22 47.79.12 47.79.22Z"
    style="fill:#263238" />
  <circle cx="89.65" cy="64.34" r="1.55" style="fill:#fff" />
  <circle cx="95.16" cy="64.34" r="1.55" style="fill:#fff" />
  <circle cx="100.67" cy="64.34" r="1.55" style="fill:#fff" />
  <path
    d="M332.84 238.3c0-1.74-.09-71.28-.21-181.11l.21.21-250.15.05.26-.26V238.3l-.24-.23 250.17.23-250.17.24h-.23V56.93H333.12v.21c-.2 109.86-.28 179.42-.28 181.16Z"
    style="fill:#263238" />
  <path d="M403.67 420.13h5.78v3.11h-5.78z" style="fill:#e0e0e0" />
  <path d="M394.12 341.75h13.35v66.21h-13.35z" style="fill:#ebebeb" />
  <path
    d="M431.09 345.24h-62.66a12.07 12.07 0 0 1-12.07-12.07 12.07 12.07 0 0 1 12.07-12.08h62.66a12.07 12.07 0 0 1 12.07 12.08 12.07 12.07 0 0 1-12.07 12.07Z"
    style="fill:#455a64" />
  <path
    d="M396.61 407.96h8.46v47h-8.46zM366.91 477.87c-1.66.21 71.29 0 71.29 0s-31.12-3.48-33.13-22.91h-8.46s-2.13 19.4-29.7 22.91Z"
    style="fill:#e0e0e0" />
  <path
    d="M433.57 345.24c0 .14-14.49.26-32.36.26s-32.36-.12-32.36-.26 14.49-.26 32.36-.26 32.36.12 32.36.26ZM407.46 408a87.36 87.36 0 0 1-13.46 0 87.36 87.36 0 0 1 13.47 0Z"
    style="fill:#263238" />
  <path
    d="M409.45 426.72a1.71 1.71 0 0 1-1.71-1.7v-6.67a1.72 1.72 0 0 1 1.71-1.71 1.72 1.72 0 0 1 1.71 1.71V425a1.71 1.71 0 0 1-1.71 1.72Z"
    style="fill:#e0e0e0" />
  <path
    d="M276.12 152.7s2.93-3.21 3.82-3.28 10 2.66 10 2.66a6.18 6.18 0 0 1 2.86 1.37c.82 1 9.83 10.75 9.83 10.75l-10 8.82s-11.74-2.11-12.76-3.34-1.84-3.2-1.09-3.82a5.05 5.05 0 0 1-.68-2.86 19.33 19.33 0 0 1 .61-2.08s-1.77-1.27-1.84-2.15a3.59 3.59 0 0 0-.34-1.37l-.41-.68Z"
    style="fill:#ffbe9d" />
  <path
    d="M280.21 154.61c.05 0 0 .31-.16.76a3.71 3.71 0 0 1-1.11 1.54 2.29 2.29 0 0 1-1.87.43c-.5-.13-.7-.4-.66-.43s.28.1.71.14a2.44 2.44 0 0 0 1.57-.48 4.7 4.7 0 0 0 1.09-1.33c.22-.4.37-.65.43-.63Z"
    style="fill:#eb996e" />
  <path
    d="M240.1 131.71a5.47 5.47 0 0 0-5.5 5.41l-.47 60.31a5.47 5.47 0 0 0 5.41 5.5l43.57.34a5.47 5.47 0 0 0 5.5-5.41l.29-60.34a5.58 5.58 0 0 0-5.56-5.62Z"
    style="fill:#e0e0e0" />
  <path
    d="M264 150c0 .22-4.51.36-10.08.32s-10.08-.26-10.08-.48 4.52-.36 10.09-.31 10.07.28 10.07.47ZM276.9 157.88c0 .22-7.44.34-16.6.26s-16.58-.3-16.58-.52 7.43-.34 16.59-.27 16.59.31 16.59.53ZM279.82 165.92c0 .22-8.1.33-18.09.25s-18.08-.32-18.08-.54 8.1-.33 18.09-.25 18.08.32 18.08.54ZM279.76 173.48c0 .22-8.1.33-18.08.25s-18.09-.32-18.09-.54 8.1-.33 18.09-.25 18.08.32 18.08.54ZM279.7 181c0 .22-8.1.33-18.08.25s-18.09-.32-18.09-.54 8.1-.33 18.09-.25 18.08.36 18.08.54ZM279.64 188.6c0 .22-8.1.33-18.08.25s-18.09-.32-18.08-.53 8.09-.34 18.08-.26 18.08.32 18.08.54Z"
    style="fill:#e0e0e0" />
  <path
    d="M238.08 129.91a5.45 5.45 0 0 0-5.49 5.41l-.48 60.31a5.47 5.47 0 0 0 5.41 5.5l43.58.34a5.45 5.45 0 0 0 5.49-5.41l.3-60.35a5.59 5.59 0 0 0-5.56-5.61Z"
    style="fill:#fff" />
  <path
    d="M238.08 129.91H279.89a17 17 0 0 1 2.24.07 5.72 5.72 0 0 1 3.92 2.41 5.55 5.55 0 0 1 .95 2.23 13.18 13.18 0 0 1 .1 2.42c0 6.44-.05 13.32-.08 20.55s-.06 14.83-.1 22.71c0 3.93 0 7.94-.05 12v3.07a6.41 6.41 0 0 1-.56 3.11 5.72 5.72 0 0 1-5.23 3.26l-24.39-.2-11.59-.1h-5.62a26.58 26.58 0 0 1-2.8-.1 5.46 5.46 0 0 1-2.58-1.13 5.74 5.74 0 0 1-2.2-4.88c0-1.77 0-3.51.05-5.22 0-3.43.06-6.76.09-10 .06-6.44.12-12.43.17-17.91.12-10.93.22-19.78.29-25.92a9.51 9.51 0 0 1 .17-2.17 5.43 5.43 0 0 1 .77-1.76 5.53 5.53 0 0 1 2.26-1.94 5.45 5.45 0 0 1 1.78-.47 4.14 4.14 0 0 1 .62 0 6.07 6.07 0 0 0-2.35.58 5.41 5.41 0 0 0-2.18 1.92 5.12 5.12 0 0 0-.72 1.72 9.63 9.63 0 0 0-.15 2.13c0 6.14-.07 15-.12 25.93 0 5.47-.07 11.47-.11 17.9 0 3.22 0 6.55-.06 10v5.22a5.3 5.3 0 0 0 2 4.51 5.1 5.1 0 0 0 2.37 1 26.86 26.86 0 0 0 2.72.09h5.62l11.6.08 24.38.19a5.18 5.18 0 0 0 4.76-3 6 6 0 0 0 .52-2.89v-3.06q0-6.09.06-12c0-7.87.09-15.47.13-22.7s.09-14.11.13-20.55a13.92 13.92 0 0 0-.09-2.35 5.31 5.31 0 0 0-.87-2.06 5.37 5.37 0 0 0-3.64-2.26c-.7-.09-1.45-.05-2.18-.07h-6.37l-25.93-.2-7.05-.08h-1.83Z"
    style="fill:#263238" />
  <path
    d="M261.94 148.23c0 .22-4.52.36-10.09.32s-10.07-.26-10.07-.48 4.51-.36 10.08-.31 10.08.24 10.08.47ZM274.88 156.08c0 .22-7.43.34-16.59.26s-16.59-.3-16.59-.52 7.43-.34 16.6-.27 16.58.31 16.58.53ZM277.81 164.12c0 .22-8.1.33-18.09.25s-18.08-.32-18.08-.54 8.1-.33 18.09-.25 18.08.32 18.08.54ZM277.75 171.68c0 .22-8.1.33-18.09.25s-18.08-.32-18.08-.54 8.1-.33 18.09-.25 18.08.32 18.08.54ZM277.69 179.24c0 .22-8.1.33-18.09.25s-18.08-.32-18.08-.54 8.1-.33 18.09-.25 18.08.3 18.08.54ZM277.63 186.8c0 .22-8.1.33-18.09.25s-18.08-.32-18.08-.53 8.1-.34 18.09-.26 18.08.32 18.08.54ZM243.56 141.16a2.81 2.81 0 0 1-2.81-2.81v-7a1.89 1.89 0 0 1 3.78 0v5a.38.38 0 1 1-.75 0v-5a1.14 1.14 0 0 0-2.28 0v7a2.06 2.06 0 0 0 4.12 0v-8.07a3 3 0 0 0-5.83-1.07v.33a.38.38 0 0 1-.75 0v-.4a.25.25 0 0 1 0-.12 3.76 3.76 0 0 1 7.31 1.26v8.07a2.81 2.81 0 0 1-2.79 2.81Z"
    style="fill:#263238" />
  <path d="m296.78 159.62-4.78-3-12.24-6.46s-2.43 2.36 1.68 5.76l5.06 4s4.5 8.25 5.46 8.85a56.44 56.44 0 0 0 5.38 2.21Z"
    style="fill:#ffbe9d" />
  <path
    d="M297.81 171.21a1.64 1.64 0 0 1-.49-.11c-.32-.09-.79-.22-1.39-.43s-1.32-.46-2.14-.83a11.89 11.89 0 0 1-1.28-.65 4.08 4.08 0 0 1-1.24-1.08 56.1 56.1 0 0 1-4.13-6.74l-.56-1a2.75 2.75 0 0 0-.72-.81c-.57-.5-1.21-1-1.84-1.48a42.72 42.72 0 0 1-3.89-3.18 4 4 0 0 1-.7-5l.1-.15.17.1c4.89 2.76 9.11 5.28 12.3 6.76 1.55.85 2.73 1.61 3.54 2.12l.93.61a2.21 2.21 0 0 1 .31.24 1.56 1.56 0 0 1-.35-.17l-1-.55c-.84-.48-2.05-1.21-3.6-2-3.22-1.41-7.48-3.9-12.37-6.64l.26-.06a3.28 3.28 0 0 0-.44 2.27 4 4 0 0 0 1.11 2.18 48.39 48.39 0 0 0 3.84 3.14c.64.5 1.27 1 1.86 1.5a5.66 5.66 0 0 1 .43.42 2.74 2.74 0 0 1 .37.49c.18.34.37.66.55 1a59.59 59.59 0 0 0 4 6.74 6 6 0 0 0 2.38 1.71c.8.38 1.51.66 2.1.89l1.35.5a4.61 4.61 0 0 1 .54.21Z"
    style="fill:#eb996e" />
  <path
    d="M429.84 136.34c-.17-3-.54-17.42-.72-19.62a12.14 12.14 0 0 0-3.63-7.94c-2.18-2-5.57-2.9-8.24-1.59a5.09 5.09 0 0 0-3.65 3.57c-6.08 21.62-5.12 44.64-7.81 67 7.94 1.29 18.62.76 26.65.34 0-17.85-1.51-22.48-2.6-41.76Z"
    style="fill:#263238" />
  <path
    d="M426.49 166.83a2.23 2.23 0 0 1-.06-.58c0-.44-.05-1-.08-1.66-.05-1.51-.11-3.58-.19-6.1-.11-5.21-.26-12.3-.42-20.13-.06-3.92-.12-7.66-.17-11.08 0-1.7 0-3.32-.06-4.83a23.47 23.47 0 0 0-.29-4.17 6.79 6.79 0 0 0-3.09-4.89 5.62 5.62 0 0 0-2.09-.64h.14a2.26 2.26 0 0 1 .44 0 4.21 4.21 0 0 1 1.61.47 6 6 0 0 1 2 1.76 8.06 8.06 0 0 1 1.36 3.24 24.13 24.13 0 0 1 .35 4.23c0 1.52.07 3.13.11 4.83.07 3.42.14 7.16.21 11.09.11 7.82.2 14.91.27 20.12V166.26a2.39 2.39 0 0 1-.04.57ZM419.27 158.63a6.52 6.52 0 0 1-.09-1.3c0-.84-.05-2.06-.05-3.56 0-3 .06-7.14.17-11.71s.24-8.61.33-11.72c0-1.41.08-2.6.12-3.54a7 7 0 0 1 .1-1.31 6 6 0 0 1 .1 1.31c0 .84 0 2 .05 3.55 0 3-.06 7.14-.18 11.72s-.24 8.6-.32 11.71c-.05 1.41-.09 2.6-.12 3.55a6.3 6.3 0 0 1-.11 1.3Z"
    style="fill:#455a64" />
  <path
    d="M392.75 90.56c6-.62 11 2 15.74 5.63a29.6 29.6 0 0 1 10 14.62c1.89 6 1.92 14.55-.23 20.48A18.34 18.34 0 0 1 405.88 143c-8.29 2.34-17.63 1.39-24.15-4.24s-9.87-14.46-9.64-23.07a28.46 28.46 0 0 1 5.6-16.6 21.67 21.67 0 0 1 15.06-8.49"
    style="fill:#263238" />
  <path
    d="M408.2 111.69c-.72-2.31-.22-4.81-.4-7.22-.41-5.31-4.37-9.8-9.14-12.18-4.44-2.2-10-2.15-15.64-.73a21 21 0 0 0-10.24 5.75 16.55 16.55 0 0 0-4 14.64l27.17-2.16c2.38 2.25 4.83 4.54 7.81 5.9a5.65 5.65 0 0 0 2.78.64 2.52 2.52 0 0 0 2.2-1.59c.26-1.01-.23-2.05-.54-3.05Z"
    style="fill:#263238" />
  <path
    d="m382 99 23.17 6.52a4.39 4.39 0 0 1 3.81 4.56l-3.61 50.83a15.79 15.79 0 0 1-3.94 9.38L399 173c-5.54 6.25-15.85 4.91-19.27-2.71a5.68 5.68 0 0 1-.45-1.37 11.21 11.21 0 0 1-.15-1.16 36.87 36.87 0 0 1 .1-7.73c.07-4.54.12-6.4.11-6.36s-9.53-1.84-11.19-14.4c-.82-6.24-.23-16.42.51-24.74C369.29 107 374.51 98 382 99Z"
    style="fill:#ffbe9d" />
  <path
    d="M371.57 124.29a1.6 1.6 0 0 0 1.5 1.66 1.54 1.54 0 0 0 1.69-1.4 1.6 1.6 0 0 0-1.5-1.66 1.54 1.54 0 0 0-1.69 1.4ZM370.69 119.87c.19.22 1.43-.65 3.16-.6s3 1 3.16.74-.1-.47-.64-.89a4.47 4.47 0 0 0-2.52-.85 4.24 4.24 0 0 0-2.52.74c-.54.39-.73.77-.64.86ZM387 124.91a1.6 1.6 0 0 0 1.5 1.66 1.53 1.53 0 0 0 1.69-1.4 1.61 1.61 0 0 0-1.5-1.66 1.54 1.54 0 0 0-1.69 1.4ZM387.06 120.52c.19.22 1.43-.65 3.15-.6s3 1 3.16.74-.09-.47-.64-.89a4.45 4.45 0 0 0-2.52-.85 4.26 4.26 0 0 0-2.52.74c-.54.39-.69.77-.63.86ZM381 133.27a11.46 11.46 0 0 0-2.79-.58c-.44-.06-.85-.15-.92-.46a2.16 2.16 0 0 1 .33-1.29c.44-1.06.9-2.17 1.39-3.32 1.94-4.73 3.35-8.62 3.16-8.7s-1.92 3.69-3.85 8.42c-.47 1.17-.92 2.28-1.34 3.34a2.54 2.54 0 0 0-.27 1.72 1.1 1.1 0 0 0 .7.67 3.22 3.22 0 0 0 .75.12 11.17 11.17 0 0 0 2.84.08Z"
    style="fill:#263238" />
  <path
    d="M379.3 153.65a31.76 31.76 0 0 0 16.86-4s-4.44 8.54-16.92 7ZM381.66 137.45a3.07 3.07 0 0 1 2.81-1.08 2.81 2.81 0 0 1 1.93 1.1 1.8 1.8 0 0 1 .09 2.06 2.09 2.09 0 0 1-2.28.51 6.54 6.54 0 0 1-2.17-1.37 2 2 0 0 1-.48-.53.57.57 0 0 1 0-.64"
    style="fill:#eb996e" />
  <path
    d="M386.08 134.6c-.28 0-.33 1.85-2 3.13s-3.62 1-3.65 1.29.44.38 1.28.42a4.63 4.63 0 0 0 3-1 4 4 0 0 0 1.53-2.63c.17-.75-.03-1.22-.16-1.21ZM387.49 115.42c.15.48 1.88.3 3.9.6s3.64.89 3.92.48c.12-.2-.15-.65-.8-1.12a6.57 6.57 0 0 0-2.88-1.1 6.67 6.67 0 0 0-3.08.28c-.75.28-1.13.64-1.06.86ZM371.39 112.34c.3.4 1.49 0 2.92 0s2.64.33 2.92-.07c.13-.2-.05-.59-.57-1a4 4 0 0 0-2.35-.7 4 4 0 0 0-2.35.72c-.52.46-.7.86-.57 1.05Z"
    style="fill:#263238" />
  <path
    d="M412.74 108.34c-2-7.31-12-17.76-19.54-17.58l-12.38 6.69a11.62 11.62 0 0 0 7.49 9.25c2.1.75 4.66 1 5.84 2.94s.33 4.62 1.45 6.6c1.54 2.75 6.11 2.83 7.23 5.79.49 1.28.14 2.78.65 4.06.69 1.71 4.82 4 6.59 3.54s1.92-3.45 2.56-5a8.27 8.27 0 0 0 .51-5.52c-.6-3.56.54-7.28-.4-10.77Z"
    style="fill:#263238" />
  <path
    d="M404.84 130.87c0-.93 1.17-3.09 2.09-3.21 2.46-.32 6.88 0 6.76 6.23-.17 8.52-8.69 6.59-8.7 6.35s-.24-6.15-.15-9.37Z"
    style="fill:#ffbe9d" />
  <path
    d="M407.65 137.06s.15.11.4.23a1.5 1.5 0 0 0 1.11.05c.91-.32 1.69-1.73 1.76-3.27a4.9 4.9 0 0 0-.37-2.13 1.71 1.71 0 0 0-1.09-1.16.75.75 0 0 0-.89.39c-.12.23-.07.4-.11.42s-.18-.15-.11-.5a1 1 0 0 1 .35-.53 1.14 1.14 0 0 1 .83-.2 2.11 2.11 0 0 1 1.52 1.35 5 5 0 0 1 .47 2.39c-.09 1.72-1 3.31-2.24 3.64a1.62 1.62 0 0 1-1.35-.25c-.26-.22-.31-.41-.28-.43Z"
    style="fill:#eb996e" />
  <path
    d="M419.72 120.16a7.65 7.65 0 0 0 .48-2.53 18.66 18.66 0 0 0-3.15-11.87 7.74 7.74 0 0 0-1.67-2c-.17.1 2.5 3.11 3.7 7.77s.45 8.62.64 8.63Z"
    style="fill:#ff725e" />
  <path
    d="M383.46 95c-1 3.41-6.56 7.5-9 10-4.74 4.85-5.62 5.56-6.57 21a36.7 36.7 0 0 1-2.56-15.61A18.58 18.58 0 0 1 371 98.65 14.48 14.48 0 0 1 383.46 95"
    style="fill:#263238" />
  <path
    d="M417.08 108.51a7.63 7.63 0 0 1-1.47.27c-.47.07-1.05.15-1.74.19s-1.45.12-2.31.11a40.38 40.38 0 0 1-6-.33 45.09 45.09 0 0 1-7.23-1.59 46.59 46.59 0 0 1-6.84-2.82 41.54 41.54 0 0 1-5.14-3.18c-.71-.48-1.3-1-1.83-1.41s-1-.82-1.32-1.15a9.1 9.1 0 0 1-1.06-1.06 8.41 8.41 0 0 1 1.19.91c.36.31.81.68 1.36 1.07s1.15.89 1.87 1.35a44.43 44.43 0 0 0 5.15 3 48.41 48.41 0 0 0 6.77 2.76 50.66 50.66 0 0 0 7.14 1.61 45.44 45.44 0 0 0 6 .43h2.3c.68 0 1.26-.05 1.73-.1a8.77 8.77 0 0 1 1.43-.06ZM417.57 114.67a4.44 4.44 0 0 1-1 .17 24.77 24.77 0 0 1-2.77.17 34.05 34.05 0 0 1-17.49-4.63 26.16 26.16 0 0 1-2.31-1.51 3.78 3.78 0 0 1-.79-.65c.05-.07 1.24.75 3.28 1.85a38.21 38.21 0 0 0 17.32 4.58c2.31.06 3.75-.07 3.76.02ZM419.7 115a5 5 0 0 1 .21 1.29c.08.85.13 2.07.12 3.58a52.35 52.35 0 0 1-.34 5.3 34.88 34.88 0 0 1-1.29 6.38 17.12 17.12 0 0 1-7.22 9.2 16.87 16.87 0 0 1-3.26 1.5 5.88 5.88 0 0 1-1.27.34 7 7 0 0 1 1.2-.53 21.18 21.18 0 0 0 3.14-1.62 15.66 15.66 0 0 0 3.85-3.49 17.19 17.19 0 0 0 3.06-5.55 36.42 36.42 0 0 0 1.31-6.29c.25-2 .38-3.75.45-5.25s.07-2.72 0-3.55a8.81 8.81 0 0 1 .04-1.31Z"
    style="fill:#455a64" />
  <path
    d="m302.66 164.2 24.72 25c3.25-.75 43.14-24.59 43.14-24.59l6.31 30.68s-40.83 18.8-52.06 16.52c-1.84-.37-4.85-.61-6.75-3C309 197.22 292 172.9 292 172.9ZM335.08 393.59l12.2 26.45 19.69-9.1-12.62-32.73-19.27 15.38z"
    style="fill:#ffbe9d" />
  <path d="m345 418.27 7.13 13.6s-18.28 18.87-16.56 23.13l42.9-20.57-11.79-27.27Z" style="fill:#455a64" />
  <path d="M364.48 423.65a2 2 0 0 1 2.17 1.42 1.86 1.86 0 0 1-1.39 2.16 2 2 0 0 1-2.29-1.51 1.94 1.94 0 0 1 1.69-2.09"
    style="fill:#e0e0e0" />
  <g style="opacity:.6000000000000001">
    <path d="m378.47 434.39-1.79-3.39-40.46 21s-1.51 1.75-.65 3Z" style="fill:#fff" />
  </g>
  <path
    d="M351.3 432c.11.21 1.2-.2 2.56 0s2.32.8 2.47.62-.74-1.23-2.38-1.42-2.79.61-2.65.8ZM347.69 436c.05.23 1.13.15 2.27.7s1.79 1.38 2 1.27-.23-1.36-1.65-2-2.71-.17-2.62.03ZM347.72 442.61c.21 0 0-1.23-1.09-2.12s-2.28-.87-2.29-.66.9.54 1.78 1.29 1.38 1.57 1.6 1.49ZM349.26 426.75c.18.15 1-.6 2.22-1.09s2.32-.56 2.35-.79-1.22-.55-2.66 0-2.1 1.76-1.91 1.88ZM334.11 408l-30.39-82.63s.72-13.73 3.25-18.07 79.15-29.64 79.15-29.64 19.52-4.7 32.53 0 26.23 10.5 24.93 19.62a23.46 23.46 0 0 1-1 4.1A33.17 33.17 0 0 1 412 323.84L401.82 325l-51.65 9.86a4 4 0 0 0-3.05 5l16.68 55.59s-18.22 8.89-29.69 12.55Z"
    style="fill:#263238" />
  <path d="m307.27 350.82-.72 29.12 21.68.53 3.13-34.94-24.09 5.29z" style="fill:#ffbe9d" />
  <path d="m306.55 376.06-.9 16.62s-24.7 8.88-25 13.42l47.58.48 1.46-29.67Z" style="fill:#455a64" />
  <path
    d="M305.43 383.31a1.71 1.71 0 0 1 0-.85 5.16 5.16 0 0 1 1-2.16 2.73 2.73 0 0 1 .57-.63 1.18 1.18 0 0 1 1.07-.22.74.74 0 0 1 .47.43.82.82 0 0 1 0 .58 5.21 5.21 0 0 1-.5.87c-.37.56-.68 1.12-1.15 1.75a1.43 1.43 0 0 1-1.27.51 2.81 2.81 0 0 1-1.23-.48 10.39 10.39 0 0 1-1.81-1.5 8.94 8.94 0 0 1-.71-.83 2.58 2.58 0 0 1-.54-1 .88.88 0 0 1 .55-1 1.3 1.3 0 0 1 1.12.22 6.6 6.6 0 0 1 1.21 1.22 8.24 8.24 0 0 1 1.18 2.06 2.16 2.16 0 0 1 .21.83 16.81 16.81 0 0 0-1.71-2.67 6.78 6.78 0 0 0-1.16-1.1.8.8 0 0 0-.68-.16.42.42 0 0 0-.23.53 2.42 2.42 0 0 0 .47.77 10 10 0 0 0 .69.79 10.48 10.48 0 0 0 1.72 1.4 2.32 2.32 0 0 0 1 .4.81.81 0 0 0 .77-.32c.4-.51.78-1.15 1.14-1.68a5 5 0 0 0 .48-.77c.1-.25 0-.4-.15-.47-.43-.16-.85.28-1.14.65a7.71 7.71 0 0 0-1.37 2.83Z"
    style="fill:#263238" />
  <path d="M320.39 390.77a2 2 0 0 1 1.32 2.23 1.88 1.88 0 0 1-2.2 1.33 2 2 0 0 1-1.39-2.37 1.93 1.93 0 0 1 2.44-1.13"
    style="fill:#e0e0e0" />
  <g style="opacity:.6000000000000001">
    <path d="m328.2 406.58-.09-3.86-45.58 1s-2.13.9-1.91 2.4Z" style="fill:#fff" />
  </g>
  <path
    d="M304.89 392.43c0 .23 1.16.35 2.3 1.11s1.73 1.74 1.95 1.65-.12-1.43-1.51-2.33-2.79-.64-2.74-.43ZM299.87 394.44c-.05.23.95.63 1.73 1.62s1 2 1.23 2 .39-1.32-.6-2.53-2.35-1.31-2.36-1.09ZM297 400.39c.21.05.55-1.11 0-2.39s-1.66-1.79-1.76-1.6.56.88 1 1.94.51 2.02.76 2.05ZM305.36 386.83c.1.21 1.17-.1 2.48 0s2.33.53 2.45.33-.85-1-2.4-1.13-2.64.61-2.53.8ZM319.94 270s-13-1-14.44 13.05-8.23 79.43-8.23 79.43l35.72 3 4.7-67.23 48.43-20.6s-57.51-9.47-66.18-7.65Z"
    style="fill:#263238" />
  <path
    d="M373.48 251s-7.88 22.1-6.38 24.56 21.78 12.61 21.78 12.61l50.73 19.48s5.21-8.29 5.21-21S427.18 251 427.18 251Z"
    style="fill:#263238" />
  <path
    d="M388.52 276.5a1.32 1.32 0 0 1-.24.12l-.72.34-2.81 1.25-10.54 4.59-36.41 15.67.16-.23c-.46 6.64-1 13.82-1.47 21.24-1.23 17.34-2.37 33.33-3.27 46v.23h-.23l-22.11-1.94-6.09-.57-1.59-.16a3.56 3.56 0 0 1-.55-.08 3.27 3.27 0 0 1 .55 0l1.6.1 6.1.45 22.1 1.71-.24.21c.87-12.65 2-28.65 3.16-46 .52-7.42 1-14.6 1.49-21.23v-.2l.15-.07 36.49-15.48 10.63-4.45 2.85-1.17.74-.29ZM428.87 278.71a8.83 8.83 0 0 1-1.42-.39l-3.82-1.23a82.44 82.44 0 0 0-12.79-3.23 37.37 37.37 0 0 0-13.08.16c-3.31.69-5.21 1.63-5.25 1.52a6.29 6.29 0 0 1 1.32-.66 22.72 22.72 0 0 1 3.84-1.25 35.16 35.16 0 0 1 13.26-.33 70.71 70.71 0 0 1 12.82 3.41c1.6.56 2.89 1.05 3.77 1.4a7.21 7.21 0 0 1 1.35.6Z"
    style="fill:#455a64" />
  <path
    d="M421.7 267.05a39.15 39.15 0 0 0-4.44 0c-1.36.09-3 .3-4.8.51s-3.79.46-5.84.85a27 27 0 0 0-9.94 3.69 29.06 29.06 0 0 0-3.45 2.78 3.9 3.9 0 0 1 .73-1 15.29 15.29 0 0 1 2.49-2.15 25.55 25.55 0 0 1 10.06-3.92c2.08-.39 4.08-.62 5.89-.81s3.45-.35 4.84-.39a17.94 17.94 0 0 1 3.29.15 3.91 3.91 0 0 1 1.17.29Z"
    style="fill:#455a64" />
  <path
    d="M348 424a2.27 2.27 0 0 1-.4-.86 6.38 6.38 0 0 1-.2-2.59 3.54 3.54 0 0 1 .2-.88 1.11 1.11 0 0 1 .86-.69.79.79 0 0 1 .64.22 1.07 1.07 0 0 1 .26.59 6.53 6.53 0 0 1 0 1.09c-.06.72-.06 1.42-.17 2.26a1.38 1.38 0 0 1-.89 1.08 2.7 2.7 0 0 1-1.35.05 10 10 0 0 1-2.35-.7 10.22 10.22 0 0 1-1.05-.51 3 3 0 0 1-.95-.72 1 1 0 0 1 0-1.28 1.22 1.22 0 0 1 1.14-.28 7.16 7.16 0 0 1 1.69.7 8.84 8.84 0 0 1 2.08 1.54 2.71 2.71 0 0 1 .59.73 18.56 18.56 0 0 0-2.85-1.92 8 8 0 0 0-1.58-.58c-.28 0-.58 0-.69.14a.49.49 0 0 0 .06.63 2.51 2.51 0 0 0 .8.56 8.37 8.37 0 0 0 1 .48 10.18 10.18 0 0 0 2.24.65 2.21 2.21 0 0 0 1.06 0 .8.8 0 0 0 .53-.66c.1-.69.13-1.5.2-2.19a7 7 0 0 0 .05-1c0-.29-.16-.42-.37-.41-.46 0-.63.66-.71 1.16A8.89 8.89 0 0 0 348 424Z"
    style="fill:#263238" />
  <path
    d="M372.23 163.87a16.49 16.49 0 0 0-8.43 7.32c-3.16 5.61-2.31 8.37-1.49 11.68s2.29 9.88 2.37 9.46 7.55-28.46 7.55-28.46Z"
    style="fill:#ffbe9d" />
  <path
    d="M425.71 173.86s-4.14-10-5-10.92l-15.28-3.86-9.55 4.68a16.85 16.85 0 0 1-8.92 1.77c-3.42-.32-6.42-1.7-7.93-4.23l-6 1.62s-9.48 28.61-9.29 36.53 3.49 30.42 3.11 34.86 1.23 16.69 6.63 16.69h53.7s12.12-3.36 12.65-10.65-14.12-66.49-14.12-66.49Z"
    style="fill:#ff725e" />
  <path
    d="M408.6 217.28a4.19 4.19 0 0 1-.9.76 17 17 0 0 1-2.78 1.62 16.66 16.66 0 0 1-4.58 1.37 15.85 15.85 0 0 1-5.86-.25 19.39 19.39 0 0 1-9.12-5.29 22.12 22.12 0 0 1-2.09-2.43 4.62 4.62 0 0 1-.63-1c.08-.06 1.05 1.31 3 3.14a20.11 20.11 0 0 0 9 5 16.41 16.41 0 0 0 10.15-.94c2.43-1.02 3.75-2.08 3.81-1.98Z"
    style="fill:#263238" />
  <path
    d="M383.54 213.3a15.6 15.6 0 0 0 5.51 10.55 13 13 0 0 0 11.49 2.5 11.12 11.12 0 0 0 7.85-8.52 33 33 0 0 1-8.57 3 16.82 16.82 0 0 1-16.54-7.83l.43.46M428.72 222c-5.67-11-11.67-22.4-21.59-29.8 2.2 7.52 4.17 14.59 6.6 22 .69 2.11 1.78 4.57 4 4.92.81.13 1.64-.07 2.44.09 1.38.27 2.32 1.5 3.06 2.69a7.52 7.52 0 0 0 2.73 3.11c1.26.62 3.18 0 3.3-1.36a3.15 3.15 0 0 0-.54-1.65Z"
    style="opacity:.30000000000000004" />
  <path
    d="m444.82 201-27.05 12.68s-12-24-12.93-27.33-3-9 .07-16a13.63 13.63 0 0 1 16.25-7.35c11.93 4.26 23.66 38 23.66 38ZM366.38 201c-1.26 0-15.77 7.59-15.77 7.59L341 180.72c12.47-6.76 26.33-16.3 33.54-18.24l-6.27 21.76Z"
    style="fill:#ff725e" />
  <path
    d="M420.42 212c5.12 8.42 8.7 13.26 8.7 13.26l-45.95 28 5.35 12.44 55.86-23a12.78 12.78 0 0 0 7.67-8.74 10.56 10.56 0 0 0-.13-5.59l-9.5-26.22Z"
    style="fill:#ffbe9d" />
  <path d="M440.3 229.54a40.58 40.58 0 0 0-5.5-2.86c-3.21-1.21-6.05-1.24-6-1.42a14.88 14.88 0 0 1 11.54 4.28Z"
    style="fill:#eb996e" />
  <path
    d="M368.05 176.21a6.54 6.54 0 0 0-.78 1.28 24.42 24.42 0 0 0-1.49 3.71 55.91 55.91 0 0 0-2.27 12.73 72.88 72.88 0 0 0 .15 12.86 35.08 35.08 0 0 0 .6 3.87 6.26 6.26 0 0 0 .38 1.4 5.87 5.87 0 0 0-.14-1.43c-.12-.91-.28-2.23-.39-3.86a89.47 89.47 0 0 1 0-12.81 65.33 65.33 0 0 1 2.07-12.67 34 34 0 0 1 1.29-3.73 6.7 6.7 0 0 0 .58-1.35Z"
    style="fill:#263238" />
  <path d="m347.51 261.77 11.49-5.48 22.36-1.78 1.83-1.26 5.35 12.44s-5.86 2.8-8.93 3.05l-18.81-.57-9.83 1Z"
    style="fill:#ffbe9d" />
  <path
    d="M444.82 201a2.23 2.23 0 0 0-.53.19l-1.5.63-5.47 2.43-18 8.19-2.19 1 .34.12c-3.12-6.43-5.85-12.19-7.79-16.35-.94-2-1.7-3.69-2.26-4.91l-.61-1.33a1.84 1.84 0 0 0-.25-.45 3.12 3.12 0 0 0 .15.49c.12.31.29.77.53 1.36.47 1.19 1.19 2.89 2.12 5 1.85 4.2 4.53 10 7.65 16.43l.11.23.23-.11 2.19-1 17.89-8.32 5.4-2.58 1.46-.73a2.69 2.69 0 0 0 .53-.29ZM419.93 163.07c0 .1-1.27.06-3.23.53a15.25 15.25 0 0 0-11 10.11c-.65 1.91-.72 3.18-.82 3.17a2.92 2.92 0 0 1 0-.89 13.24 13.24 0 0 1 .46-2.39 14.71 14.71 0 0 1 11.32-10.36A12.38 12.38 0 0 1 419 163a2.78 2.78 0 0 1 .93.07Z"
    style="fill:#263238" />
  <path
    d="M435.48 180.5a5 5 0 0 1-.36 1.2 12 12 0 0 1-1.54 3.05l-.71.89-.39.48-.46.43-1 .89-1.16.79a22 22 0 0 1-5.71 2.45c-4.24 1.19-8.17 1.75-10.89 2.6a40.29 40.29 0 0 0-4.32 1.63 5.2 5.2 0 0 1 1.06-.67 8.66 8.66 0 0 1 1.32-.63l.85-.36 1-.32c2.73-1 6.67-1.58 10.86-2.75a22.47 22.47 0 0 0 5.6-2.36l1.14-.75 1-.84c.15-.14.31-.26.45-.4l.38-.45.72-.84a14.21 14.21 0 0 0 1.65-2.92 6.11 6.11 0 0 1 .51-1.12ZM431.92 174.13a4.82 4.82 0 0 0-1.13.27 5.09 5.09 0 0 0-2.25 2.12c-.36.57-.72 1.22-1.2 1.89a10 10 0 0 1-1.82 1.87 15.76 15.76 0 0 1-5.33 2.59c-2 .61-4 1-5.71 1.39a25.69 25.69 0 0 0-4.51 1.47 16.23 16.23 0 0 0-3.65 2.37s.05-.1.18-.25a6.44 6.44 0 0 1 .61-.64 11.2 11.2 0 0 1 2.71-1.82 23 23 0 0 1 4.55-1.59c1.75-.46 3.7-.83 5.67-1.43a16.07 16.07 0 0 0 5.18-2.47 9.48 9.48 0 0 0 1.77-1.75c.47-.62.85-1.27 1.25-1.83a5 5 0 0 1 2.48-2.11 2.35 2.35 0 0 1 .89-.14c.2.01.31.04.31.06ZM410.1 198.18a1.92 1.92 0 0 1-.42.24l-1.27.59c-1.1.5-2.71 1.21-4.73 2a50 50 0 0 1-7.29 2.26 27.22 27.22 0 0 1-9.34.55 40.72 40.72 0 0 1-9-2.57 34.57 34.57 0 0 0-7.27-2 15 15 0 0 0-5.05.11c-1.18.25-1.8.53-1.81.48s.14-.09.43-.23a9.48 9.48 0 0 1 1.33-.45 14.25 14.25 0 0 1 5.14-.28 33.08 33.08 0 0 1 7.39 1.93 42.26 42.26 0 0 0 8.9 2.5 27.63 27.63 0 0 0 9.17-.5 54.6 54.6 0 0 0 7.26-2.13c2-.74 3.66-1.39 4.78-1.84l1.3-.5a1.56 1.56 0 0 1 .48-.16ZM365.71 189s.11-.11.35-.28a5.84 5.84 0 0 1 1.14-.58 9.22 9.22 0 0 1 4.67-.48 18.06 18.06 0 0 1 6.55 2.36 60.52 60.52 0 0 0 7.46 3.94 21.9 21.9 0 0 0 8.25 1.24 41.91 41.91 0 0 0 6.83-.82c1.93-.37 3.49-.74 4.56-1a11 11 0 0 1 1.68-.33 11.64 11.64 0 0 1-1.63.53c-1.06.31-2.6.73-4.53 1.15a39.3 39.3 0 0 1-6.9.94 21.8 21.8 0 0 1-8.44-1.23 57 57 0 0 1-7.51-4 18.25 18.25 0 0 0-6.37-2.41 9.46 9.46 0 0 0-4.55.3c-1.03.33-1.53.67-1.56.67ZM360.56 203.22h-.31a4.41 4.41 0 0 1-.85-.26 6.92 6.92 0 0 1-2.63-2 11.19 11.19 0 0 1-2.24-4.3 25.7 25.7 0 0 1-.72-5.87 41.12 41.12 0 0 0-.46-5.81 13.17 13.17 0 0 0-1.64-4.4 8.93 8.93 0 0 0-3.1-3s.11 0 .3.09a5 5 0 0 1 .8.39 7.68 7.68 0 0 1 2.29 2.34 12.8 12.8 0 0 1 1.8 4.5 37.23 37.23 0 0 1 .51 5.89 27 27 0 0 0 .66 5.77 11.48 11.48 0 0 0 2.06 4.19 7.54 7.54 0 0 0 2.43 2c.69.33 1.11.42 1.1.47ZM363.3 196.12a29.07 29.07 0 0 1-1.44-3.26l-3.35-7.86c-1.34-3.07-2.58-5.84-3.53-7.81s-1.61-3.16-1.55-3.2a3.11 3.11 0 0 1 .58.77c.33.52.78 1.29 1.3 2.26 1 1.94 2.34 4.69 3.68 7.77s2.45 5.9 3.21 8c.38 1 .67 1.87.86 2.46a3.49 3.49 0 0 1 .24.87Z"
    style="fill:#fff" />
  <path
    d="m283 217.62 64.48.53c2.09 0 4.09 1 4.4 3.07l7.05 47h33.21a1.94 1.94 0 0 1 0 3.88H286.11l-7.25-49.6a4.23 4.23 0 0 1 4.14-4.88Z"
    style="fill:#e0e0e0" />
  <path
    d="M283 217.62a3.58 3.58 0 0 0-1 .1 4.25 4.25 0 0 0-2.46 1.63 4.29 4.29 0 0 0-.8 2.06 12.49 12.49 0 0 0 .24 2.65l.93 6.55c1.42 9.85 3.46 24 6 41.51v.17h.18l102.9.06h2.77a2.69 2.69 0 0 0 1.47-.28 2.2 2.2 0 0 0 0-3.84 2.73 2.73 0 0 0-1.45-.28H359l.25.22c-2.54-16.83-4.91-32.53-7-46.62a3.63 3.63 0 0 0-1.19-2.45 4.84 4.84 0 0 0-2.47-1.09 20.8 20.8 0 0 0-2.6-.09h-2.53l-9.71-.07-17.25-.1-24.56-.13H283h2.27l6.57.09 24.56.27 17.25.17 9.71.1h2.53a21.34 21.34 0 0 1 2.54.09 4.42 4.42 0 0 1 2.25 1 3.26 3.26 0 0 1 1 2.21c2.11 14.08 4.45 29.79 7 46.62v.22h33a2.21 2.21 0 0 1 1.2.21 1.69 1.69 0 0 1 .76 2.05 1.66 1.66 0 0 1-.75.88 2.19 2.19 0 0 1-1.22.22H389l-102.9.06.19.17c-2.58-17.45-4.69-31.64-6.15-41.49-.37-2.45-.7-4.64-1-6.53a11.33 11.33 0 0 1-.26-2.62 4.1 4.1 0 0 1 .74-2 4.16 4.16 0 0 1 2.39-1.64 10.12 10.12 0 0 1 .99-.08Z"
    style="fill:#263238" />
  <circle cx="315.16" cy="244.26" r="4.04" style="fill:#fff" />
  <path
    d="M356.36 271.65c-.1 0-2.15-11.95-4.59-26.72s-4.34-26.77-4.25-26.78 2.14 11.95 4.58 26.72 4.35 26.77 4.26 26.78ZM34 478c0-.14 96.73-.26 216-.26s216 .08 216 .26-96.71.26-216 .26-216-.16-216-.26Z"
    style="fill:#263238" />
</svg>