<svg width="446" height="409" viewBox="0 0 446 409" fill="none" xmlns="http://www.w3.org/2000/svg">
  <path
    d="M407 200C407 227.446 401.736 254.624 391.509 279.981C381.283 305.338 366.293 328.378 347.396 347.785C328.499 367.193 306.066 382.588 281.376 393.091C256.686 403.594 230.224 409 203.5 409C176.776 409 150.314 403.594 125.624 393.091C100.934 382.588 78.5005 367.193 59.6038 347.785C40.707 328.378 25.7173 305.338 15.4905 279.981C5.26368 254.624 -2.33629e-06 227.446 0 200L407 200Z"
    fill="#00ADB4" fill-opacity="0.3" class="svg-elem-1"></path>
  <path
    d="M267.872 151.046C316.602 151.046 362.166 164.142 392.875 186.946L387.742 189.459C358.986 168.077 316.66 155.605 271.181 154.995V166.339C344.295 167.466 403.229 203.618 403.229 247.918C403.229 262.214 397.076 275.662 386.298 287.358L402.576 293.296C415.126 279.762 422.062 264.224 422.062 247.918C422.062 232.237 415.456 216.735 402.963 203.101L408.75 201.176C421.782 215.4 428.675 231.562 428.675 247.918C428.675 267.699 418.838 286.69 400.228 302.939C382.048 318.778 356.796 330.897 327.2 337.977L324.759 334.272C356.523 326.69 382.235 313.364 399.237 296.735L382.953 290.79C359.058 313.981 316.416 329.454 267.872 329.454C193.243 329.454 132.521 292.836 132.521 247.918C132.521 219.981 155.864 194.291 194.987 179.206L198.577 182.559C161.385 196.919 139.177 221.331 139.177 247.897C139.177 275.899 163.948 300.49 200.99 314.125L209.477 306.004C194.133 300.397 181.008 292.535 171.315 282.827L176.98 280.774C196.366 300.16 230.356 311.777 267.915 311.777C300.576 311.777 330.926 302.91 351.203 287.451L356.394 289.921C347.37 296.642 337.402 301.989 326.812 305.789L334.976 314.082C371.924 300.44 396.623 275.884 396.623 247.918C396.623 205.154 338.867 170.374 267.879 170.374C249.961 170.294 232.112 172.602 214.804 177.238L212.076 173.648C229.208 169.053 246.853 166.641 264.59 166.468V155.088C181.058 156.122 113.688 197.364 113.688 247.918C113.688 299.133 182.853 340.799 267.872 340.799C278.235 340.793 288.588 340.158 298.875 338.896L300.196 342.795C289.476 344.104 278.686 344.758 267.886 344.755C179.227 344.755 107.054 301.302 107.054 247.889C107.054 194.477 179.213 151.046 267.872 151.046ZM321.068 307.771C304.949 312.976 286.776 315.784 267.864 315.784C248.952 315.784 231.096 313.048 215.192 308.022L206.684 316.171C224.892 322.124 245.736 325.505 267.872 325.505C290.007 325.505 310.987 322.102 329.246 316.114L321.068 307.771Z"
    fill="#333333" class="svg-elem-2"></path>
  <path
    d="M163.597 273.644C158.032 265.473 155.218 256.814 155.218 247.918C155.218 210.496 205.758 180.046 267.872 180.046C294.301 180.046 319.999 185.675 340.218 195.885L335.967 198.936C316.933 189.322 292.751 184.031 267.872 184.031C251.58 183.956 235.368 186.303 219.766 190.995L228.949 202.785C241.558 198.912 254.682 196.975 267.872 197.041C273.246 197.039 278.616 197.345 283.955 197.96L282.706 201.873C277.781 201.312 272.828 201.034 267.872 201.04C225.574 201.04 191.11 221.424 190.077 246.748H212.284C212.65 240.286 216.068 234.082 222.221 228.762L227.642 231.045C221.898 236.007 218.861 241.815 218.861 247.918C218.861 263.197 238.642 276.128 263.894 277.356L263.37 281.327C256.557 281.013 249.807 279.877 243.266 277.945L231.728 289.433C243.44 293.061 255.639 294.877 267.901 294.818C294.998 294.818 318.879 286.432 332.844 273.745L313.415 267.211C307.549 272.237 299.385 276.294 289.555 278.799L286.978 275.13C288.629 274.704 290.226 274.226 291.767 273.694L281.887 264.432C277.351 265.796 272.637 266.478 267.901 266.457C265.472 266.459 263.046 266.287 260.642 265.94L262.192 262.07C264.095 262.346 266.014 262.483 267.936 262.479C281.291 262.479 292.147 255.938 292.147 247.897C292.147 239.855 281.227 233.35 267.872 233.35C254.517 233.35 243.668 239.898 243.668 247.94C243.668 251.393 245.714 254.754 249.412 257.381L244.386 259.959C239.654 256.613 237.048 252.341 237.048 247.94C237.048 237.701 250.87 229.372 267.865 229.372C272.659 229.351 277.43 230.05 282.016 231.447L292.033 222.221C284.241 219.638 276.08 218.343 267.872 218.387C257.439 218.387 247.481 220.333 239.073 224.023L235.181 220.799C244.724 216.613 256.003 214.402 267.872 214.402C286.734 214.402 304.16 220.096 314.484 229.616L308.949 231.77C305.555 228.734 301.708 226.246 297.547 224.397L287.538 233.608C294.344 237.019 298.696 242.153 298.696 247.897C298.696 253.641 294.287 258.846 287.387 262.257L297.281 271.548C309.487 266.055 316.89 257.367 316.89 247.918C316.884 245.431 316.381 242.971 315.411 240.681L321.786 239.711C322.886 242.308 323.457 245.098 323.467 247.918C323.467 253.59 321.097 259.026 316.825 263.808L336.211 270.327C342.257 263.664 345.696 256.032 345.696 247.918C345.696 229.968 328.356 213.382 301.51 205.614L304.382 202.024C332.506 210.166 351.009 227.247 352.244 245.922H373.856C373.188 232.625 365.85 220.038 352.502 209.412L357.773 207.007C372.664 218.861 380.533 233.005 380.533 247.933C380.533 258.509 376.606 268.64 368.859 278.045L362.935 276.279C369.734 268.015 373.411 259.162 373.87 249.921H352.251C350.506 277.055 313.336 298.81 267.872 298.81C221.302 298.81 183.413 275.985 183.413 247.933C183.413 229.753 199.324 213.784 223.191 204.781L213.943 192.927C182.774 204.07 161.83 224.519 161.83 247.918C161.83 256.297 164.48 264.432 169.728 272.129L163.597 273.644ZM225.991 287.415L237.515 275.927C223.535 270.384 213.936 261.165 212.457 250.718H190.199C191.699 266.134 205.614 279.546 225.991 287.415Z"
    fill="#333333" class="svg-elem-3"></path>
  <path opacity="0.3"
    d="M246.108 232.754C246.173 232.546 246.381 231.9 250.416 232.216L258.508 232.826C259.442 232.108 270.355 223.894 270.391 223.973C270.793 223.614 276.796 218.437 278.655 216.951C278.014 216.936 277.394 216.714 276.889 216.319C276.638 216.025 275.575 214.668 275.388 214.424C271.633 212.047 264.504 207.545 264.058 207.308C262.823 206.648 262.673 206.037 262.766 205.642C262.902 205.032 263.678 204.673 264.92 204.63C265.681 204.63 268.417 204.099 271.583 203.524C277.09 202.519 284.636 201.148 288.205 201.054C291.937 201.02 295.662 201.378 299.319 202.124C300.92 202.34 303.003 202.67 305.365 203.115C305.78 202.01 306.38 200.983 307.138 200.078C306.162 199.022 306.226 198.082 306.822 197.565C307.253 197.192 312.258 196.588 312.509 197.055C314.297 197.055 316.3 197.192 318.203 197.357C317.966 197.17 318.748 196.897 319.588 197.486C320.802 197.615 321.936 197.766 322.906 197.938C328.054 198.843 335.061 201.241 335.722 202.964C335.952 203.567 335.564 204.106 334.939 204.558C335.729 204.795 335.119 205.355 334.128 205.054C333.911 205.17 333.688 205.276 333.46 205.37C333.826 205.449 332.972 206.001 332.268 205.836C332.357 205.893 332.428 205.972 332.476 206.065C332.524 206.159 332.546 206.263 332.541 206.368C332.491 207.43 329.21 207.847 329.181 207.847C328.957 207.873 328.732 207.885 328.506 207.883C327.678 207.871 326.857 207.743 326.065 207.502C325.627 207.646 325.175 207.782 324.715 207.918C325.034 208.151 325.331 208.41 325.605 208.694C327.372 209.412 329.691 210.403 331.794 211.365H331.895C335.128 212.661 338.274 214.162 341.315 215.86C341.543 215.962 341.734 216.132 341.863 216.346C341.991 216.561 342.051 216.809 342.033 217.059C341.861 218.796 337.172 221.295 328.111 224.49L327.968 224.54C326.425 225.101 324.798 225.393 323.157 225.402C322.13 225.398 321.106 225.28 320.105 225.05C317.743 227.549 310.865 237.974 308.912 239.324C307.792 240.106 302.924 250.28 300.102 253.088C300.418 253.346 299.93 253.878 299.592 253.598C298.917 254.316 297.481 256.269 297.144 256.068L296.713 256.506C296.95 256.62 296.49 257.224 296.182 257.044L294.746 258.48C295.176 259.342 295.801 260.9 295.133 261.632C294.798 261.973 294.392 262.239 293.945 262.41C293.498 262.581 293.019 262.653 292.541 262.623C291.39 262.582 290.256 262.321 289.203 261.855C286.69 260.821 285.541 259.406 285.785 257.626C285.819 257.376 285.891 257.134 286 256.908C285.966 256.866 285.942 256.817 285.93 256.765C285.917 256.713 285.917 256.659 285.929 256.606L288.578 247.021C288.298 246.367 293.281 225.581 293.281 225.581C293.196 225.564 293.12 225.519 293.066 225.452C290.287 227.161 282.791 231.641 277.751 233.644C277.966 233.881 278.189 234.118 278.426 234.362C278.459 234.396 278.486 234.436 278.504 234.479C278.522 234.523 278.532 234.57 278.532 234.617C278.532 234.665 278.522 234.712 278.504 234.755C278.486 234.799 278.459 234.839 278.426 234.872C278.393 234.907 278.354 234.934 278.311 234.953C278.268 234.971 278.221 234.981 278.174 234.981C278.127 234.981 278.081 234.971 278.037 234.953C277.994 234.934 277.955 234.907 277.923 234.872C277.614 234.571 277.32 234.255 277.033 233.932C274.862 234.556 272.604 234.822 270.348 234.721C267.598 235.54 265.695 236.021 265.652 236.028C265.473 236.049 265.293 236.049 265.114 236.028C264.673 236.105 264.226 236.141 263.778 236.136C262.525 236.101 261.276 235.964 260.045 235.727L259.714 235.676C258.953 235.575 258.185 235.53 257.417 235.54C256.099 235.543 254.783 235.464 253.475 235.303C250.502 234.922 247.408 234.025 246.489 233.458C246.044 233.214 246.058 232.912 246.108 232.754ZM276.358 208.069L279.948 213.727L281.635 214.61L281.8 214.481C281.793 214.421 281.793 214.361 281.8 214.302C282.016 213.727 285.72 209.441 288.391 206.605H288.011L276.358 208.069Z"
    fill="black" class="svg-elem-4"></path>
  <path
    d="M247.113 143.399L251.572 147.118C251.572 147.118 252.441 148.482 251.823 149.229C251.346 149.848 250.93 150.512 250.581 151.211C250.581 151.211 249.863 152.697 249.095 152.948C248.327 153.2 247.479 153.322 246.984 152.453C246.489 151.584 244.011 146.996 244.011 146.996L247.113 143.399Z"
    stroke="#333333" stroke-linecap="round" stroke-linejoin="round" class="svg-elem-5"></path>
  <path
    d="M290.861 247.653C290.861 247.653 294.257 255.027 294.408 258.272C294.559 261.517 293.812 264.913 290.1 262.846C286.388 260.778 284.823 255.486 284.047 252.076C283.595 250.345 283.396 248.557 283.458 246.77L290.861 247.653Z"
    stroke="#333333" stroke-linecap="round" stroke-linejoin="round" class="svg-elem-6"></path>
  <path
    d="M249.706 230.837C249.706 230.837 244.249 233.932 241.593 235.411C238.936 236.89 238.053 239.094 239.23 240.279C240.408 241.463 243.653 242.196 246.31 241.306C248.966 240.415 250.144 238.211 251.623 237.917C253.102 237.622 256.197 237.328 256.649 233.343C257.101 229.358 249.706 230.837 249.706 230.837Z"
    stroke="#333333" stroke-linecap="round" stroke-linejoin="round" class="svg-elem-7"></path>
  <path
    d="M288.758 147.118C288.758 147.118 290.495 190.148 290.122 197.335C289.749 204.522 291.242 248.177 291.242 248.177C290.06 249.26 288.501 249.837 286.898 249.785C284.026 249.785 283.308 248.672 283.308 248.672L268.051 168.73C268.051 168.73 265.696 199.977 262.845 212.528C261.133 220.052 259.031 227.481 256.548 234.786C256.548 234.786 256.024 236.114 252.678 235.454C249.763 234.879 248.708 231.483 248.708 231.483C248.708 231.483 249.325 199.891 249.203 180.398C249.081 160.904 249.699 142.703 249.699 142.703C249.699 142.703 262.845 147.011 272.265 148.159C277.78 148.839 283.373 148.485 288.758 147.118Z"
    fill="#333333" class="svg-elem-8"></path>
  <mask id="mask0_425_64" style="mask-type:luminance" maskUnits="userSpaceOnUse" x="248" y="142" width="44"
    height="108">
    <path
      d="M288.758 147.118C288.758 147.118 290.495 190.148 290.122 197.335C289.749 204.522 291.242 248.177 291.242 248.177C290.06 249.26 288.501 249.837 286.898 249.785C284.026 249.785 283.308 248.672 283.308 248.672L268.051 168.73C268.051 168.73 265.696 199.977 262.845 212.528C261.133 220.052 259.031 227.481 256.548 234.786C256.548 234.786 256.024 236.114 252.678 235.454C249.763 234.879 248.708 231.483 248.708 231.483C248.708 231.483 249.325 199.891 249.203 180.398C249.081 160.904 249.699 142.703 249.699 142.703C249.699 142.703 262.845 147.011 272.265 148.159C277.78 148.839 283.373 148.485 288.758 147.118Z"
      fill="white" class="svg-elem-9"></path>
  </mask>
  <g mask="url(#mask0_425_64)">
    <path
      d="M270.721 189.38C274.387 199.04 278.954 208.334 284.363 217.138C286.855 221.255 289.575 225.23 292.513 229.042"
      stroke="#8A8A8A" stroke-linecap="round" stroke-linejoin="round" class="svg-elem-10"></path>
    <path
      d="M280.501 221.862C282.088 224.904 283.86 227.846 285.807 230.672C287.719 233.532 289.979 236.144 292.534 238.448"
      stroke="#8A8A8A" stroke-linecap="round" stroke-linejoin="round" class="svg-elem-11"></path>
    <path d="M274.19 207.028C275.51 210.943 277.053 214.778 278.813 218.516" stroke="#8A8A8A" stroke-linecap="round"
      stroke-linejoin="round" class="svg-elem-12"></path>
    <path d="M248.349 177.719C248.349 177.719 256.247 201.988 264.733 215.221" stroke="#8A8A8A" stroke-linecap="round"
      stroke-linejoin="round" class="svg-elem-13"></path>
    <path d="M248.664 185.28C250.918 199.769 253.46 214.388 259.814 227.642" stroke="#8A8A8A" stroke-linecap="round"
      stroke-linejoin="round" class="svg-elem-14"></path>
    <path d="M268.201 171.731L266.622 167.947L262.213 165.427" stroke="#8A8A8A" stroke-linecap="round"
      stroke-linejoin="round" class="svg-elem-15"></path>
    <path
      d="M250.668 141.13C250.668 141.13 255.837 146.106 268.761 147.492C281.685 148.877 287.645 147.492 287.645 147.492C287.645 147.492 289.275 148.274 288.262 149.473C288.262 149.473 289.038 150.672 284.866 151.67C282.796 152.154 280.69 152.471 278.569 152.618L278.699 150.464L276.315 150.062V152.704C274.122 152.746 271.93 152.638 269.752 152.381V150.062L267.964 149.868L268.108 152.166L267.39 152.051C264.072 151.522 260.81 150.686 257.647 149.552V146.092L255.062 145.89L255.299 148.612C253.687 147.959 252.197 147.039 250.89 145.89C250.233 145.287 249.84 144.448 249.798 143.556C249.756 142.664 250.069 141.792 250.668 141.13Z"
      fill="#969696" class="svg-elem-16"></path>
    <path d="M282.382 233.501C285.573 236.554 288.928 239.43 292.434 242.117" stroke="#8A8A8A" stroke-linecap="round"
      stroke-linejoin="round" class="svg-elem-17"></path>
  </g>
  <path
    d="M288.758 147.118C288.758 147.118 290.495 190.148 290.122 197.335C289.749 204.522 291.242 248.177 291.242 248.177C290.06 249.26 288.501 249.837 286.898 249.785C284.026 249.785 283.308 248.672 283.308 248.672L268.051 168.73C268.051 168.73 265.696 199.977 262.845 212.528C261.133 220.052 259.031 227.481 256.548 234.786C256.548 234.786 256.024 236.114 252.678 235.454C249.763 234.879 248.708 231.483 248.708 231.483C248.708 231.483 249.325 199.891 249.203 180.398C249.081 160.904 249.699 142.703 249.699 142.703C249.699 142.703 262.845 147.011 272.265 148.159C277.78 148.839 283.373 148.485 288.758 147.118Z"
    stroke="#333333" stroke-linecap="round" stroke-linejoin="round" class="svg-elem-18"></path>
  <path
    d="M252.305 89.3337C250.43 89.4051 248.587 89.8472 246.884 90.6347C245.181 91.4222 243.651 92.5394 242.382 93.9218C238.074 98.639 228.74 121.701 227.132 123.561C225.523 125.42 226.119 129.046 228.388 130.956C229.106 131.581 243.997 146.996 243.997 146.996L247.099 143.406L238.289 125.054L248.83 106.982"
    stroke="#333333" stroke-linecap="round" stroke-linejoin="round" class="svg-elem-19"></path>
  <path d="M247.573 105.36L247.178 102.157L245.979 111.484L247.444 109.754L247.573 105.36Z" fill="#333333"
    stroke="#333333" stroke-linecap="round" stroke-linejoin="round" class="svg-elem-20"></path>
  <path
    d="M233.263 127.804C236.394 127.976 238.289 125.025 238.289 125.025C237.924 126.171 237.209 127.173 236.244 127.891C235.279 128.608 234.113 129.005 232.911 129.025"
    stroke="#333333" stroke-linecap="round" stroke-linejoin="round" class="svg-elem-21"></path>
  <path
    d="M247.523 106.199C247.796 117.249 249.117 141.03 249.454 143.026C249.828 145.259 252.427 146.616 262.723 149.725C273.019 152.834 287.271 151.706 288.262 149.473C289.253 147.24 291.242 136.334 291.242 131.121C291.242 125.909 296.196 105.704 291.859 101.116C287.523 96.528 275.618 90.346 275.618 90.346C266.069 86.6196 255.651 87.9838 251.436 89.628C250.779 89.865 250.163 90.2042 249.612 90.6332"
    stroke="#333333" stroke-linecap="round" stroke-linejoin="round" class="svg-elem-22"></path>
  <path
    d="M271.77 102.724L267.677 106.2L270.535 141.662L263.714 148.734L259.126 138.438L265.322 105.704L262.349 100.865L267.059 96.406L271.77 102.724Z"
    stroke="#333333" stroke-linecap="round" stroke-linejoin="round" class="svg-elem-23"></path>
  <path d="M260.368 131.861L270.334 139.22L270.535 141.662L268.266 144.009L259.32 137.404L260.368 131.861Z"
    fill="#333333" class="svg-elem-24"></path>
  <path d="M264.13 112.008L265.179 106.465L267.864 108.44L268.402 115.16L264.13 112.008Z" fill="#333333"
    class="svg-elem-25"></path>
  <path d="M262.773 119.159L269.098 123.834L269.637 130.554L261.724 124.71L262.773 119.159Z" fill="#333333"
    class="svg-elem-26"></path>
  <path
    d="M275.618 87.9694C275.618 87.9694 279.208 91.8179 279.208 93.0529C279.208 94.2878 275.862 103.722 274.993 104.591C274.125 105.46 267.311 100.003 267.311 100.003C267.311 100.003 260.131 104.218 259.621 103.593C259.111 102.968 260.238 96.1546 261.603 92.6867C262.967 89.2187 270.283 84.5015 275.618 87.9694Z"
    stroke="#333333" stroke-linecap="round" stroke-linejoin="round" class="svg-elem-27"></path>
  <path
    d="M274.003 93.053C274.003 93.053 270.284 102.602 266.564 103.105C262.845 103.608 262.098 95.4224 262.35 93.053C262.601 90.6836 270.808 87.3521 274.003 93.053Z"
    fill="#333333" stroke="#333333" stroke-linecap="round" stroke-linejoin="round" class="svg-elem-28"></path>
  <path
    d="M256.512 73.7099C256.512 73.7099 257.108 84.1568 258.3 88.6299C259.492 93.1031 260.985 97.8778 263.52 98.4809C266.054 99.084 271.418 96.5351 273.967 94.1729C276.516 91.8107 279.187 79.9996 279.187 76.5675C279.187 73.1355 269.788 70.1486 264.568 70.005C263.032 69.9687 261.508 70.2836 260.112 70.9256C258.715 71.5677 257.484 72.52 256.512 73.7099Z"
    stroke="#333333" stroke-linecap="round" stroke-linejoin="round" class="svg-elem-29"></path>
  <path d="M262.436 84.1711V89.9941L264.748 90.3388" stroke="#333333" stroke-linecap="round" stroke-linejoin="round"
    class="svg-elem-30"></path>
  <path d="M270.743 84.1711C270.743 84.1711 269.372 85.7148 265.43 84.6019" stroke="#333333" stroke-linecap="round"
    stroke-linejoin="round" class="svg-elem-31"></path>
  <path d="M261.919 84.0851C261.919 84.0851 260.296 84.602 258.58 82.9722" stroke="#333333" stroke-linecap="round"
    stroke-linejoin="round" class="svg-elem-32"></path>
  <path d="M262.264 83.3598C262.264 83.3598 261.546 81.4571 258.444 80.854" stroke="#333333" stroke-linecap="round"
    stroke-linejoin="round" class="svg-elem-33"></path>
  <path
    d="M264.978 83.762C265.729 83.0453 266.651 82.531 267.655 82.2673C268.66 82.0036 269.715 81.9991 270.722 82.2542"
    stroke="#333333" stroke-linecap="round" stroke-linejoin="round" class="svg-elem-34"></path>
  <path d="M264.877 93.103L262.565 92.7009" stroke="#333333" stroke-linecap="round" stroke-linejoin="round"
    class="svg-elem-35"></path>
  <path
    d="M269.371 85.2698C268.983 85.4706 268.552 85.5754 268.115 85.5754C267.677 85.5754 267.246 85.4706 266.858 85.2698"
    stroke="#333333" stroke-linecap="round" stroke-linejoin="round" class="svg-elem-36"></path>
  <path d="M261.56 84.5732C261.135 84.6749 260.692 84.6725 260.268 84.5662C259.844 84.46 259.452 84.253 259.126 83.9629"
    stroke="#333333" stroke-linecap="round" stroke-linejoin="round" class="svg-elem-37"></path>
  <path
    d="M278.44 80.4161C278.44 80.4161 275.309 82.3547 273.816 80.7176C272.322 79.0806 273.177 78.7072 272.581 77.5153C271.985 76.3235 270.807 76.984 270.664 79.2242C270.52 81.4643 272.473 81.6079 270.089 81.9095C267.706 82.2111 267.469 82.9362 261.797 80.3945C256.124 77.8528 253.676 70.7231 253.676 66.8387C253.676 62.9543 261.883 56.8441 266.801 56.0687C271.719 55.2932 279.488 58.3447 281.577 63.7154C283.667 69.086 281.276 76.546 281.125 77.4435C280.974 78.341 280.974 79.9781 278.44 80.4161Z"
    fill="#333333" class="svg-elem-38"></path>
  <mask id="mask1_425_64" style="mask-type:luminance" maskUnits="userSpaceOnUse" x="253" y="55" width="30" height="28">
    <path
      d="M278.44 80.4161C278.44 80.4161 275.309 82.3547 273.816 80.7176C272.322 79.0806 273.177 78.7072 272.581 77.5153C271.985 76.3235 270.807 76.984 270.664 79.2242C270.52 81.4643 272.473 81.6079 270.089 81.9095C267.706 82.2111 267.469 82.9362 261.797 80.3945C256.124 77.8528 253.676 70.7231 253.676 66.8387C253.676 62.9543 261.883 56.8441 266.801 56.0687C271.719 55.2932 279.488 58.3447 281.577 63.7154C283.667 69.086 281.276 76.546 281.125 77.4435C280.974 78.341 280.974 79.9781 278.44 80.4161Z"
      fill="white" class="svg-elem-39"></path>
  </mask>
  <g mask="url(#mask1_425_64)">
    <path d="M260.275 66.0562C263.807 70.4647 270.557 75.0886 283.337 74.9306" stroke="#8A8A8A" stroke-linecap="round"
      stroke-linejoin="round" class="svg-elem-40"></path>
    <path d="M256.541 58.2803C256.917 60.1636 257.614 61.9682 258.602 63.615" stroke="#8A8A8A" stroke-linecap="round"
      stroke-linejoin="round" class="svg-elem-41"></path>
    <path d="M261.897 55.76C261.897 55.76 271.669 69.6461 285.218 71.5129" stroke="#8A8A8A" stroke-linecap="round"
      stroke-linejoin="round" class="svg-elem-42"></path>
  </g>
  <path
    d="M276.243 82.0603C276.243 82.0603 277.872 76.8692 280.486 76.8117C283.1 76.7543 281.613 82.2542 280.486 84.1353C280.195 84.6477 279.719 85.0297 279.156 85.2032C278.593 85.3767 277.985 85.3286 277.456 85.0687"
    stroke="#333333" stroke-linecap="round" stroke-linejoin="round" class="svg-elem-43"></path>
  <path
    d="M280.141 81.6582C280.141 81.6582 280.744 79.1452 279.538 79.6478C278.332 80.1504 277.729 81.9525 277.729 81.9525C277.729 81.9525 278.734 81.852 278.633 82.4551C278.533 83.0583 277.829 83.0583 277.829 83.0583"
    stroke="#333333" stroke-linecap="round" stroke-linejoin="round" class="svg-elem-44"></path>
  <path
    d="M286.403 96.6501C290.565 98.9476 294.436 101.737 297.934 104.957C302.773 109.675 295.579 138.811 294.71 142.408C293.453 147.599 291.608 149.969 289.009 149.847C286.41 149.725 277.6 134.474 274.871 127.897C273.03 123.149 271.589 118.254 270.563 113.265C270.563 113.265 267.088 111.9 266.471 110.665C266.064 109.828 265.732 108.956 265.48 108.059C265.48 108.059 264.855 109.919 263.742 109.423C262.63 108.928 262.127 106.077 261.883 104.089C261.639 102.1 266.715 100.369 266.715 100.369C266.715 100.369 266.097 97.7701 264.611 97.3968C263.125 97.0234 261.387 95.6592 261.883 94.9125C262.378 94.1658 266.593 96.7793 266.593 96.7793C266.593 96.7793 269.939 101.985 271.181 104.34C271.992 105.884 273.967 110.177 275.238 112.956C276.01 114.655 276.946 116.276 278.031 117.795L284.076 126.282C284.076 126.282 284.32 111.032 284.32 110.407"
    stroke="#333333" stroke-linecap="round" stroke-linejoin="round" class="svg-elem-45"></path>
  <path d="M284.091 115.081L281.958 109.754" stroke="#333333" stroke-linecap="round" stroke-linejoin="round"
    class="svg-elem-46"></path>
  <path
    d="M291.953 135.874C291.953 134.438 284.055 126.289 284.055 126.289C284.055 126.289 292.757 131.875 293.69 133.469"
    stroke="#333333" stroke-linecap="round" stroke-linejoin="round" class="svg-elem-47"></path>
  <path
    d="M266.442 110.665C266.035 109.828 265.704 108.956 265.451 108.059C265.451 108.059 264.827 109.919 263.714 109.423C262.601 108.928 262.098 106.077 261.854 104.089C261.61 102.1 266.313 100.247 266.313 100.247C266.313 100.247 265.595 98.0143 264.582 97.3753C263.276 96.5639 261.359 95.6377 261.854 94.891C262.134 94.4674 263.628 94.891 264.855 95.3362C265.933 95.72 266.833 96.4866 267.383 97.4902C268.46 99.4072 270.298 102.717 271.152 104.333C271.87 105.769 273.622 109.481 274.886 112.231C274.34 113.178 273.191 114.313 270.8 114.514C270.628 113.717 270.535 113.25 270.535 113.25C270.535 113.25 267.06 111.9 266.442 110.665Z"
    stroke="#333333" stroke-linecap="round" stroke-linejoin="round" class="svg-elem-48"></path>
  <path
    d="M266.564 104.713C265.295 105.226 264.053 105.806 262.845 106.451C262.746 106.497 262.657 106.564 262.584 106.645C262.511 106.727 262.455 106.823 262.42 106.927C262.386 107.031 262.372 107.141 262.381 107.251C262.39 107.36 262.421 107.467 262.472 107.564"
    stroke="#333333" stroke-linecap="round" stroke-linejoin="round" class="svg-elem-49"></path>
  <path d="M266.809 102.358C266.809 102.358 262.594 104.34 261.976 104.957" stroke="#333333" stroke-linecap="round"
    stroke-linejoin="round" class="svg-elem-50"></path>
</svg>