<svg width="775" height="920" viewBox="0 0 775 920" fill="none" xmlns="http://www.w3.org/2000/svg">
<path fill-rule="evenodd" clip-rule="evenodd" d="M774.676 666.37C774.413 666.37 773.912 664.816 773.562 662.917C772.817 658.865 769.879 652.233 766.68 647.378C764.497 644.065 752.57 628.252 730.024 598.778C724.169 591.125 716.485 581.051 712.947 576.393C709.41 571.735 703.543 564.1 699.91 559.428C696.277 554.755 693.057 550.525 692.754 550.028C692.155 549.043 686.25 541.305 678.443 531.273C675.718 527.772 672.739 523.828 671.822 522.509C670.906 521.191 666.805 515.766 662.709 510.456C658.613 505.145 650.582 494.666 644.861 487.168C639.141 479.671 631.708 469.958 628.343 465.584C624.978 461.211 616.916 450.633 610.426 442.078C603.936 433.523 595.778 422.768 592.296 418.178C581.709 404.222 572.502 392.188 566.446 384.391C563.278 380.314 559.439 375.281 557.914 373.208C554.571 368.664 535.94 344.166 519.529 322.734C503.166 301.366 498.645 295.443 484.409 276.727C462.677 248.156 365.166 120.323 363.818 118.586C363.818 118.586 363.818 118.586 294.334 27.4615C295.169 28.5548 290.007 21.8139 294.334 27.4615C363.818 118.586 278.011 6.07712 294.334 27.4615C363.818 118.586 293.138 25.8603 294.334 27.4615C295.606 29.1336 291.352 23.5565 294.334 27.4615C289.172 20.6722 282.365 12.676 279.84 10.4353C276.891 7.81743 269.497 3.69267 264.775 2.03129C262.296 1.15943 260.103 0.966309 252.665 0.966309C244.613 0.966309 243.574 1.85502 240.159 3.03133C231.434 6.03601 65.889 151.91 65.889 151.91C65.889 151.91 0.0291975 199.337 0.00387657 281.809V281.809C0.00387657 310.688 6.5461 339.192 19.1393 365.181L22.018 371.122L65.5462 450.816L67.9797 455.076C69.3179 457.419 70.9489 460.359 71.6045 461.608C72.2595 462.858 74.4624 466.82 76.5001 470.412C78.5379 474.005 82.6295 481.417 85.5932 486.884C88.5563 492.351 92.0241 498.613 93.2995 500.8C94.5749 502.987 100.022 512.827 105.405 522.667C110.786 532.508 115.627 541.326 116.162 542.263C116.696 543.2 120.789 550.613 125.257 558.735C129.725 566.857 133.927 574.397 134.594 575.491C135.804 577.473 148.762 600.89 155.809 613.83C157.851 617.579 161.684 624.48 164.328 629.166C166.972 633.852 170.919 641.009 173.099 645.07C175.279 649.131 185.527 667.72 195.873 686.378C206.219 705.037 214.683 720.454 214.683 720.64C214.683 720.825 215.378 722.045 216.228 723.351C217.077 724.656 220.831 731.348 224.569 738.221C228.308 745.093 231.918 751.611 232.591 752.705C233.265 753.798 237.237 760.955 241.418 768.608C245.599 776.262 251.113 786.23 253.672 790.76C256.231 795.29 259.551 801.296 261.049 804.108C262.548 806.919 264.702 810.881 265.836 812.912C266.971 814.942 272.77 825.422 278.724 836.199C284.678 846.977 289.781 856.179 290.064 856.647C290.348 857.116 292.114 860.311 293.99 863.747C297.479 870.139 306.816 886.921 307.737 888.455C308.019 888.923 308.782 890.329 309.433 891.579C311.354 895.264 314.873 900.433 317.844 903.933L320.616 907.199L327.149 913.903C330.769 917.618 335.69 919.781 340.875 919.936L343 920C360.568 919.978 409.679 892.046 409.679 892.046C409.679 892.046 437.163 877.466 438.304 876.722C439.446 875.979 441.592 874.878 443.073 874.275C444.554 873.673 448.01 871.894 450.754 870.322C453.496 868.751 462.748 863.851 471.312 859.433C487.363 851.154 561.036 812.532 607.158 788.217C621.539 780.636 643.461 769.121 655.874 762.628C668.287 756.136 679.373 750.22 680.512 749.482C681.649 748.744 683.878 747.612 685.464 746.967C687.051 746.322 688.596 745.582 688.9 745.322C689.203 745.063 693.91 742.56 699.36 739.76C711.067 733.745 750.138 713.105 753.305 711.263C757.1 709.054 762.835 703.868 765.494 700.242C769.113 695.306 772.155 688.455 773.492 682.228C774.715 676.534 775.474 666.37 774.676 666.37Z" fill="#E9F5F5"/>
</svg>
