<svg width="465" height="457" viewBox="0 0 465 457" fill="none" xmlns="http://www.w3.org/2000/svg">
  <path
    d="M145.446 27.1329C145.446 27.1329 66.5159 67.3529 27.1459 129.333C-12.2241 191.313 -9.11411 270.963 38.7259 330.133C86.5659 389.303 178.006 381.533 254.556 419.013C331.106 456.493 415.556 448.783 451.786 369.363C488.016 289.943 433.396 260.273 424.016 168.363C414.636 76.4529 331.796 -58.0771 145.446 27.1329Z"
    fill="#F79433" />
  <path opacity="0.7"
    d="M145.446 27.1329C145.446 27.1329 66.5159 67.3529 27.1459 129.333C-12.2241 191.313 -9.11411 270.963 38.7259 330.133C86.5659 389.303 178.006 381.533 254.556 419.013C331.106 456.493 415.556 448.783 451.786 369.363C488.016 289.943 433.396 260.273 424.016 168.363C414.636 76.4529 331.796 -58.0771 145.446 27.1329Z"
    fill="white" />
  <path
    d="M419.896 219.293C419.896 219.293 419.896 212.753 410.736 203.603C401.576 194.453 395.736 189.213 395.736 189.213C395.736 189.213 391.156 204.213 399.656 213.413C408.156 222.613 419.936 231.063 419.936 231.063L419.896 219.293Z"
    fill="#F79433" />
  <path
    d="M406.625 260.133C406.625 260.133 406.625 253.593 397.465 244.443C388.305 235.293 382.465 230.053 382.465 230.053C382.465 230.053 377.885 245.053 386.395 254.253C394.905 263.453 406.625 271.903 406.625 271.903V260.133Z"
    fill="#F79433" />
  <path
    d="M419.316 230.433C419.316 230.433 420.006 223.933 430.076 215.793C440.146 207.653 446.556 203.073 446.556 203.073C446.556 203.073 449.556 218.513 440.096 226.723C430.636 234.933 418.096 242.143 418.096 242.143L419.316 230.433Z"
    fill="#F79433" />
  <path
    d="M403.265 278.663C403.265 278.663 404.635 272.273 415.505 265.233C426.375 258.193 433.225 254.323 433.225 254.323C433.225 254.323 434.545 269.983 424.315 277.163C414.085 284.343 400.795 290.163 400.795 290.163L403.265 278.663Z"
    fill="#F79433" />
  <path
    d="M406.286 331.253C406.286 331.253 406.286 324.713 415.436 315.563C424.586 306.413 430.436 301.173 430.436 301.173C430.436 301.173 435.016 316.173 426.516 325.363C418.016 334.553 406.246 343.023 406.246 343.023L406.286 331.253Z"
    fill="#F79433" />
  <path
    d="M406.125 344.133C406.125 344.133 407.055 337.653 399.295 327.293C391.535 316.933 386.455 310.913 386.455 310.913C386.455 310.913 379.785 325.153 386.895 335.423C394.005 345.693 404.455 355.783 404.455 355.783L406.125 344.133Z"
    fill="#F79433" />
  <path
    d="M397.106 382.133C397.106 382.133 397.106 375.593 406.256 366.433C415.406 357.273 421.256 352.053 421.256 352.053C421.256 352.053 425.836 367.053 417.336 376.243C408.836 385.433 397.066 393.903 397.066 393.903L397.106 382.133Z"
    fill="#F79433" />
  <path
    d="M403.216 416.623C403.216 416.623 401.556 410.293 408.096 399.113C414.636 387.933 419.006 381.393 419.006 381.393C419.006 381.393 427.236 394.783 421.336 405.793C415.436 416.803 406.196 428.003 406.196 428.003L403.216 416.623Z"
    fill="#F79433" />
  <path
    d="M420.716 217.623C420.254 224.43 419.419 231.207 418.216 237.923C414.596 256.623 405.546 268.683 401.926 285.573C398.306 302.463 408.696 324.223 405.926 345.913C403.156 367.603 394.696 379.673 397.116 394.153C399.536 408.633 412.196 447.833 412.196 447.833"
    stroke="#263238" stroke-linecap="round" stroke-linejoin="round" />
  <path d="M419.225 234.783L429.095 227.213" stroke="#263238" stroke-linecap="round" stroke-linejoin="round" />
  <path d="M419.685 226.063L415.555 218.723" stroke="#263238" stroke-linecap="round" stroke-linejoin="round" />
  <path d="M402.475 284.803C402.475 284.803 410.735 278.603 419.225 272.413" stroke="#263238" stroke-linecap="round"
    stroke-linejoin="round" />
  <path d="M406.626 271.903C406.626 271.903 399.746 258.413 391.936 249.463" stroke="#263238" stroke-linecap="round"
    stroke-linejoin="round" />
  <path d="M406.625 340.553C411.339 331.861 417.291 323.901 424.295 316.923" stroke="#263238" stroke-linecap="round"
    stroke-linejoin="round" />
  <path
    d="M404.995 349.732C402.488 343.828 399.494 338.141 396.045 332.732C391.235 325.622 390.545 324.732 390.545 324.732"
    stroke="#263238" stroke-linecap="round" stroke-linejoin="round" />
  <path
    d="M397.105 394.133C399.196 388.95 401.679 383.936 404.535 379.133C407.397 374.668 410.621 370.447 414.175 366.513"
    stroke="#263238" stroke-linecap="round" stroke-linejoin="round" />
  <path
    d="M406.196 428.003C406.196 428.003 405.196 420.173 408.666 413.523C412.136 406.873 416.016 398.133 417.626 394.703"
    stroke="#263238" stroke-linecap="round" stroke-linejoin="round" />
  <path
    d="M359.937 306.663C359.937 306.663 359.227 302.563 363.937 295.823C368.647 289.083 371.847 285.133 371.847 285.133C371.847 285.133 376.347 294.063 372.017 300.733C368.792 305.449 365.179 309.888 361.217 314.003L359.937 306.663Z"
    fill="#F79433" />
  <path
    d="M372.706 330.823C372.706 330.823 371.996 326.723 376.706 319.993C381.416 313.263 384.626 309.333 384.626 309.333C384.626 309.333 389.126 318.273 384.786 324.933C381.565 329.652 377.956 334.094 373.996 338.213L372.706 330.823Z"
    fill="#F79433" />
  <path
    d="M361.506 313.583C361.506 313.583 360.366 309.583 353.166 305.583C345.966 301.583 341.456 299.393 341.456 299.393C341.456 299.393 341.276 309.393 348.076 313.523C353.024 316.373 358.202 318.805 363.556 320.793L361.506 313.583Z"
    fill="#F79433" />
  <path
    d="M376.805 342.133C376.805 342.133 375.255 338.273 367.675 335.043C360.095 331.813 355.375 330.123 355.375 330.123C355.375 330.123 356.245 340.123 363.445 343.473C368.673 345.777 374.085 347.637 379.625 349.033L376.805 342.133Z"
    fill="#F79433" />
  <path
    d="M380.626 375.393C380.626 375.393 379.916 371.293 373.186 366.543C366.456 361.793 362.186 359.153 362.186 359.153C362.186 359.153 360.946 369.083 367.276 373.903C371.898 377.261 376.792 380.228 381.906 382.773L380.626 375.393Z"
    fill="#F79433" />
  <path
    d="M382.115 383.423C382.115 383.423 380.825 379.423 384.575 372.123C388.325 364.823 390.845 360.453 390.845 360.453C390.845 360.453 396.575 368.663 393.225 375.873C390.708 381.001 387.764 385.909 384.425 390.543L382.115 383.423Z"
    fill="#F79433" />
  <path
    d="M393.625 416.503C393.625 416.503 394.105 412.363 400.555 407.243C407.005 402.123 411.105 399.243 411.105 399.243C411.105 399.243 412.915 409.093 406.875 414.243C402.454 417.861 397.737 421.102 392.775 423.933L393.625 416.503Z"
    fill="#F79433" />
  <path
    d="M391.905 406.293C391.905 406.293 391.195 402.193 384.465 397.453C377.735 392.713 373.465 390.062 373.465 390.062C373.465 390.062 372.225 399.983 378.555 404.803C383.175 408.164 388.069 411.132 393.185 413.673L391.905 406.293Z"
    fill="#F79433" />
  <path
    d="M391.815 428.583C391.815 428.583 392.165 424.443 386.815 418.143C381.465 411.843 378.055 408.213 378.055 408.213C378.055 408.213 374.335 417.503 379.235 423.763C382.857 428.184 386.841 432.295 391.145 436.053L391.815 428.583Z"
    fill="#F79433" />
  <path
    d="M359.236 305.703C360.271 309.912 361.533 314.061 363.016 318.133C367.316 329.463 374.296 336.043 378.396 346.243C382.496 356.443 378.396 371.243 382.446 384.513C386.496 397.783 393.156 404.463 393.216 413.803C393.276 423.143 389.626 449.133 389.626 449.133"
    stroke="#263238" stroke-linecap="round" stroke-linejoin="round" />
  <path d="M362.035 316.293L355.025 312.623" stroke="#263238" stroke-linecap="round" stroke-linejoin="round" />
  <path d="M360.805 310.883L362.595 305.823" stroke="#263238" stroke-linecap="round" stroke-linejoin="round" />
  <path d="M377.965 345.843C377.965 345.843 372.115 342.843 366.125 339.893" stroke="#263238" stroke-linecap="round"
    stroke-linejoin="round" />
  <path d="M373.986 338.213C373.986 338.213 376.836 329.003 380.756 322.543" stroke="#263238" stroke-linecap="round"
    stroke-linejoin="round" />
  <path d="M381.435 381.263C377.534 376.322 372.936 371.973 367.785 368.353" stroke="#263238" stroke-linecap="round"
    stroke-linejoin="round" />
  <path
    d="M383.436 386.843C384.367 382.872 385.628 378.985 387.206 375.223C389.456 370.223 389.786 369.583 389.786 369.583"
    stroke="#263238" stroke-linecap="round" stroke-linejoin="round" />
  <path
    d="M392.896 420.913C392.896 420.913 397.536 415.223 400.426 413.093C402.174 411.81 403.813 410.385 405.327 408.833"
    stroke="#263238" stroke-linecap="round" stroke-linejoin="round" />
  <path
    d="M393.216 413.833C391.337 410.801 389.231 407.916 386.916 405.203C384.637 402.714 382.155 400.42 379.496 398.343"
    stroke="#263238" stroke-linecap="round" stroke-linejoin="round" />
  <path
    d="M391.186 436.053C390.944 432.888 389.863 429.843 388.056 427.233C385.176 423.443 381.786 418.393 380.406 416.413"
    stroke="#263238" stroke-linecap="round" stroke-linejoin="round" />
  <path d="M333.035 110.033V86.1326H328.375V83.4326H340.525V86.1326H335.855V110.033H333.035Z" fill="#263238" />
  <path
    d="M345.305 98.0626V110.063H342.475V83.4326H345.305V95.4326H351.525V83.4326H354.345V110.033H351.525V98.0326L345.305 98.0626Z"
    fill="#263238" />
  <path
    d="M360.096 104.673L359.096 110.033H356.486L361.336 83.4326H365.426L370.266 110.033H367.446L366.446 104.673H360.096ZM360.456 102.123H366.106L363.246 86.7726L360.456 102.123Z"
    fill="#263238" />
  <path
    d="M375.005 110.033H372.475V83.4326H376.055L381.915 102.663V83.4326H384.405V110.033H381.475L375.005 88.5226V110.033Z"
    fill="#263238" />
  <path
    d="M391.625 98.4826L390.125 101.133V110.063H387.305V83.4326H390.125V96.2726L396.855 83.4326H399.715L393.305 95.5526L399.925 110.033H397.035L391.625 98.4826Z"
    fill="#263238" />
  <path
    d="M336.686 139.493L331.336 122.433H334.266L338.206 135.503L342.206 122.433H344.886L339.496 139.493V149.033H336.706L336.686 139.493Z"
    fill="#263238" />
  <path
    d="M346.135 128.853C346.135 124.793 348.045 122.163 351.915 122.163C355.785 122.163 357.745 124.793 357.745 128.853V142.613C357.745 146.613 355.825 149.293 351.915 149.293C348.005 149.293 346.135 146.633 346.135 142.613V128.853ZM348.915 142.763C348.915 145.193 349.915 146.593 351.915 146.593C353.915 146.593 354.915 145.193 354.915 142.763V128.703C354.915 126.313 353.975 124.863 351.915 124.863C349.855 124.863 348.915 126.313 348.915 128.703V142.763Z"
    fill="#263238" />
  <path
    d="M363.095 142.763C363.095 145.153 364.005 146.593 366.095 146.593C368.185 146.593 369.025 145.153 369.025 142.763V122.433H371.625V142.613C371.625 146.613 369.855 149.333 365.945 149.333C362.035 149.333 360.305 146.633 360.305 142.613V122.433H363.085L363.095 142.763Z"
    fill="#263238" />
  <path
    d="M374.426 134.933V122.433H377.246V134.933L376.886 143.143H374.786L374.426 134.933ZM377.176 145.343V149.033H374.456V145.343H377.176Z"
    fill="#263238" />
  <path
    d="M380.135 134.933V122.433H382.965V134.933L382.625 143.133H380.535L380.135 134.933ZM382.885 145.343V149.033H380.175V145.343H382.885Z"
    fill="#263238" />
  <path
    d="M316.715 107.133C316.965 106.973 316.615 103.433 316.615 103.133C316.665 90.9228 318.505 77.4628 326.775 67.8928C332.235 61.5828 340.065 57.6428 348.175 55.6828C362.435 52.1328 379.035 54.2128 391.625 61.9528C393.005 62.7902 394.34 63.6981 395.625 64.6728C402.872 70.2723 408.068 78.1078 410.405 86.9628C411.939 93.1837 412.771 99.5567 412.885 105.963C413.427 114.923 412.906 123.915 411.335 132.753C409.369 143.129 404.517 152.74 397.335 160.483C389.855 168.403 378.775 173.283 367.985 174.483C357.741 175.741 347.375 173.439 338.625 167.963C328.685 161.543 322.815 151.253 320.555 139.823C319.625 135.133 318.625 121.663 318.625 121.663L301.025 116.663L316.715 107.133Z"
    stroke="#263238" stroke-width="1.9401" stroke-linejoin="round" />
  <path d="M269.545 455.823L266.965 401.723L225.895 403.673L227.785 455.823H269.545Z" fill="#263238" stroke="#263238"
    stroke-linecap="round" stroke-linejoin="round" />
  <path
    d="M283.695 184.644C283.695 184.644 313.245 189.424 314.115 193.774C314.985 198.124 322.625 313.064 321.725 320.884C320.825 328.704 299.345 321.974 289.345 319.804C279.345 317.634 277.175 306.324 277.175 306.324L273.265 260.264L262.835 308.504L276.305 408.454L223.305 411.064H144.195V169.434C144.195 169.434 226.335 170.734 231.115 170.304C235.895 169.874 283.695 184.644 283.695 184.644Z"
    fill="#F79433" />
  <mask id="mask0_182_141" style="mask-type:luminance" maskUnits="userSpaceOnUse" x="144" y="169" width="178"
    height="243">
    <path
      d="M283.695 184.644C283.695 184.644 313.245 189.424 314.115 193.774C314.985 198.124 322.625 313.064 321.725 320.884C320.825 328.704 299.345 321.974 289.345 319.804C279.345 317.634 277.175 306.324 277.175 306.324L273.265 260.264L262.835 308.504L276.305 408.454L223.305 411.064H144.195V169.434C144.195 169.434 226.335 170.734 231.115 170.304C235.895 169.874 283.695 184.644 283.695 184.644Z"
      fill="white" />
  </mask>
  <g mask="url(#mask0_182_141)">
    <path opacity="0.2"
      d="M296.145 304.304C301.255 293.244 303.805 222.594 302.145 214.084C300.485 205.574 302.145 214.084 292.775 217.484C283.405 220.884 298.775 204.714 298.775 197.054C298.775 189.394 271.535 197.054 271.535 197.054L274.735 181.884C260.635 177.634 234.655 169.984 231.195 170.304C226.415 170.734 144.275 169.434 144.275 169.434V411.064H223.365L257.785 409.374L247.625 306.854L272.305 263.444L272.365 264.444L273.265 260.274L277.175 306.334C277.5 307.742 277.969 309.112 278.575 310.424C283.625 311.464 292.625 312.014 296.145 304.304Z"
      fill="black" stroke="#263238" stroke-linecap="round" stroke-linejoin="round" />
  </g>
  <path
    d="M283.695 184.644C283.695 184.644 313.245 189.424 314.115 193.774C314.985 198.124 322.625 313.064 321.725 320.884C320.825 328.704 299.345 321.974 289.345 319.804C279.345 317.634 277.175 306.324 277.175 306.324L273.265 260.264L262.835 308.504L276.305 408.454L223.305 411.064H144.195V169.434C144.195 169.434 226.335 170.734 231.115 170.304C235.895 169.874 283.695 184.644 283.695 184.644Z"
    stroke="#263238" stroke-linecap="round" stroke-linejoin="round" />
  <path d="M253.926 184.644L249.366 232.234L238.936 238.094L244.806 250.484L220.686 291.554" stroke="#263238"
    stroke-linecap="round" stroke-linejoin="round" />
  <path
    d="M95.1349 214.843L71.1349 261.913C71.1349 261.913 64.4149 275.363 63.9949 284.613C63.5749 293.863 78.7049 299.743 89.2049 298.483C99.7049 297.223 106.855 283.353 111.065 274.103C115.275 264.853 124.515 240.483 124.515 228.293C124.515 216.103 104.375 202.653 95.1349 214.843Z"
    fill="#F79433" stroke="#263238" stroke-linecap="round" stroke-linejoin="round" />
  <path opacity="0.2"
    d="M98.5354 215.693L74.6254 262.763C74.6254 262.763 67.8954 276.213 67.4754 285.463C67.0554 294.713 82.1454 300.593 92.6254 299.333C103.105 298.073 110.275 284.203 114.475 274.953C118.675 265.703 127.955 241.333 127.955 229.133C127.955 216.933 107.785 203.513 98.5354 215.693Z"
    fill="black" stroke="#263238" stroke-linecap="round" stroke-linejoin="round" />
  <path
    d="M109.866 145.533C109.866 145.533 91.6055 149.443 75.9655 157.913C60.3255 166.383 57.7156 184.643 67.4856 196.373C77.2556 208.103 92.9156 212.023 92.9156 212.023C92.9156 212.023 113.126 283.073 111.816 290.243C110.506 297.413 85.7456 335.243 77.9156 368.473C70.0856 401.703 87.0455 455.823 87.0455 455.823H235.046C235.046 455.823 243.516 413.453 232.436 376.943C221.356 340.433 216.786 318.943 217.436 304.593C218.086 290.243 229.166 244.593 232.436 238.753C235.706 232.913 260.436 205.503 268.286 201.593C276.136 197.683 307.406 182.033 310.006 165.743C312.606 149.453 309.356 148.133 300.886 143.573C292.416 139.013 267.636 139.663 257.886 139.663C248.136 139.663 164.626 136.403 164.626 136.403L109.866 145.533Z"
    fill="white" />
  <mask id="mask1_182_141" style="mask-type:luminance" maskUnits="userSpaceOnUse" x="61" y="136" width="250"
    height="320">
    <path
      d="M109.866 145.533C109.866 145.533 91.6055 149.443 75.9655 157.913C60.3255 166.383 57.7156 184.643 67.4856 196.373C77.2556 208.103 92.9156 212.023 92.9156 212.023C92.9156 212.023 113.126 283.073 111.816 290.243C110.506 297.413 85.7456 335.243 77.9156 368.473C70.0856 401.703 87.0455 455.823 87.0455 455.823H235.046C235.046 455.823 243.516 413.453 232.436 376.943C221.356 340.433 216.786 318.943 217.436 304.593C218.086 290.243 229.166 244.593 232.436 238.753C235.706 232.913 260.436 205.503 268.286 201.593C276.136 197.683 307.406 182.033 310.006 165.743C312.606 149.453 309.356 148.133 300.886 143.573C292.416 139.013 267.636 139.663 257.886 139.663C248.136 139.663 164.626 136.403 164.626 136.403L109.866 145.533Z"
      fill="white" />
  </mask>
  <g mask="url(#mask1_182_141)">
    <path opacity="0.2"
      d="M102.076 225.993C105.476 247.273 108.076 266.853 108.076 266.853H107.546C110.346 278.413 112.296 287.853 111.856 290.263C111.136 294.213 103.316 307.443 95.1161 324.083C104.496 322.493 111.926 321.453 106.366 330.713C98.7061 343.483 83.3661 375.823 85.0861 406.463C86.2661 427.733 94.0061 446.833 98.6361 455.843H217.936C219.936 434.523 221.876 395.713 212.726 377.523C199.556 351.333 205.066 328.133 202.516 305.133C199.966 282.133 206.766 241.293 221.216 224.493C235.666 207.693 271.456 195.333 269.756 179.163C268.056 162.993 220.386 180.013 220.386 180.013C220.386 180.013 212.726 170.643 200.806 170.643C188.886 170.643 132.716 161.283 120.806 161.283C108.896 161.283 92.7161 161.283 82.5061 163.833C72.2961 166.383 65.5061 176.603 68.8861 189.373C72.2661 202.143 98.6261 204.713 102.076 225.993Z"
      fill="black" />
  </g>
  <path
    d="M109.866 145.533C109.866 145.533 91.6055 149.443 75.9655 157.913C60.3255 166.383 57.7156 184.643 67.4856 196.373C77.2556 208.103 92.9156 212.023 92.9156 212.023C92.9156 212.023 113.126 283.073 111.816 290.243C110.506 297.413 85.7456 335.243 77.9156 368.473C70.0856 401.703 87.0455 455.823 87.0455 455.823H235.046C235.046 455.823 243.516 413.453 232.436 376.943C221.356 340.433 216.786 318.943 217.436 304.593C218.086 290.243 229.166 244.593 232.436 238.753C235.706 232.913 260.436 205.503 268.286 201.593C276.136 197.683 307.406 182.033 310.006 165.743C312.606 149.453 309.356 148.133 300.886 143.573C292.416 139.013 267.636 139.663 257.886 139.663C248.136 139.663 164.626 136.403 164.626 136.403L109.866 145.533Z"
    stroke="#263238" stroke-linecap="round" stroke-linejoin="round" />
  <path d="M133.475 237.803C133.475 237.803 148.015 269.653 178.475 286.273" stroke="#263238" stroke-linecap="round"
    stroke-linejoin="round" />
  <path d="M150.096 278.653C164.787 288.121 180.046 296.677 195.786 304.273" stroke="#263238" stroke-linecap="round"
    stroke-linejoin="round" />
  <path d="M125.166 307.043C125.166 307.043 137.626 318.813 168.096 329.893" stroke="#263238" stroke-linecap="round"
    stroke-linejoin="round" />
  <path
    d="M232.415 376.943C229.955 368.833 227.815 361.463 225.975 354.743C162.355 376.353 101.345 357.633 83.2848 351.023C81.1436 356.726 79.3504 362.554 77.9148 368.473C70.0948 401.723 87.0448 455.823 87.0448 455.823H235.045C235.045 455.823 243.495 413.453 232.415 376.943Z"
    fill="#263238" />
  <mask id="mask2_182_141" style="mask-type:luminance" maskUnits="userSpaceOnUse" x="75" y="351" width="164"
    height="105">
    <path
      d="M232.415 376.943C229.955 368.833 227.815 361.463 225.975 354.743C162.355 376.353 101.345 357.633 83.2848 351.023C81.1436 356.726 79.3504 362.554 77.9148 368.473C70.0948 401.723 87.0448 455.823 87.0448 455.823H235.045C235.045 455.823 243.495 413.453 232.415 376.943Z"
      fill="white" />
  </mask>
  <g mask="url(#mask2_182_141)">
    <path opacity="0.2"
      d="M102.074 225.993C105.474 247.273 108.074 266.853 108.074 266.853H107.544C110.344 278.413 112.294 287.853 111.854 290.263C111.134 294.213 103.314 307.443 95.1142 324.083C104.494 322.493 111.924 321.453 106.364 330.713C98.7042 343.483 83.3642 375.823 85.0842 406.463C86.2642 427.733 94.0042 446.833 98.6342 455.843H217.934C219.934 434.523 221.874 395.713 212.724 377.523C199.554 351.333 205.064 328.133 202.514 305.133C199.964 282.133 206.764 241.293 221.214 224.493C235.664 207.693 271.454 195.333 269.754 179.163C268.054 162.993 220.384 180.013 220.384 180.013C220.384 180.013 212.724 170.643 200.804 170.643C188.884 170.643 132.714 161.283 120.804 161.283C108.894 161.283 92.7142 161.283 82.5042 163.833C72.2942 166.383 65.5042 176.603 68.8842 189.373C72.2642 202.143 98.6242 204.713 102.074 225.993Z"
      fill="black" stroke="#263238" stroke-linecap="round" stroke-linejoin="round" />
    <path d="M129.193 428.663L161.353 444.743" stroke="#666666" stroke-linecap="round" stroke-linejoin="round" />
    <path d="M118.334 423.233L122.984 425.553" stroke="#666666" stroke-linecap="round" stroke-linejoin="round" />
    <path d="M136.584 435.613L156.144 446.703" stroke="#666666" stroke-linecap="round" stroke-linejoin="round" />
  </g>
  <path
    d="M232.415 376.943C229.955 368.833 227.815 361.463 225.975 354.743C162.355 376.353 101.345 357.633 83.2848 351.023C81.1436 356.726 79.3504 362.554 77.9148 368.473C70.0948 401.723 87.0448 455.823 87.0448 455.823H235.045C235.045 455.823 243.495 413.453 232.415 376.943Z"
    stroke="#263238" stroke-linecap="round" stroke-linejoin="round" />
  <path
    d="M277.456 149.213C273.367 150.923 269.424 152.963 265.666 155.313C256.536 161.173 246.756 172.913 228.506 173.563"
    stroke="#263238" stroke-linecap="round" stroke-linejoin="round" />
  <path d="M287.176 145.533C287.176 145.533 285.676 146.003 283.326 146.873" stroke="#263238" stroke-linecap="round"
    stroke-linejoin="round" />
  <path d="M92.9153 212.023L76.6953 193.493" stroke="#263238" stroke-linecap="round" stroke-linejoin="round" />
  <path d="M86.3945 157.493C86.3945 157.493 98.1645 152.643 108.545 159.563" stroke="#263238" stroke-linecap="round"
    stroke-linejoin="round" />
  <path
    d="M173.745 53.8331C173.745 53.8331 159.835 45.1331 139.415 51.6631C118.995 58.1931 115.945 81.2131 115.945 94.2531C115.945 107.293 117.245 125.103 111.595 137.703C105.945 150.303 93.3454 161.613 89.4354 174.643C87.0069 183.27 85.6929 192.172 85.5254 201.133L101.165 205.913L104.165 199.833L105.035 206.783L117.195 210.693V199.853C117.195 194.203 120.195 186.383 120.195 186.383C120.195 186.383 121.925 207.673 121.925 209.853V215.503C121.925 215.503 133.225 218.973 137.135 218.973H149.745L152.355 203.763L156.695 218.973C156.695 218.973 160.175 220.713 167.565 220.283C174.955 219.853 200.155 213.283 200.155 213.283L201.455 206.333L205.805 211.543L212.755 208.543C212.755 208.543 211.015 203.763 209.755 198.543C208.495 193.323 206.755 187.243 206.755 187.243C206.755 187.243 214.625 198.983 217.205 201.133C219.785 203.283 221.545 204.613 221.545 204.613C226.086 202.97 230.341 200.624 234.155 197.663C241.155 192.443 248.925 185.923 248.925 185.923C248.925 185.923 233.285 179.403 225.925 172.923C218.565 166.443 206.805 148.583 205.065 131.633C203.325 114.683 205.935 87.7431 204.635 77.7431C203.335 67.7431 198.545 73.4031 190.285 65.1431C185.574 60.3165 179.952 56.4723 173.745 53.8331Z"
    fill="#263238" stroke="#263238" stroke-linecap="round" stroke-linejoin="round" />
  <path
    d="M148.326 58.833C148.326 58.833 134.626 60.133 128.766 77.133C122.906 94.133 134.626 111.633 134.626 135.753C134.626 159.873 125.496 169.653 124.846 178.123"
    stroke="#808080" stroke-linecap="round" stroke-linejoin="round" />
  <path
    d="M157.446 58.833C157.446 58.833 145.066 74.473 148.326 95.983C151.586 117.493 168.536 144.873 167.226 163.783C165.916 182.693 163.316 186.603 163.316 186.603"
    stroke="#808080" stroke-linecap="round" stroke-linejoin="round" />
  <path
    d="M165.275 57.5234C165.275 57.5234 178.965 71.2134 181.565 86.8634C184.165 102.513 173.095 117.503 176.355 134.443C179.615 151.383 190.045 165.133 190.045 165.133"
    stroke="#808080" stroke-linecap="round" stroke-linejoin="round" />
  <path
    d="M175.045 59.4834C180.6 64.9793 184.836 71.6637 187.435 79.0334C191.345 90.7734 185.435 106.413 190.045 120.103"
    stroke="#808080" stroke-linecap="round" stroke-linejoin="round" />
  <path
    d="M270.326 120.993C270.326 120.993 275.096 110.823 278.276 117.813C281.456 124.803 276.046 135.933 272.866 138.813C269.686 141.693 265.246 138.813 265.246 137.543C265.246 136.273 270.326 120.993 270.326 120.993Z"
    fill="#B2B2B2" stroke="#263238" stroke-linecap="round" stroke-linejoin="round" />
  <path
    d="M202.046 80.1327C202.046 80.1327 200.386 122.373 200.936 134.603C201.486 146.833 214.276 170.173 223.726 172.393C233.176 174.613 248.726 169.063 254.846 164.063C260.966 159.063 267.076 138.493 267.076 138.493C267.076 138.493 273.196 108.493 276.526 97.9227C279.856 87.3527 278.196 74.5827 266.526 63.4627C254.856 52.3427 234.846 51.2327 225.396 53.4627C215.946 55.6927 202.626 65.1327 202.046 80.1327Z"
    fill="#999999" />
  <mask id="mask3_182_141" style="mask-type:luminance" maskUnits="userSpaceOnUse" x="200" y="52" width="79"
    height="121">
    <path
      d="M202.046 80.1327C202.046 80.1327 200.386 122.373 200.936 134.603C201.486 146.833 214.276 170.173 223.726 172.393C233.176 174.613 248.726 169.063 254.846 164.063C260.966 159.063 267.076 138.493 267.076 138.493C267.076 138.493 273.196 108.493 276.526 97.9227C279.856 87.3527 278.196 74.5827 266.526 63.4627C254.856 52.3427 234.846 51.2327 225.396 53.4627C215.946 55.6927 202.626 65.1327 202.046 80.1327Z"
      fill="white" />
  </mask>
  <g mask="url(#mask3_182_141)">
    <path opacity="0.5"
      d="M262.236 108.953C262.236 123.953 261.636 141.373 253.836 153.953C250.071 160.099 245.627 165.802 240.586 170.953C246.406 169.213 251.796 166.583 254.846 164.093C260.966 159.093 267.076 138.523 267.076 138.523C267.076 138.523 273.196 108.523 276.526 97.953C278 93.3892 278.406 88.5478 277.712 83.8023C277.019 79.0568 275.244 74.5341 272.526 70.583C270.326 75.783 262.236 95.963 262.236 108.953Z"
      fill="white" />
    <path opacity="0.5"
      d="M233.456 133.623C233.456 133.623 229.726 141.423 232.456 142.783C235.186 144.143 238.566 141.423 238.566 138.373C238.566 135.323 234.806 131.253 233.456 133.623Z"
      fill="white" />
  </g>
  <path
    d="M202.046 80.1327C202.046 80.1327 200.386 122.373 200.936 134.603C201.486 146.833 214.276 170.173 223.726 172.393C233.176 174.613 248.726 169.063 254.846 164.063C260.966 159.063 267.076 138.493 267.076 138.493C267.076 138.493 273.196 108.493 276.526 97.9227C279.856 87.3527 278.196 74.5827 266.526 63.4627C254.856 52.3427 234.846 51.2327 225.396 53.4627C215.946 55.6927 202.626 65.1327 202.046 80.1327Z"
    stroke="#263238" stroke-linecap="round" stroke-linejoin="round" />
  <path d="M208.975 112.133C214.249 109.627 220.291 109.268 225.825 111.133" stroke="#263238" stroke-width="2"
    stroke-linecap="round" stroke-linejoin="round" />
  <path d="M240.766 113.043C240.766 113.043 252.206 112.723 258.886 119.723" stroke="#263238" stroke-width="2"
    stroke-linecap="round" stroke-linejoin="round" />
  <path d="M209.625 121.623C209.625 121.623 213.755 128.303 224.245 123.853" stroke="#263238" stroke-width="2"
    stroke-linecap="round" stroke-linejoin="round" />
  <path
    d="M238.855 126.394C240.722 128.776 243.344 130.452 246.29 131.147C249.237 131.841 252.331 131.512 255.065 130.214"
    stroke="#263238" stroke-width="2" stroke-linecap="round" stroke-linejoin="round" />
  <path
    d="M222.016 141.013C222.016 141.013 223.606 145.463 230.916 145.783C238.226 146.103 239.496 141.653 239.496 141.653"
    stroke="#263238" stroke-linecap="round" stroke-linejoin="round" />
  <path d="M218.836 149.604C218.836 149.604 225.506 155.954 240.126 153.094" stroke="#263238" stroke-linecap="round"
    stroke-linejoin="round" />
  <path
    d="M225.395 53.5032C215.945 55.7232 202.625 65.1332 202.045 80.1332C202.045 80.1332 201.635 90.6932 201.285 102.783L202.045 103.483L206.495 83.4832C206.495 83.4832 229.835 95.1532 267.075 90.7032C267.075 90.7032 267.075 103.493 267.635 108.493C268.195 113.493 266.525 124.053 269.855 124.613C269.855 124.613 269.965 124.613 270.015 124.613C272.015 115.293 274.705 103.713 276.525 97.9432C279.855 87.3832 278.195 74.6032 266.525 63.4832C254.855 52.3632 234.845 51.2732 225.395 53.5032Z"
    fill="#263238" stroke="#263238" stroke-linecap="round" stroke-linejoin="round" />
  <g opacity="0.2">
    <path
      d="M267.795 73.7725C268.59 73.7725 269.353 73.4565 269.916 72.8939C270.479 72.3313 270.795 71.5682 270.795 70.7725C270.795 69.9769 270.479 69.2138 269.916 68.6512C269.353 68.0886 268.59 67.7725 267.795 67.7725C267.593 67.7727 267.392 67.7928 267.195 67.8325C267.72 67.2265 267.983 66.4367 267.925 65.6369C267.868 64.837 267.496 64.0927 266.89 63.5675C266.284 63.0424 265.494 62.7795 264.694 62.8367C263.894 62.8939 263.15 63.2665 262.625 63.8725C262.423 64.0753 262.255 64.3081 262.125 64.5626C261.895 64.4558 261.653 64.3786 261.405 64.3325C261.708 63.7574 261.817 63.0992 261.713 62.4571C261.61 61.815 261.302 61.2238 260.833 60.7725C260.365 60.3212 259.763 60.0343 259.117 59.9549C258.472 59.8756 257.818 60.0081 257.255 60.3325C257.33 60.1781 257.381 60.0127 257.405 59.8425C257.438 59.5458 257.383 59.2457 257.246 58.9802C257.11 58.7147 256.897 58.4958 256.636 58.3511C256.374 58.2064 256.076 58.1425 255.778 58.1674C255.481 58.1923 255.197 58.3049 254.964 58.4909C254.73 58.677 254.557 58.9282 254.466 59.2127C254.375 59.4972 254.371 59.8023 254.453 60.0894C254.536 60.3764 254.701 60.6326 254.93 60.8254C255.158 61.0182 255.438 61.139 255.735 61.1726C255.933 61.213 256.137 61.213 256.335 61.1726C256.014 61.5871 255.807 62.0785 255.735 62.5979C255.663 63.1172 255.728 63.6464 255.925 64.1325C255.731 64.0091 255.512 63.9306 255.285 63.9025C254.986 63.8696 254.684 63.9267 254.418 64.0664C254.152 64.206 253.933 64.422 253.79 64.6866C253.648 64.9512 253.587 65.2523 253.617 65.5515C253.646 65.8507 253.764 66.1343 253.956 66.3659C254.147 66.5976 254.404 66.7667 254.692 66.8518C254.981 66.9368 255.288 66.9339 255.574 66.8433C255.861 66.7527 256.114 66.5786 256.301 66.3433C256.488 66.108 256.601 65.8222 256.625 65.5225C256.645 65.3933 256.645 65.2618 256.625 65.1325C257.06 65.5667 257.619 65.8564 258.225 65.9626C258.008 66.376 257.895 66.8358 257.895 67.3025C257.88 67.9794 258.095 68.6413 258.504 69.1806C258.914 69.7198 259.494 70.1048 260.149 70.2728C260.805 70.4408 261.499 70.382 262.117 70.106C262.735 69.83 263.242 69.353 263.555 68.7526C264.131 69.0137 264.773 69.0905 265.395 68.9725C265.009 69.4864 264.799 70.1103 264.795 70.7526C264.794 70.9508 264.814 71.1485 264.855 71.3425C264.734 71.1864 264.583 71.0556 264.412 70.9578C264.24 70.86 264.051 70.797 263.855 70.7725C263.558 70.7408 263.259 70.7977 262.994 70.9359C262.73 71.0742 262.513 71.2876 262.369 71.5493C262.226 71.811 262.164 72.1093 262.19 72.4064C262.216 72.7036 262.33 72.9863 262.516 73.219C262.703 73.4517 262.955 73.6238 263.239 73.7137C263.523 73.8037 263.828 73.8073 264.115 73.7243C264.401 73.6412 264.657 73.4752 264.849 73.247C265.041 73.0189 265.161 72.739 265.195 72.4425C265.2 72.356 265.2 72.2691 265.195 72.1826C265.447 72.6557 265.82 73.0527 266.278 73.3323C266.735 73.6119 267.259 73.7639 267.795 73.7725Z"
      fill="white" />
    <path
      d="M254.156 60.6227C254.188 60.3261 254.131 60.0267 253.993 59.7624C253.854 59.498 253.641 59.2806 253.379 59.1374C253.117 58.9942 252.819 58.9318 252.522 58.958C252.225 58.9841 251.942 59.0977 251.71 59.2844C251.477 59.4711 251.305 59.7225 251.215 60.007C251.125 60.2914 251.121 60.5961 251.204 60.8826C251.287 61.1691 251.453 61.4246 251.681 61.6168C251.91 61.8091 252.19 61.9294 252.486 61.9627C252.684 61.9849 252.884 61.9678 253.075 61.9124C253.266 61.857 253.444 61.7644 253.6 61.6399C253.755 61.5154 253.884 61.3614 253.979 61.1868C254.075 61.0123 254.135 60.8206 254.156 60.6227Z"
      fill="white" />
    <path
      d="M249.626 56.9627C249.329 56.9309 249.03 56.9878 248.765 57.126C248.501 57.2643 248.284 57.4777 248.14 57.7394C247.997 58.0011 247.935 58.2994 247.961 58.5965C247.987 58.8937 248.101 59.1764 248.287 59.4091C248.474 59.6418 248.725 59.8139 249.01 59.9039C249.294 59.9938 249.599 59.9974 249.886 59.9144C250.172 59.8313 250.428 59.6653 250.62 59.4372C250.812 59.209 250.932 58.9291 250.966 58.6327C251.008 58.2338 250.891 57.8345 250.64 57.5217C250.389 57.2089 250.024 57.0079 249.626 56.9627Z"
      fill="white" />
    <path
      d="M272.485 75.4627C272.519 75.1659 272.464 74.8658 272.327 74.6003C272.19 74.3348 271.977 74.1159 271.716 73.9712C271.455 73.8265 271.156 73.7626 270.859 73.7875C270.561 73.8124 270.278 73.925 270.044 74.111C269.81 74.2971 269.637 74.5483 269.546 74.8328C269.455 75.1174 269.451 75.4224 269.533 75.7095C269.616 75.9965 269.782 76.2527 270.01 76.4455C270.238 76.6383 270.518 76.7591 270.815 76.7927C271.213 76.8376 271.612 76.7228 271.925 76.4734C272.238 76.224 272.44 75.8604 272.485 75.4627Z"
      fill="white" />
    <path
      d="M267.736 75.8931C267.339 75.8511 266.94 75.9686 266.629 76.2198C266.318 76.471 266.119 76.8355 266.076 77.2331C266.047 77.6232 266.171 78.0094 266.421 78.3102C266.671 78.611 267.028 78.803 267.417 78.8458C267.806 78.8885 268.196 78.7787 268.506 78.5395C268.815 78.3002 269.02 77.9502 269.076 77.5631C269.119 77.1643 269.001 76.765 268.75 76.4521C268.499 76.1393 268.135 75.9384 267.736 75.8931Z"
      fill="white" />
    <path
      d="M257.835 72.9725C257.538 72.9388 257.238 72.9939 256.972 73.1308C256.707 73.2676 256.488 73.4801 256.343 73.7414C256.199 74.0027 256.135 74.3011 256.16 74.5987C256.184 74.8964 256.297 75.18 256.483 75.4136C256.669 75.6472 256.92 75.8204 257.205 75.9113C257.489 76.0022 257.794 76.0066 258.082 75.9241C258.369 75.8416 258.625 75.6757 258.818 75.4476C259.01 75.2195 259.131 74.9393 259.165 74.6425C259.21 74.2447 259.095 73.8454 258.845 73.5322C258.596 73.219 258.233 73.0177 257.835 72.9725Z"
      fill="white" />
    <path
      d="M272.445 80.703C272.148 80.671 271.848 80.7279 271.583 80.8664C271.319 81.0049 271.101 81.2188 270.958 81.4811C270.815 81.7434 270.753 82.0422 270.78 82.3398C270.806 82.6374 270.921 82.9203 271.108 83.1528C271.296 83.3853 271.549 83.5569 271.834 83.6458C272.119 83.7348 272.424 83.7372 272.711 83.6526C272.997 83.568 273.252 83.4004 273.444 83.1708C273.635 82.9413 273.754 82.6601 273.785 82.363C273.827 81.9653 273.71 81.5671 273.458 81.2559C273.207 80.9447 272.843 80.7458 272.445 80.703Z"
      fill="white" />
  </g>
  <path
    d="M230.456 309.253L222.236 302.893C222.236 302.893 211.396 288.693 209.526 285.703C207.656 282.713 196.816 280.843 192.696 278.973C188.576 277.103 183.696 277.843 183.696 279.713C183.696 281.583 187.436 283.833 191.546 284.953C195.656 286.073 201.646 293.553 201.646 293.553C201.646 293.553 177.716 293.173 172.856 292.803C167.996 292.433 154.536 290.933 154.166 293.173C153.796 295.413 154.166 298.033 160.166 298.033C166.166 298.033 179.226 301.033 179.226 301.033V305.133C179.226 305.133 156.426 308.493 153.806 308.493C151.186 308.493 149.326 309.613 149.326 311.493C149.326 313.373 152.686 314.493 152.686 314.493C152.686 314.493 151.566 316.743 154.186 318.983C155.716 320.315 157.493 321.335 159.416 321.983C160.049 323.114 160.972 324.057 162.09 324.714C163.207 325.371 164.48 325.719 165.776 325.723C170.256 325.723 191.196 326.093 194.936 326.093C198.676 326.093 207.266 324.973 207.266 324.973L228.626 328.323L230.456 309.253Z"
    fill="#999999" stroke="#263238" stroke-linecap="round" stroke-linejoin="round" />
  <path d="M152.695 314.483C152.695 314.483 171.385 316.353 180.695 314.113" stroke="#263238" stroke-linecap="round"
    stroke-linejoin="round" />
  <path d="M159.426 321.963C159.426 321.963 171.426 322.333 181.486 321.593" stroke="#263238" stroke-linecap="round"
    stroke-linejoin="round" />
  <path
    d="M298.905 291.553L226.545 304.553L223.285 334.553C223.285 334.553 259.795 334.553 277.395 333.253C294.995 331.953 321.725 328.693 321.725 320.863C321.725 313.033 321.075 298.053 321.075 298.053"
    fill="#F79433" />
  <mask id="mask4_182_141" style="mask-type:luminance" maskUnits="userSpaceOnUse" x="223" y="291" width="99"
    height="44">
    <path
      d="M298.905 291.553L226.545 304.553L223.285 334.553C223.285 334.553 259.795 334.553 277.395 333.253C294.995 331.953 321.725 328.693 321.725 320.863C321.725 313.033 321.075 298.053 321.075 298.053"
      fill="white" />
  </mask>
  <g mask="url(#mask4_182_141)">
    <path opacity="0.2"
      d="M290.526 293.062L226.526 304.592L223.266 334.592C223.266 334.592 247.536 334.593 266.046 333.893C284.126 331.843 303.696 328.893 309.046 325.113C319.256 317.913 317.456 310.112 311.446 302.902C306.696 297.132 295.076 294.072 290.526 293.062Z"
      fill="black" stroke="#263238" stroke-linecap="round" stroke-linejoin="round" />
  </g>
  <path
    d="M298.905 291.553L226.545 304.553L223.285 334.553C223.285 334.553 259.795 334.553 277.395 333.253C294.995 331.953 321.725 328.693 321.725 320.863C321.725 313.033 321.075 298.053 321.075 298.053"
    stroke="#263238" stroke-linecap="round" stroke-linejoin="round" />
  <path
    d="M74.9552 264.853C74.9552 264.853 148.505 253.933 150.625 253.513C152.745 253.093 163.235 237.513 165.335 235.863C167.435 234.213 175.845 226.193 178.785 223.253C181.725 220.313 185.085 211.483 186.355 209.803C187.625 208.123 190.975 210.223 190.975 214.003C190.975 217.783 188.035 223.253 186.775 225.773C185.515 228.293 183.405 227.873 183.405 231.653C183.398 232.756 183.619 233.849 184.054 234.863C184.49 235.876 185.13 236.789 185.935 237.543L212.825 226.613C212.825 226.613 218.715 223.253 221.235 224.513C223.755 225.773 222.915 229.513 218.715 231.653C214.515 233.793 197.715 244.653 197.715 244.653C199.254 245.475 200.971 245.908 202.715 245.913C205.655 245.913 224.565 243.813 228.345 243.813C232.125 243.813 230.865 249.703 227.925 250.123C224.985 250.543 203.135 255.123 200.605 255.123C198.075 255.123 200.185 259.323 203.135 259.323C206.085 259.323 226.665 263.523 226.665 265.633C226.665 267.743 224.145 268.993 220.365 269.413C216.585 269.833 197.665 267.733 197.665 267.733C197.665 267.733 211.115 276.133 212.795 276.973C214.475 277.813 213.635 279.913 208.595 279.913C203.555 279.913 182.535 273.613 182.535 273.613L158.165 270.673C158.165 270.673 114.875 295.883 98.0652 305.553C81.2552 315.223 73.2752 316.973 68.6252 312.353C63.9752 307.733 61.4852 290.073 63.6252 282.933C64.7769 278.86 66.3208 274.908 68.2352 271.133"
    fill="#999999" />
  <path
    d="M74.9552 264.853C74.9552 264.853 148.505 253.933 150.625 253.513C152.745 253.093 163.235 237.513 165.335 235.863C167.435 234.213 175.845 226.193 178.785 223.253C181.725 220.313 185.085 211.483 186.355 209.803C187.625 208.123 190.975 210.223 190.975 214.003C190.975 217.783 188.035 223.253 186.775 225.773C185.515 228.293 183.405 227.873 183.405 231.653C183.398 232.756 183.619 233.849 184.054 234.863C184.49 235.876 185.13 236.789 185.935 237.543L212.825 226.613C212.825 226.613 218.715 223.253 221.235 224.513C223.755 225.773 222.915 229.513 218.715 231.653C214.515 233.793 197.715 244.653 197.715 244.653C199.254 245.475 200.971 245.908 202.715 245.913C205.655 245.913 224.565 243.813 228.345 243.813C232.125 243.813 230.865 249.703 227.925 250.123C224.985 250.543 203.135 255.123 200.605 255.123C198.075 255.123 200.185 259.323 203.135 259.323C206.085 259.323 226.665 263.523 226.665 265.633C226.665 267.743 224.145 268.993 220.365 269.413C216.585 269.833 197.665 267.733 197.665 267.733C197.665 267.733 211.115 276.133 212.795 276.973C214.475 277.813 213.635 279.913 208.595 279.913C203.555 279.913 182.535 273.613 182.535 273.613L158.165 270.673C158.165 270.673 114.875 295.883 98.0652 305.553C81.2552 315.223 73.2752 316.973 68.6252 312.353C63.9752 307.733 61.4852 290.073 63.6252 282.933C64.7769 278.86 66.3208 274.908 68.2352 271.133"
    stroke="#263238" stroke-linecap="round" stroke-linejoin="round" />
  <path
    d="M67.4854 267.433C67.4854 267.433 59.0154 289.593 60.3154 301.333C61.6154 313.073 67.4854 321.533 81.1754 318.283C94.8654 315.033 149.625 289.593 149.625 289.593L144.415 251.133L75.3154 262.873C75.3154 262.873 71.3954 260.263 67.4854 267.433Z"
    fill="#F79433" />
  <mask id="mask5_182_141" style="mask-type:luminance" maskUnits="userSpaceOnUse" x="60" y="251" width="90" height="68">
    <path
      d="M67.4854 267.433C67.4854 267.433 59.0154 289.593 60.3154 301.333C61.6154 313.073 67.4854 321.533 81.1754 318.283C94.8654 315.033 149.625 289.593 149.625 289.593L144.415 251.133L75.3154 262.873C75.3154 262.873 71.3954 260.263 67.4854 267.433Z"
      fill="white" />
  </mask>
  <g mask="url(#mask5_182_141)">
    <path opacity="0.2"
      d="M73.1357 277.063C67.4357 285.463 59.9257 298.263 68.6557 312.353C70.6557 315.493 74.3257 317.503 79.0757 318.683C79.7557 318.573 80.4557 318.453 81.1757 318.283C94.8657 315.023 149.626 289.593 149.626 289.593L145.366 258.183L143.786 255.783C143.786 255.783 78.8257 268.673 73.1357 277.063Z"
      fill="black" stroke="#263238" stroke-linecap="round" stroke-linejoin="round" />
  </g>
  <path
    d="M67.4854 267.433C67.4854 267.433 59.0154 289.593 60.3154 301.333C61.6154 313.073 67.4854 321.533 81.1754 318.283C94.8654 315.033 149.625 289.593 149.625 289.593L144.415 251.133L75.3154 262.873C75.3154 262.873 71.3954 260.263 67.4854 267.433Z"
    stroke="#263238" stroke-linecap="round" stroke-linejoin="round" />
  <path d="M273.486 257.003C273.486 257.003 268.926 230.273 286.486 208.763" stroke="#263238" stroke-linecap="round"
    stroke-linejoin="round" />
  <path d="M272.835 223.133C271.431 232.399 270.762 241.761 270.835 251.133" stroke="#263238" stroke-linecap="round"
    stroke-linejoin="round" />
  <path d="M263.704 341.743L233.064 342.393L234.374 356.743L263.054 356.083" stroke="#263238" stroke-linecap="round"
    stroke-linejoin="round" />
</svg>